<mxfile host="Electron" modified="2024-04-29T15:52:44.932Z" agent="Mozilla/5.0 (Macintosh; Intel Mac OS X 10_15_7) AppleWebKit/537.36 (KHTML, like Gecko) draw.io/24.2.5 Chrome/120.0.6099.109 Electron/28.1.0 Safari/537.36" etag="bmEotd-Pqeo69NTeEOOG" version="24.2.5" type="device">
  <diagram name="Page-1" id="nna5yj1e4bjYcRZGEAJ2">
    <mxGraphModel dx="1363" dy="329" grid="1" gridSize="10" guides="1" tooltips="1" connect="1" arrows="1" fold="1" page="1" pageScale="1" pageWidth="850" pageHeight="1100" math="0" shadow="0">
      <root>
        <mxCell id="0" />
        <mxCell id="1" parent="0" />
        <mxCell id="KrZMVGwemaGHYM_YUxDV-21" style="edgeStyle=orthogonalEdgeStyle;rounded=0;orthogonalLoop=1;jettySize=auto;html=1;exitX=0.5;exitY=1;exitDx=0;exitDy=0;entryX=0.5;entryY=0;entryDx=0;entryDy=0;" edge="1" parent="1" source="KrZMVGwemaGHYM_YUxDV-12" target="KrZMVGwemaGHYM_YUxDV-18">
          <mxGeometry relative="1" as="geometry" />
        </mxCell>
        <mxCell id="KrZMVGwemaGHYM_YUxDV-12" value="" style="shape=image;verticalLabelPosition=bottom;labelBackgroundColor=default;verticalAlign=top;aspect=fixed;imageAspect=0;image=data:image/png,iVBORw0KGgoAAAANSUhEUgAAAGAAAABgCAYAAADimHc4AAAMP2lDQ1BJQ0MgUHJvZmlsZQAASImVVwdYU8kWnluSkEBoAQSkhN4EkRpASggt9I4gKiEJEEqMgaBiRxcVXLtYwIauiihYAbGgiJ1FsWFfLCgo62LBrrxJAV33le/N9829//3nzH/OnDu3HADUTnJEolxUHYA8YYE4NtifPi45hU7qAQigATIAwIvDzRcxo6PDIQZD57+3dzehNWzX7KVa/xz/r02Dx8/nAoBEQ5zOy+fmQXwIALySKxIXAECU8mZTC0RSDDvQEsMAIV4kxZlyXCnF6XK8T2YTH8uCuBUAJRUOR5wJgOoVyNMLuZlQQ7UfYkchTyAEQI0OsU9e3mQexGkQW0MbEcRSfUb6DzqZf9NMH9bkcDKHsXwtsqYUIMgX5XKm/5/p+N8tL1cy5MMSdpUscUisdM0wb7dyJodJsQrEfcL0yCiINSH+IODJ7CFGKVmSkAS5PWrAzWfBnAEdiB15nIAwiA0gDhLmRoYr+PQMQRAbYrhD0GmCAnY8xLoQL+LnB8YpbLaIJ8cqfKH1GWIWU8Gf54hlfqW+HkhyEpgK/ddZfLZCH1MtyopPgpgCsXmhIDESYlWIHfJz4sIUNmOLsliRQzZiSaw0fnOIY/nCYH+5PlaYIQ6KVdiX5uUPrRfbkiVgRyrwgYKs+BB5frBWLkcWP1wLdoUvZCYM6fDzx4UPrYXHDwiUrx3r4QsT4hQ6H0QF/rHyuThFlButsMdN+bnBUt4UYpf8wjjFXDyxAG5IuT6eISqIjpfHiRdlc0Kj5fHgy0E4YIEAQAcS2NPBZJANBO19DX3wSj4SBDhADDIBH9grmKEZSbIRITzGgSLwJ0R8kD88z182ygeFkP86zMqP9iBDNloom5EDnkKcB8JALryWyGYJh70lgieQEfzDOwd2Low3F3bp+L/nh9jvDBMy4QpGMuSRrjZkSQwkBhBDiEFEG1wf98G98HB49IPdCWfgHkPr+G5PeEroIDwi3CB0EW5PEhSLf4oyAnRB/SBFLtJ/zAVuCTVdcX/cG6pDZVwH1wf2uAv0w8R9oWdXyLIUcUuzQv9J+28r+OFuKOzIjmSUPILsR7b+eaaqrarrsIo01z/mRx5r+nC+WcMjP/tn/ZB9HjyH/WyJLcIOYuewU9gF7BjWAOhYM9aItWHHpXh4dz2R7a4hb7GyeHKgjuAf/oburDST+Y41jr2OX+RjBfxp0nc0YE0WTRcLMrMK6Ez4ReDT2UKuwyi6k6OTCwDS74v89fUmRvbdQHTavnPz/wDAu3lwcPDody60GYD97vDxP/Kds2bAT4cyAOePcCXiQjmHSw8E+JZQg0+aHjACZsAarscJuAEv4AcCQSiIAvEgGUyE0WfBfS4GU8FMMA+UgDKwHKwBG8BmsA3sAnvBAdAAjoFT4Cy4BK6AG+Au3D3d4AXoB+/AZwRBSAgVoSF6iDFigdghTggD8UECkXAkFklG0pBMRIhIkJnIfKQMWYlsQLYi1ch+5AhyCrmAdCC3kYdIL/Ia+YRiqAqqhRqiluholIEy0TA0Hp2AZqJT0CJ0AboUXYdWoXvQevQUegm9gXahL9ABDGDKmA5mgtljDIyFRWEpWAYmxmZjpVg5VoXVYk3wPl/DurA+7CNOxGk4HbeHOzgET8C5+BR8Nr4E34DvwuvxVvwa/hDvx78RqAQDgh3Bk8AmjCNkEqYSSgjlhB2Ew4Qz8FnqJrwjEok6RCuiO3wWk4nZxBnEJcSNxDriSWIH8TFxgEQi6ZHsSN6kKBKHVEAqIa0n7SE1k66SukkflJSVjJWclIKUUpSESsVK5Uq7lU4oXVV6pvSZrE62IHuSo8g88nTyMvJ2chP5Mrmb/JmiQbGieFPiKdmUeZR1lFrKGco9yhtlZWVTZQ/lGGWB8lzldcr7lM8rP1T+qKKpYqvCUklVkagsVdmpclLltsobKpVqSfWjplALqEup1dTT1AfUD6o0VQdVtipPdY5qhWq96lXVl2pkNQs1ptpEtSK1crWDapfV+tTJ6pbqLHWO+mz1CvUj6p3qAxo0jTEaURp5Gks0dmtc0OjRJGlaagZq8jQXaG7TPK35mIbRzGgsGpc2n7addobWrUXUstJia2VrlWnt1WrX6tfW1HbRTtSepl2hfVy7SwfTsdRh6+TqLNM5oHNT59MIwxHMEfwRi0fUjrg64r3uSF0/Xb5uqW6d7g3dT3p0vUC9HL0Veg169/VxfVv9GP2p+pv0z+j3jdQa6TWSO7J05IGRdwxQA1uDWIMZBtsM2gwGDI0Mgw1FhusNTxv2GekY+RllG602OmHUa0wz9jEWGK82bjZ+TtemM+m59HX0Vnq/iYFJiInEZKtJu8lnUyvTBNNi0zrT+2YUM4ZZhtlqsxazfnNj8wjzmeY15ncsyBYMiyyLtRbnLN5bWlkmWS60bLDssdK1YlsVWdVY3bOmWvtaT7Gusr5uQ7Rh2OTYbLS5Yovautpm2VbYXrZD7dzsBHYb7TpGEUZ5jBKOqhrVaa9iz7QvtK+xf+ig4xDuUOzQ4PBytPnolNErRp8b/c3R1THXcbvj3TGaY0LHFI9pGvPaydaJ61ThdN2Z6hzkPMe50fmVi50L32WTyy1XmmuE60LXFtevbu5uYrdat153c/c090r3ToYWI5qxhHHeg+Dh7zHH45jHR083zwLPA55/edl75Xjt9uoZazWWP3b72Mfept4c763eXT50nzSfLT5dvia+HN8q30d+Zn48vx1+z5g2zGzmHuZLf0d/sf9h//csT9Ys1skALCA4oDSgPVAzMCFwQ+CDINOgzKCaoP5g1+AZwSdDCCFhIStCOtmGbC67mt0f6h46K7Q1TCUsLmxD2KNw23BxeFMEGhEasSriXqRFpDCyIQpEsaNWRd2PtoqeEn00hhgTHVMR8zR2TOzM2HNxtLhJcbvj3sX7xy+Lv5tgnSBJaElUS0xNrE58nxSQtDKpa9zocbPGXUrWTxYkN6aQUhJTdqQMjA8cv2Z8d6praknqzQlWE6ZNuDBRf2LuxOOT1CZxJh1MI6Qlpe1O+8KJ4lRxBtLZ6ZXp/VwWdy33Bc+Pt5rXy/fmr+Q/y/DOWJnRk+mduSqzN8s3qzyrT8ASbBC8yg7J3pz9PicqZ2fOYG5Sbl2eUl5a3hGhpjBH2DrZaPK0yR0iO1GJqGuK55Q1U/rFYeId+Uj+hPzGAi34I98msZb8InlY6FNYUfhhauLUg9M0pgmntU23nb54+rOioKLfZuAzuDNaZprMnDfz4SzmrK2zkdnps1vmmM1ZMKd7bvDcXfMo83Lm/V7sWLyy+O38pPlNCwwXzF3w+JfgX2pKVEvEJZ0LvRZuXoQvEixqX+y8eP3ib6W80otljmXlZV+WcJdc/HXMr+t+HVyasbR9mduyTcuJy4XLb67wXbFrpcbKopWPV0Wsql9NX126+u2aSWsulLuUb15LWStZ27UufF3jevP1y9d/2ZC14UaFf0VdpUHl4sr3G3kbr27y21S72XBz2eZPWwRbbm0N3lpfZVlVvo24rXDb0+2J28/9xviteof+jrIdX3cKd3btit3VWu1eXb3bYPeyGrRGUtO7J3XPlb0Bextr7Wu31unUle0D+yT7nu9P23/zQNiBloOMg7WHLA5VHqYdLq1H6qfX9zdkNXQ1Jjd2HAk90tLk1XT4qMPRncdMjlUc1z6+7ATlxIITg81FzQMnRSf7TmWeetwyqeXu6XGnr7fGtLafCTtz/mzQ2dPnmOeaz3ufP3bB88KRi4yLDZfcLtW3ubYd/t3198Ptbu31l90vN17xuNLUMbbjxFXfq6euBVw7e519/dKNyBsdNxNu3upM7ey6xbvVczv39qs7hXc+3517j3Cv9L76/fIHBg+q/rD5o67Lrev4w4CHbY/iHt19zH384kn+ky/dC55Sn5Y/M35W3ePUc6w3qPfK8/HPu1+IXnzuK/lT48/Kl9YvD/3l91db/7j+7lfiV4Ovl7zRe7PzrcvbloHogQfv8t59fl/6Qe/Dro+Mj+c+JX169nnqF9KXdV9tvjZ9C/t2bzBvcFDEEXNkvwIY7GhGBgCvdwJATQaABuszynh5/SdriLxmlSHwn7C8RpQ1NwBq4f97TB/8u+kEYN92WH5BfbVUAKKpAMR7ANTZebgP1WqyulLaiLAO2BL1NT0vHfybJq85f4j75zOQqrqAn8//Aus0fGM3KyfvAAAARGVYSWZNTQAqAAAACAACARIAAwAAAAEAAQAAh2kABAAAAAEAAAAmAAAAAAACoAIABAAAAAEAAABgoAMABAAAAAEAAABgAAAAAGNDyuAAAAICaVRYdFhNTDpjb20uYWRvYmUueG1wAAAAAAA8eDp4bXBtZXRhIHhtbG5zOng9ImFkb2JlOm5zOm1ldGEvIiB4OnhtcHRrPSJYTVAgQ29yZSA2LjAuMCI+CiAgIDxyZGY6UkRGIHhtbG5zOnJkZj0iaHR0cDovL3d3dy53My5vcmcvMTk5OS8wMi8yMi1yZGYtc3ludGF4LW5zIyI+CiAgICAgIDxyZGY6RGVzY3JpcHRpb24gcmRmOmFib3V0PSIiCiAgICAgICAgICAgIHhtbG5zOnRpZmY9Imh0dHA6Ly9ucy5hZG9iZS5jb20vdGlmZi8xLjAvIgogICAgICAgICAgICB4bWxuczpleGlmPSJodHRwOi8vbnMuYWRvYmUuY29tL2V4aWYvMS4wLyI+CiAgICAgICAgIDx0aWZmOk9yaWVudGF0aW9uPjE8L3RpZmY6T3JpZW50YXRpb24+CiAgICAgICAgIDxleGlmOlBpeGVsWERpbWVuc2lvbj45NjwvZXhpZjpQaXhlbFhEaW1lbnNpb24+CiAgICAgICAgIDxleGlmOlBpeGVsWURpbWVuc2lvbj45NjwvZXhpZjpQaXhlbFlEaW1lbnNpb24+CiAgICAgIDwvcmRmOkRlc2NyaXB0aW9uPgogICA8L3JkZjpSREY+CjwveDp4bXBtZXRhPgqMT/CMAAAZy0lEQVR4Ae1dB3hVxfL/pffeCYSQQhJC710IgrQnKlIUpKiI+KQpPqn+pUoTpaooGESKVEU6SBMRQg0QQgg1gfSE9F7+Mwdvcs/NvTfnliS892W/L9yze2bLmdmdnZ2dGQzKKKEu1RoGDGut57qOBQzUEaCWJ4JxLff/P9E9c/GsrCw8evQIKSmpKCsrhZOTE7y8vGBvbw8DAwOV31lHAJWoqfpFYWEhHj58iJ07d+HcX+eQn58vqmRsbIw2bdtg+PBhCAgIgJmZmeg9ZwzqNuFKOJFUkJSUjE2hm3DixAkwIdQlRnzHjh3x5og34OfnJwKtI4AIHdIySUlJmPD+B8jIyCB2I12IdHNzw1dfrwD/ylLdJizDhMTfxMREzJ07D+np6Rohn5vnupMnTyG29ai8tzoClKNC2sOePXtxJ+qONGAlUMnEukJDQ5GXlye8rSOAEiSpKoqNjcXuXbtRWlqqCkRS+cWwi7h9+7YAW0cASSiDwG42/7RZY7ajrHmWlo4cPlpHAGXIUVWWnZ2NiIhbql5rXB52MUyo8195DuCDTklpCUrL6I/YgZmJufBbUlICQyMjGBkaqT38aIwtqsCbblFRkTZVldbJysxCTk4unnsClKEMBUV5SM2Mx5O0e4hJuYPkzCfILchEUTHL32UY13sBoqNu46fta+mwYw4nR1f4+zShvyB4NfCDg50jjIx0+9TMTOpPjwTgicNSkW6jUkpb3QpLaWZn52cgMSMGcWkPcDchnJAehcIi8SlTvpdSWhEFBflITk0gJBXiwaM7uHT1rABiAAN4uNdHy2YdEODXDN5efnBz9YS5mYV8E1U+G9Kq0ncyNjZ6fgjAbCU29Q7C7h5HfOp9pGYnCDNf14/mFRSXECv8Hf5jj7A63F3ro1O7HujasTdsbewldWFvbwdTU1NJsFKAjIhVuru71z4BCosLBMQfDd+CmKQoKWPXGoaXfXJKgvB349YlbNq+BkMGjcULXfrCycEVhoaqhUI7OzuluhxtB+Po6CgQtNZYUHFJESKfXMSVe6eIzVwD52s6MdvasvNbHD+1j1ZET/Tu+QrquTdQOgxLS0t06dIZO3bsVPpe08KePXsIVVSTXNMWNYQPu3sU28+uwG0iQm0gXzZc1uUkJD3Brwe3YPrcd3D+4kmS9ZUftNp36CCrptOvtbU1unfvLrRRowQoLi3AnaQ/EJ9xA03qt4eTjbtOH6LPykyIzKwMLF45Hd//tELY1OXbD7sQhvnz5skXaf3Ms9/P30+oX2MEyClMxR9RS3Dh4Uacu/8dLM2t0N7/Ja0/oroqGpO4GhzYCsbGJuVd3I68jWXLlpP2M7O8TNsHX19fjH17LExMnrVf7QRgKSQt5yFORC0XZn5JaSGyChJxOWYr2vj0hIudp7bfovd6drYO+GTSInTp0IvODUbC4e7KlSuYOHES0tLSdOqPN/jmzZtjxVdfgjd0Wap2AjxJv4oTd5YiNeeurE/h92HqOWTmx+LNbp/QSVYzmVzUkJ4yVpY2ePetj9C+dbfyFsPDw7Fs6XK1yjfZTC6vpOTBxsYGo0a9hRkzp4P5v3yqVimokA5Fjpbe9AEl8n0KzwXFWbiVcAA9G39MrKgPzt7aR2tF+uVGpQZ1KDA1NcPk9z8j5D/bGHk/YLbzn08+VYt8vvddvWYVDh48iD+OnxBWiUxTyiuIkd2xU0eMGTMaDg4OSkdYLQRgKeLC5TPYd2gbxrw5Cf2C5+HMvdVIzmI9egWSY59exqPUMLT17YXrj/5CRk6K0kFWZ6G9nRPeHjmlHPnc16WLl4jnL1OLfBcXF2FG8+3W2LFjMXr0aKSmphER+FK+DA72DnB2cRZYmbrxVwsLCo+4hG82LsatqGtYumoG8rJK0c33Q1iaOonGUlpWjLP318LKwhI9gweL3tVEhvVD40Z9jK7E82UpOjoaCxcuEpApK1P85dnMV4vM02WJebwLIZwv3wMDA+Hm7lYl8rmu3gmQlBKP0K2rkJH5VBhbSmoips97F4lP0jCw6QI4W/lSeYWZRlFJHiLif0cbvxB4uzYR6tTEP/b2Tvjog3nChst6Hp61ly5dwuRJUwQTE1Vj8PDwwPz588C/6sxNVNVXLNcrAbKzSY7++lM8jIkW9ZP2NAUrv5uL9LQcdPP7kPaFhqL391POkgIuES+1HAEr8woJQQSkx4yJiSneHjEFHUkfJEsRNyOwfNmXJP8XyIoq/bKNz+w5sxEYFFjpnbYFeiNASUkxtu/dgPsPletzHsc9xLQ5Y5CRWoheAdNhY8aHsGcrIb8oAxcehcLTyReB9dto+y2S6llaWuPjf89H9059hHsDnvk3b9zE1KkfITk5WWUbrq6uWLnqa2IvAcLM532OhQxdk94IcCsqHGfOHVE7nty8HCxbPRMJccnoHTgTLtb+5fDxGddxP+UMQoKHwtLMprxcnw+s+Rw/5hN0bNujvFmW8xcsWKh2w+WZP2PGdHh6PjuzMNFOnT2MTdtWC+rv8sa0eNALAXj2r/1hIR3l06scQuyTB5i7dBKK8ozwgv9UmBpblteJiN9PJ9BSvNJxApVV7BPlADo88C3Z+2M/pZlfcfq+d+8eZs+ao3bm86Hpx9CNaN6i+T8zvwzHT/+ONT8swKHjuxB5J1yHUelhE2a5d/ueHwSFltSRsM5l5vzxiH+ShFeafw1nYSUYICs/AfdSTiOoXhu9siIHEjWnTPgcnduHlCPx0qXLmPbxNLVWbSxizp33OWxtbYVP45l/+q9D+HnHOvD1J3/7l2vnICUtUeqnV4LTeQU8jnuAUzQoTVNichy+WvcZ8nOKBRHV1tydTgildDg7iJzCZHQJGEirw1zTZivBs3j49siphPwKUfPu3btYsngJMuleVlXimb9g4Xw0bdpUAGHks9qaFXUyCY9f8PP+Izu0tpbQmQDnwk4JFxyqPkRdOd9UffifYXianIs+QZ/BzsITRSX5+PPeGni5+CNAxw2Zef60DxeiW6fe5bqd8PDr+GDCv9XqdliGX7psKXx8fMpXzOm/DmPjlq+Rk1uZaBcunUJ84mN1n6rynU4EyC/Iw7FTe1U2LuUFb8wr1s1BWnImqSWmwcnKh5R3D/Ag9S+83HacSmUdz2xjY1OYm1rByMCQbrPofpWO/7K9w9LCCu/QzOeLFlliaYdnvkxdICuX/2V2M3PGDPj6+gjFPPNP/nkQodtWIS8/Vx60/JlXc9iVP8vzmjzoZJy7Z/9mskRYo0l/KmEtLa2w8ottsLI2xr4brKCzQ//g+bgVexm7/l5NSCshBJsI54SOjfuinV8fWClISwzD0tjufZvQO2QQOrcLEfpjJPKGywa16pDP0s4PG74v19uwqHny7CGs+m6eynHLXjg6OGHDqv20YjSb01oTIDsnE5OmvwE+ZOkredZriI8mzIObhyNO3/0abrbBaOL2MnafXwN7K1c09eqERlqclq9cvoLFixerVS+wYm3WrJlo0bLFP5/DG+5h/Ein+vQMaaroSe/NQUj3gRqhQ2sCXLh8WpDpi4uLNeqwKmBnZzcsnxsKQ7NCHImch64+E2Bv4SOorA01nF3c1yOyRJ4yZYraDZfVxeu+WSunXuAN93f8sHkFmM1KTUGNW2DRZ9+RAC1dhNZsvfwzEl7GN29dhr6Rz82npCRiyqyRSE3MxMDgRXCxaQwL4vOaIp/HePXqVbz//gS1yOcN94vFi1CvXj1hw2Vt7em/jhDPX60R8nns8YmxePCQNb7Sk1bqaJ4V9x4+s+6V3pV0yEwS7cIjLsK74ZtKZxPzdLbVvHb1mmBlzMaurBxr07Yt+WU1ECSeqKgoLF2yVK2cz/r6OazbIe0lJ76POHnmgIB8ZrGapuzsTMQ8vg8f7wDJVbUiQG5uNlmfiRVuknuUABjk3xwDXxpWCfmsKIuLi8PKlasE/Q0TQjExUge9Mgjbtm5Tu+Eyz2eVsky9wCvmzLmjWLfhC7LS0I6tcr1HseKbP8XxKea1IsCde7dUimSKHWiab+DZCP+ZvJgkHvHQUlNT8f36H3D8+HG1hx5eGVt+3qK2WxY1Z82eKbAdGSDrsTZtX6018mXtXLt5AaMxUZat8lf8lVWCPwO4HvHMtFoiuGQwtkR48/X3wJfj8iknJwfvj5+Ap0+fqkW+fB1Vz1ZWVgjd9KPoYvzknwdIt7NQUC+oqie1PDEpTiqoAKfVJhxx+6pGnUgFbuTljyYBLUXgjPSZM2YJJ1dlLEcEXEWGVcqsXpC3SuCZzxsu63b0kfhgmfo0SXJTGhOAzfmexMdI7kATQL4Ut7N1FFU5dvQYIiMjRWXaZHjmM/KbNWtWXv2P0/uxftMykW6n/KUOD3+TdZ3UpDEB+IpRmZWD1A5VwfH9bEj3AaLXubm52LJlq15m54iRI0i94PuPqPmsm7PnjyI7p7JuRzQILTLXb16SXEtjAqSl6+/kKz9Kr/o+gum4fNmRI4Qg2lT1kfb9tq9SMy+FvFqpTB8FmqinNSZAVnbVly7afIRfo6BK1ZQhrRKQxIKEBLprIH2QfPJu2FjQ3bD+Rp9/+SqUdvJ9y541loLUXVrLGtXml/VA8omDX7Anuj7TtWvXBDYka9PJwYXslj6UZfX2a2lhLbktjQnApngODs6SO5AK6OpcTwTKjszqNJciYIkZNpyST2wd0aVriHARJF+u67MRqcqlJo0JwIarndr3kNq+ZDhDA9blVyTW9+vD7qaiRcD0H4tkWRmrm1fs+7csq7dfGwsHzHhtg6T2NCZAUlYUrj/ZI6lxTYAaOnZEY7eKa0PWUDIR9JkaNWokai6fvC91PVuIGvwnoziZlMHIyjQmAFuyPcm4Jquvv18KaiRPAA7xwpYIZ06f0UsfHLunXft2orbSc1TbAYkANcyYGleOC6SqCY2nmJnJMwsBVQ1qW56ac19wvJavP3jwa/JZnZ5btWoF9vOST9Hx1TCRqANzU+mbsMYEsDIVn1TlP0iXZ7aOi0u/LmoiODgYbdrobinHggPb58unktJiXLx7TL5Ib8/1HHwkt6UxASxM7GFiJJ5JknurAvAeWcZx+AFZ4k142LCh5XY5snJNf7t07QLvRt6iaux1n5OfKSrTV6ZJfTGrU9euxgTgA4uztZ+6NrV6Z2ZkDT+XFyrdAfAd7fDhw7VqkyuxAm78+PEi9sMbb0TsBeQX5mjdrqqKRmQ44OPeVNXrSuUaE4Bb8LCV3kGlHhUKTI2s4O/aC6+0XAkrk/q4l3hDBMGb59BhQ/De+HFgyUhqYgmqSZMgrP/+OyKCi6haem4SLkYfE27ARC/0kGFLDSND6bKNdEi5wXnYNYNBrIFOH8ArqYEDmSC69SVzdV9CyHFcuX8KaRSi4LWOH6CFd7fyHpkVDR48WDCU2rZ1O9h3S11iQg2jSIW9eoVUIlpuQRb5J3+FvEL96JgUx+HhIBZ1Fd8r5rUigI2ZK9nkuCC7QLreu6JjAxgbmqGD91j4OHdHflEufjwxHzHJFe5Ley+sg4O1G7ycG5dXE8TIdu3Qlu59o+9EY8PGjZWuJfmm6/Uhg9GvXz+w+lkxFZcW4cCVH6kv5Sb0ivCa5tkaonG91hpV04oAxkZmgpOFpgRgxDcmdhPk3o9UzEY4dm0rzt05SGFnxE4RRcVFhKRINHDyE5Rk8l/Eq6FxQGOy8/mCLtyLBPNwts7gcwMH02DnOFUpOy+dIrDcV/Va53ITkv8drMXsrqpGtdoDjAxMBItmTexfXK0DMaDpIrTxGonbj6/j26MzcSbyt0rI5wF3CuhPnpN9Bavrs+eVi4pMCDMzU8ETkS3aLCwsVCKfTQrXblgEM5LehnSeTHBazbuqcAlWQTR01sx7RisCMP/2tG9JqoIKb3Jlo2MC2ZnXQ6sGw9ErcDqyc/MF/vtr2HrBI5J1MfLJ2MgUXYNeRt9Wo7D/8C/Y/ftPWP39Amz+ZR1FpVVulylfX/E5vygTj9OvoNQwH67OHvi/LybCuNgMk/p/BWdbD0VwnfMNXQM1di7RigA8UgdLL5GHi+LomUhB7v0REvgpAlz7EbvZjtCTC3Ez5m+VN2ps8xnSbCj2HtiMXb+FkuFXkRCz4fip3wSdzaO0C0jIjKBnMeEU+84reoprj3eSg/gynLyzHJFk8v6vvsNgYW6Jld/Oha2Zo7ASbCztFatqnedV1bPp6xrX19o0kXtKyo7CoYjPRAhhxLNzdqdG48jcvAGi48Ox5/xatYceFts6BfRDnxZv4TeKWvLzjm9EH9K/9xCMGfmBgMyEjJtkpmgr9OFOtqP2lp5kNWdMUk0GWFGYmBUp+BeU0IYrS3x47B04C8lxWfh8ySTy4XXEwtnrUUwrY/2x2eC9Qdfk694M7744T+NmdCIA25IdjVyIuIxnYiHb9zd2fZGkm2602cXgwp0jxO8vks2/eme2bkGD0Kv5MBw8sgs794WCDb9kiUMIzJ72JZw8zKmv+eCIK9qkBg5t0a3RFHKw+JJM6veheXAbTJ0wF1nFqdhxbqUQk06bdrkOb76jesyAn7vMsFd6S1qzoGddsAbzRTp4mMLbqRP6NpmLJu4DcOrmPmwidnODvN+rQn7HgAF4qdVI/Lp/CzaT64888rkPbzJV8arvi6jEo1ojn9thr/z7aacx5JW3KVeGGxGXMWvBBLjaeOGt7tMFj0mG0yY1dAlEfacKh0NN2tCRAEA922aCHX8n7wmIjruJr/ZPxJ+39iqVbuQHZkwbeFea+f9q+zZ+pw2XfQ2U3YC1a90VJYZkCkkOG7qlMkQmHoSljREmvjcbBoYGFEcuBvOXTYVBsQkm9F1KG7P4Vk5KfyyNcagFcxPt9GM6E8DU2Ioknfr4+cwS7P57DZIznki65OhAG26v5kNps/2RxM3vKwVI4o+3MLdALzJViUw4JFLSSUGMMpjM/HhEJ58QPCVbt+gsgLBDxwpytHOycsdQElE1jdzi79ESzbyetaWsz6rKdCYAd8Dio5t9wyrZzTNYE3QOHIg+LUfi0NHd2LprPYmYym3wX3xhEIxMSwXJp6oPkfKepafI+EMoLM3ESz1fhTkRmMtuR9/AzHnjYWFohw/6LSVnEGmHKTsrZwztMllwj5LSvzIYvRCAG+5O8runo4+yPkRlPPNfbD4cB4jtsKipKllb2wkW0snZ0eS+Gq8KTOPywpIcwfumaXBLihPxYnn9BxRegV2RLI1sMazrVDrRupa/U/bAfsddA/9FAUh0u6DSGwFsLZ0EGZ7FUGWJy/mEy4esA4d3CiEjc+SkHcU6zYJak/WFE2LSwmjzVS9FKdatKs9EfZR+Du+SEx9LWZxYRX2dorxMmzMaLlb1MabnbLrEV+0m60l6qs6BA3Q2HFCOraq+QMX7QM82JNGMqGRazh6MzHb6tR6NA+RTu4dOuOoSH2ratupCrCIDD9POqwPV6h2zneik4zAwLsHYEZMpfltFQNYEsm5eQoH7eGN+p9dcpRtzA2d/jHphOp0/VOudpA5MrwTgWd4tcBDaUQQseT1RBwrO17vFGyRq/owtO74FWxCrS1YUUKNtq25kffErBenW7+yX9ctx7G7G/UZxI16AolXeDXK/WkJRX1ytG2BYlykiHROv9IFt3yFtsG6sRzYOvRKAG+XZHtJ0CPzrtaKrSzJ8Ij7Zr9UYHD66B79QNJXCoqoPUj279qfNtwiPqmH2yz6c3ZHYKz+/LAnDXn1HpKBjdnT3wW06NU+EaZk1Puy3QgixaWFmjQGtx5CaXLoLkqw/Vb86noRVNQs63mcgKu4ymjTogMPH9mAnbbiKhyxltZknr1u+Awl5l4QQl/J3xMrgdS3ztGuBrr6TsG3HRuw7vE3UHDsGBge1wqyPv0Ry9mMUFufD141vA6V7QYoaVJLR+wqQ9WFtYYc2viG4EHZaCCsvBflctz0dvKytbcj2KFwvsr9sPKp+E7Jukf7oFl57eRSFLfYSgXFUdmZHsxdOgIedNyGffQv0h3zurNoIIPuSFhQ2vg/FZJYPhCp7p/jLcjmLhnzRw9F1ayKx0u7a41/oPsGMxN6hlVQSbDb/5uD3RCxKn+OqdgJwqJhxo6Zh+OBxos1M2Ud4UFh5f99ggTezBV5NpfS8xwiLCRW83B3JYlqW6pPD4PQpS8GnZlY5VEeqdgLwoPk+99UBI4XIJT5kk6/K6Zr1PkZmxSQinqiOb1XbZiydN54W3MOMqUuFyxt23lg0+1uV0dTVNqbBy2rbhFWNIYkii+w98DNFm9pDIBV+vmam5vh2xW7EZJ/CVWIJtZFYZd3D/yMkJMbBhW7QTOXOB9U1nhpZAfKDd3Wph/dGf4LPP12Jxn5NhdXB77t37gNLazNh85WHr5lnA1IpOFJMivqCEYCnR8MaQT5/W42vAHmEZmSm4cr18/g77CTeeH0czO0LKcj3UlLq1Rz/N6ewOH4uPeDj1IVu17z0crqV/8aqnmuVAIqDY7+D8Me7UEIRdeXZkyKcrnkDUiGYkRo9wLUPgjz6w9xYusWdrn0r1n+uCMCIf0rRsmLTr9F/4nOXIq7fJ8Mt+h9L5fYKxQ+QmmebJL4ydbJqBL5LdrdrCku6K9a3XC91PDK454oAskHx7C8uKUBhSS6e5sWCL+Lj6FyQkf+EyvMrwNQ8sS7KwtSBrhwD6NauOYW9CSA+70DqEXPhEl9N1Rp99ZwSQBkOyogg+cgrSqP/xO0p/aZTPkdQ1vEKMSLLCBMjC2ItNmArCCszJ+GZLSae5/RfRIDnGY3aj63GxVDth/q/WbOOALVM1zoC1BGgljFQy93XrYA6AtQyBmq5+7oVUEeAWsZALXf//zEaZgz/qrJkAAAAAElFTkSuQmCC;" vertex="1" parent="1">
          <mxGeometry x="497.64" y="280" width="96" height="96" as="geometry" />
        </mxCell>
        <mxCell id="KrZMVGwemaGHYM_YUxDV-2" value="Shared Interfaces&lt;div style=&quot;&quot;&gt;&lt;span style=&quot;font-weight: normal;&quot;&gt;&lt;i style=&quot;&quot;&gt;&lt;font style=&quot;font-size: 18px;&quot;&gt;Flow &amp;amp; Tool Chain&lt;/font&gt;&lt;/i&gt;&lt;/span&gt;&lt;/div&gt;" style="text;html=1;align=center;verticalAlign=middle;whiteSpace=wrap;rounded=0;fontSize=24;fontStyle=1" vertex="1" parent="1">
          <mxGeometry x="133.05" width="210" height="60" as="geometry" />
        </mxCell>
        <mxCell id="KrZMVGwemaGHYM_YUxDV-7" style="edgeStyle=orthogonalEdgeStyle;rounded=0;orthogonalLoop=1;jettySize=auto;html=1;exitX=0.5;exitY=1;exitDx=0;exitDy=0;entryX=0.5;entryY=0;entryDx=0;entryDy=0;" edge="1" parent="1" source="KrZMVGwemaGHYM_YUxDV-3" target="KrZMVGwemaGHYM_YUxDV-12">
          <mxGeometry relative="1" as="geometry">
            <mxPoint x="291.5" y="280" as="targetPoint" />
          </mxGeometry>
        </mxCell>
        <mxCell id="KrZMVGwemaGHYM_YUxDV-9" style="edgeStyle=orthogonalEdgeStyle;rounded=0;orthogonalLoop=1;jettySize=auto;html=1;exitX=0.5;exitY=1;exitDx=0;exitDy=0;" edge="1" parent="1" source="KrZMVGwemaGHYM_YUxDV-3" target="KrZMVGwemaGHYM_YUxDV-8">
          <mxGeometry relative="1" as="geometry" />
        </mxCell>
        <mxCell id="KrZMVGwemaGHYM_YUxDV-3" value="" style="shape=image;verticalLabelPosition=bottom;labelBackgroundColor=default;verticalAlign=top;aspect=fixed;imageAspect=0;image=data:image/png,iVBORw0KGgoAAAANSUhEUgAAAVIAAAB6CAYAAADtXdsAAAAMP2lDQ1BJQ0MgUHJvZmlsZQAASImVVwdYU8kWnluSkEBoAQSkhN4EkRpASggt9I4gKiEJEEqMgaBiRxcVXLtYwIauiihYAbGgiJ1FsWFfLCgo62LBrrxJAV33le/N9829//3nzH/OnDu3HADUTnJEolxUHYA8YYE4NtifPi45hU7qAQigATIAwIvDzRcxo6PDIQZD57+3dzehNWzX7KVa/xz/r02Dx8/nAoBEQ5zOy+fmQXwIALySKxIXAECU8mZTC0RSDDvQEsMAIV4kxZlyXCnF6XK8T2YTH8uCuBUAJRUOR5wJgOoVyNMLuZlQQ7UfYkchTyAEQI0OsU9e3mQexGkQW0MbEcRSfUb6DzqZf9NMH9bkcDKHsXwtsqYUIMgX5XKm/5/p+N8tL1cy5MMSdpUscUisdM0wb7dyJodJsQrEfcL0yCiINSH+IODJ7CFGKVmSkAS5PWrAzWfBnAEdiB15nIAwiA0gDhLmRoYr+PQMQRAbYrhD0GmCAnY8xLoQL+LnB8YpbLaIJ8cqfKH1GWIWU8Gf54hlfqW+HkhyEpgK/ddZfLZCH1MtyopPgpgCsXmhIDESYlWIHfJz4sIUNmOLsliRQzZiSaw0fnOIY/nCYH+5PlaYIQ6KVdiX5uUPrRfbkiVgRyrwgYKs+BB5frBWLkcWP1wLdoUvZCYM6fDzx4UPrYXHDwiUrx3r4QsT4hQ6H0QF/rHyuThFlButsMdN+bnBUt4UYpf8wjjFXDyxAG5IuT6eISqIjpfHiRdlc0Kj5fHgy0E4YIEAQAcS2NPBZJANBO19DX3wSj4SBDhADDIBH9grmKEZSbIRITzGgSLwJ0R8kD88z182ygeFkP86zMqP9iBDNloom5EDnkKcB8JALryWyGYJh70lgieQEfzDOwd2Low3F3bp+L/nh9jvDBMy4QpGMuSRrjZkSQwkBhBDiEFEG1wf98G98HB49IPdCWfgHkPr+G5PeEroIDwi3CB0EW5PEhSLf4oyAnRB/SBFLtJ/zAVuCTVdcX/cG6pDZVwH1wf2uAv0w8R9oWdXyLIUcUuzQv9J+28r+OFuKOzIjmSUPILsR7b+eaaqrarrsIo01z/mRx5r+nC+WcMjP/tn/ZB9HjyH/WyJLcIOYuewU9gF7BjWAOhYM9aItWHHpXh4dz2R7a4hb7GyeHKgjuAf/oburDST+Y41jr2OX+RjBfxp0nc0YE0WTRcLMrMK6Ez4ReDT2UKuwyi6k6OTCwDS74v89fUmRvbdQHTavnPz/wDAu3lwcPDody60GYD97vDxP/Kds2bAT4cyAOePcCXiQjmHSw8E+JZQg0+aHjACZsAarscJuAEv4AcCQSiIAvEgGUyE0WfBfS4GU8FMMA+UgDKwHKwBG8BmsA3sAnvBAdAAjoFT4Cy4BK6AG+Au3D3d4AXoB+/AZwRBSAgVoSF6iDFigdghTggD8UECkXAkFklG0pBMRIhIkJnIfKQMWYlsQLYi1ch+5AhyCrmAdCC3kYdIL/Ia+YRiqAqqhRqiluholIEy0TA0Hp2AZqJT0CJ0AboUXYdWoXvQevQUegm9gXahL9ABDGDKmA5mgtljDIyFRWEpWAYmxmZjpVg5VoXVYk3wPl/DurA+7CNOxGk4HbeHOzgET8C5+BR8Nr4E34DvwuvxVvwa/hDvx78RqAQDgh3Bk8AmjCNkEqYSSgjlhB2Ew4Qz8FnqJrwjEok6RCuiO3wWk4nZxBnEJcSNxDriSWIH8TFxgEQi6ZHsSN6kKBKHVEAqIa0n7SE1k66SukkflJSVjJWclIKUUpSESsVK5Uq7lU4oXVV6pvSZrE62IHuSo8g88nTyMvJ2chP5Mrmb/JmiQbGieFPiKdmUeZR1lFrKGco9yhtlZWVTZQ/lGGWB8lzldcr7lM8rP1T+qKKpYqvCUklVkagsVdmpclLltsobKpVqSfWjplALqEup1dTT1AfUD6o0VQdVtipPdY5qhWq96lXVl2pkNQs1ptpEtSK1crWDapfV+tTJ6pbqLHWO+mz1CvUj6p3qAxo0jTEaURp5Gks0dmtc0OjRJGlaagZq8jQXaG7TPK35mIbRzGgsGpc2n7addobWrUXUstJia2VrlWnt1WrX6tfW1HbRTtSepl2hfVy7SwfTsdRh6+TqLNM5oHNT59MIwxHMEfwRi0fUjrg64r3uSF0/Xb5uqW6d7g3dT3p0vUC9HL0Veg169/VxfVv9GP2p+pv0z+j3jdQa6TWSO7J05IGRdwxQA1uDWIMZBtsM2gwGDI0Mgw1FhusNTxv2GekY+RllG602OmHUa0wz9jEWGK82bjZ+TtemM+m59HX0Vnq/iYFJiInEZKtJu8lnUyvTBNNi0zrT+2YUM4ZZhtlqsxazfnNj8wjzmeY15ncsyBYMiyyLtRbnLN5bWlkmWS60bLDssdK1YlsVWdVY3bOmWvtaT7Gusr5uQ7Rh2OTYbLS5Yovautpm2VbYXrZD7dzsBHYb7TpGEUZ5jBKOqhrVaa9iz7QvtK+xf+ig4xDuUOzQ4PBytPnolNErRp8b/c3R1THXcbvj3TGaY0LHFI9pGvPaydaJ61ThdN2Z6hzkPMe50fmVi50L32WTyy1XmmuE60LXFtevbu5uYrdat153c/c090r3ToYWI5qxhHHeg+Dh7zHH45jHR083zwLPA55/edl75Xjt9uoZazWWP3b72Mfept4c763eXT50nzSfLT5dvia+HN8q30d+Zn48vx1+z5g2zGzmHuZLf0d/sf9h//csT9Ys1skALCA4oDSgPVAzMCFwQ+CDINOgzKCaoP5g1+AZwSdDCCFhIStCOtmGbC67mt0f6h46K7Q1TCUsLmxD2KNw23BxeFMEGhEasSriXqRFpDCyIQpEsaNWRd2PtoqeEn00hhgTHVMR8zR2TOzM2HNxtLhJcbvj3sX7xy+Lv5tgnSBJaElUS0xNrE58nxSQtDKpa9zocbPGXUrWTxYkN6aQUhJTdqQMjA8cv2Z8d6praknqzQlWE6ZNuDBRf2LuxOOT1CZxJh1MI6Qlpe1O+8KJ4lRxBtLZ6ZXp/VwWdy33Bc+Pt5rXy/fmr+Q/y/DOWJnRk+mduSqzN8s3qzyrT8ASbBC8yg7J3pz9PicqZ2fOYG5Sbl2eUl5a3hGhpjBH2DrZaPK0yR0iO1GJqGuK55Q1U/rFYeId+Uj+hPzGAi34I98msZb8InlY6FNYUfhhauLUg9M0pgmntU23nb54+rOioKLfZuAzuDNaZprMnDfz4SzmrK2zkdnps1vmmM1ZMKd7bvDcXfMo83Lm/V7sWLyy+O38pPlNCwwXzF3w+JfgX2pKVEvEJZ0LvRZuXoQvEixqX+y8eP3ib6W80otljmXlZV+WcJdc/HXMr+t+HVyasbR9mduyTcuJy4XLb67wXbFrpcbKopWPV0Wsql9NX126+u2aSWsulLuUb15LWStZ27UufF3jevP1y9d/2ZC14UaFf0VdpUHl4sr3G3kbr27y21S72XBz2eZPWwRbbm0N3lpfZVlVvo24rXDb0+2J28/9xviteof+jrIdX3cKd3btit3VWu1eXb3bYPeyGrRGUtO7J3XPlb0Bextr7Wu31unUle0D+yT7nu9P23/zQNiBloOMg7WHLA5VHqYdLq1H6qfX9zdkNXQ1Jjd2HAk90tLk1XT4qMPRncdMjlUc1z6+7ATlxIITg81FzQMnRSf7TmWeetwyqeXu6XGnr7fGtLafCTtz/mzQ2dPnmOeaz3ufP3bB88KRi4yLDZfcLtW3ubYd/t3198Ptbu31l90vN17xuNLUMbbjxFXfq6euBVw7e519/dKNyBsdNxNu3upM7ey6xbvVczv39qs7hXc+3517j3Cv9L76/fIHBg+q/rD5o67Lrev4w4CHbY/iHt19zH384kn+ky/dC55Sn5Y/M35W3ePUc6w3qPfK8/HPu1+IXnzuK/lT48/Kl9YvD/3l91db/7j+7lfiV4Ovl7zRe7PzrcvbloHogQfv8t59fl/6Qe/Dro+Mj+c+JX169nnqF9KXdV9tvjZ9C/t2bzBvcFDEEXNkvwIY7GhGBgCvdwJATQaABuszynh5/SdriLxmlSHwn7C8RpQ1NwBq4f97TB/8u+kEYN92WH5BfbVUAKKpAMR7ANTZebgP1WqyulLaiLAO2BL1NT0vHfybJq85f4j75zOQqrqAn8//Aus0fGM3KyfvAAAAimVYSWZNTQAqAAAACAAEARoABQAAAAEAAAA+ARsABQAAAAEAAABGASgAAwAAAAEAAgAAh2kABAAAAAEAAABOAAAAAAAAAJAAAAABAAAAkAAAAAEAA5KGAAcAAAASAAAAeKACAAQAAAABAAABUqADAAQAAAABAAAAegAAAABBU0NJSQAAAFNjcmVlbnNob3RMQ3X7AAAACXBIWXMAABYlAAAWJQFJUiTwAAAB1mlUWHRYTUw6Y29tLmFkb2JlLnhtcAAAAAAAPHg6eG1wbWV0YSB4bWxuczp4PSJhZG9iZTpuczptZXRhLyIgeDp4bXB0az0iWE1QIENvcmUgNi4wLjAiPgogICA8cmRmOlJERiB4bWxuczpyZGY9Imh0dHA6Ly93d3cudzMub3JnLzE5OTkvMDIvMjItcmRmLXN5bnRheC1ucyMiPgogICAgICA8cmRmOkRlc2NyaXB0aW9uIHJkZjphYm91dD0iIgogICAgICAgICAgICB4bWxuczpleGlmPSJodHRwOi8vbnMuYWRvYmUuY29tL2V4aWYvMS4wLyI+CiAgICAgICAgIDxleGlmOlBpeGVsWURpbWVuc2lvbj4xMjI8L2V4aWY6UGl4ZWxZRGltZW5zaW9uPgogICAgICAgICA8ZXhpZjpQaXhlbFhEaW1lbnNpb24+MzM4PC9leGlmOlBpeGVsWERpbWVuc2lvbj4KICAgICAgICAgPGV4aWY6VXNlckNvbW1lbnQ+U2NyZWVuc2hvdDwvZXhpZjpVc2VyQ29tbWVudD4KICAgICAgPC9yZGY6RGVzY3JpcHRpb24+CiAgIDwvcmRmOlJERj4KPC94OnhtcG1ldGE+CmjRCOsAAAAcaURPVAAAAAIAAAAAAAAAPQAAACgAAAA9AAAAPQAAC7spyVf9AAALh0lEQVR4Aeydv47dRBTGN08APABCpKaKFLQRUFFCDRIdbYoom4o8AVRslCJtOiSoQ0kF0V4lEhU1CPEAwBPAfnd19s76+nxnxmP7zrU/Fztj35nz57P987F9d/fWf5fLiRYpIAWkgBQYrMAtgXSwdpooBaSAFNgqIJDqQJACUkAKVCogkFYKqOlSQApIAYFUx4AUkAJSoFIBgbRSQE2XAlJACgikOgakgBSQApUKCKSVAmq6FJACUkAg1TEgBaSAFKhUQCCtFFDTpYAUkAICqY4BKSAFpEClAgJppYCaLgWkgBQQSHUMSAEpIAUqFRBIKwXUdCkgBaSAQKpjQApIASlQqYBAWimgpksBKSAFmgDp189+3+6Jl6//ud4jP7/+e9v/97ePr7cdU+fTL389QQ4f3X3rRthf3X93u/5hZ/uNQVqRAlLgqBQ4GEgBz2+e/RGKdewgZQkCsgCroMpU0mdSoH0FZgdpLkBNuiWD1HIEUF88v2OraqWAFDgyBWYFaSlEoeUaQGrHzI+XMF1DdXqx2ZxcXGws7ev23r3Tk3unp9frJZ1vz59sh282r7YtfHRtnZ092NtW4iMaC59YkFtfHKen728/r8lzawA+JtDQbJuWtm7to7OH1lXbUWA2kNozw47/cHVNIIUYuNV/fP92qMsxD8CJev7k6V4KZw8fnJSerJ6tPePJhiF+kul7XUDt/PzpFm57HzobAHmAtTRfM8fy/uvPq3cONra0ffud/uPvh++/m/RCVBpnS+NnAemQStREWhtIkfex5mz7LGo9CJQAzrMR+U4/rwXDEICm/q1fkrfNYfkPsWd20QqkqRp5/clB+svlm+tPLt9gly72trulZ4fIxb5NgPjYbTguHvgWgo0vyX/pVakHgVwAfPb5F0XVH9M+12fXBiCKOMZaSuPwNLR4Su3ZPLQCaapGXn9ykObe0tvXglq7rQUQsfR9w6AEeICw2ciB65Kfl3oQyDn5x4SonSI5fm0sWi/+dMyQfkkcOTEMvcUXSMv33qQgza1GW4UGeyRRAtHubsm5uNTY7/prbd2DQAQSb16anz17tG3pSx/b1tfmQicnBrOfvuxCBZuzRBqYjZw4cm2ZTWsFUlMiv50UpBEwWv3az1QATXcL82Hjlvqs1INAdOJ7Jzj0iuZGzzOj+bZPWAwYA3iybwd4uZt9tDnPbnPswFZuXhhri5djTlxmY23tQUHaWiVqt9/erffYVeIb7/1Ej7fW9KHBFnzoQYCd9OyZJJvXDYs9GoiqUi9u81ECGhYHYAxbbIliSedGeaVj0RdIu4rE65OClIGitWqUVYhTxcp8YteNDe74cJhnhAcBBkQGnjlA4cVsipVA1OawnCKYRvGYD7RM13Sc9QVSUyK/nQyk0fPRlqotBrSpYcYuNlP7zj9Mxh3pQYCd8B50IuD0Re7ZYv69mGGfzevzn27zoIUx7ALB4kntW78kRi+mIRcL87/0dvUgPSREcXCx58hTVcKHPqg9CLCTfQj8xszTgwuLOce/pwXmMnCxeZ5fZi+d4+WaOz+1tZb+ZCBlgIK4LbxIYTHOVQ2yGFrRaeyTwYMAg5I3B7Gxym2M2Kf27V0kWLXNYvJyZvbSOQJpqkZe/yAgbaHSYgCbC6LYRSwOfN7CBQdxjLl4EBgKUjZvjLiHgK7Er2cfNryLhKch5qByhM2+JUcrgbRPOb5tMpC2fMvK4DUnRLFrWCz4XCCFCld/pMODAz5HtcW+doQxQxcPLDlQyvHJvpHg3U4zkAK+7HPPpsXq5RvNs/lrbFcHUvYS7BCVMosHB6RAujstGRxsFICKZUyozgGWUh9MC6tivUo3usUvjcW0X3O7KpBG0DrENwmimATSm6end5LfHLVbAzTwV5Zq/nSd53PMCq3URw5IWaXLqunSWHZqr7e3KpCyxw2HgCgOO4F0d/Kxk9tGRb+hZOP62iHVKoORVX59vkq3edWjp0kOSBEDG+fZFkhL997JyWpAyiA693PRdDcJpDs1vBN7N2LXY4DYjfJ70e2tzTx2kCIPplXfxUAgtb2f364CpOyFziGei6a7RyDdqVECUsyqqU7Na+RzCSBFrh4c+/L3xo75KMP0X0q7eJBGoDrULb0dQFF8ekZqSvG2Bqp9MDFvc4HUg5cXW2mVycZ3fXixCKR2VOy3iwdpq7f0tisEUlOi7lctd1auKlWsl/z7DwaJOcDi+ehCzvJkYOy7Xce83DleLEwji2ut7aJB2vItvR1wAqkpMR5IdxavernVqgegOcBS6iMXil0tPD8psL0xAmlXzd36YkEaAerQt/S2C6I4dWtvStW37DYd1lOYpN48sOS+sEpt9fUZFD14sTneBQG+2TzL38vXi6Uvp7VtawqkqCCx4F9y4CUQlg/uvrnts/+PtB3Y+dH6Lb2FK5CaEj7IdiPG6XmgMJB0vXhfTZoDpB4UGRC9OZZXNNfTRyA1Bffb5kBq/9eoGyrAiq8p5QD1GG7pLT+B1JSYD6QeSDwwskp2DLh44PLADsW8HPBZBFKM8XxCA+Tbt4yRa5/dJWxrCqQQFGABTL2/Uo8x7HufEZhauaVHHliieJd4a+9VeB44SsdfKev/HAIhBh4AZujCYmHgYvNyQMouDl4uLB5vzlq2NwdSE57dmmOM9/1PNs+bYz4P0UYgbQ380Kj2JPag5IHU8+dVkNF+9MDM7Hlz4KsGMJ4WsMuA6GkSzcPntjAbNiZta/JM7Syx3yxIITa7RbedkYLmGKF0jDGzaibnZPPg4c1lJ7wHXzs++lrPPwMpyxk+SuOAPfb1rMge04QBuKsHu0B0x3r7pztujeuTgZT9C42SyrAEpsdWjeKAi0DKHmMc8oD1YFQDAHaiev6gAZvX1YgBKLLD5sJPlLvFEkGZAd1ssFhKQBrFYv7QRvqkY9fWbx6k2CE5MAVwvBdVsJFWrlhvZVkaSKGrBxR28kfwYHOZT9vP0XyMywFQTgWH/Lt/bQrAwsKq0O2Ayx85wGL55ORhvtAyW+m4nLjS8WvqTwLSKeCQA1Nvx7Va1Vm8rHpvNfbo5AMYseBP2GE5f/J023o/ck5SVpWmdlPfkV+bF4HcxpVUcDanpPUuQl0bTP9SkMI2s2e+c/aRjV1bOwlII+gNrQ4ju97Oa/3NNwMpcmo1/pzqzNsn6fYx4JHaK+3nQtTs5kDHxpa0uTrAJothCEhhM7pQCaRQqX+ZBKQRGIaCFCmw56B9KbZa0aWxRjm1nEN08qV59vUPDbFS/5YDKtOc23QbH7WlkJoCpMwm4i+NMcp5SZ+PDtKcqrG2wopAne6gWl+pran6c2g2Vew1QCmpwNL4a3ymdob6T21E8EnH9vUB8iH/FoX5HVqRIj5mVyDt24NX20YFaQ4QSt7Ye2FHz2BtXsuVnMWINke31nPBCbjZvHJ/KybNFwDD8ujsYbq5uF/iMzU+BkBTe+gzAHXHYn0oQM0W81cDUtj37jIEUlN/vx0NpDkwgPua2/o0/Bx/x1CNWk45+eAiBKDm/Jqs2Z27RbV4cbHZQtV82wsnrNfC02ymLXxi6fq1Mea/+ybdPh+ztfzNJi4uWMaOwXI2P2kLSNcsnu1auzUxtT63GKSoBtNf33z5+p8b6yzhsasqBp+xfbG8xvgst8o2X4Aq/qALFvSxtAzYbYD6IQUWqkAxSEueT6aaTQU2L55jqkZNp1KY2jy0U+mb+lBfCkiBfgUmB+nUt6N9VemxQ6Uvp/7dt9t67DnvMlFPChyfApOBFCc2lsf3b0+uShc8rVSjiMtuu/E4BI9BXjy/k6UHqlMs0V/CMmMCqSmhVgrMr8DoIB3rZVKpFPZdzFqgGMBqnjd2wZ7mMiQ+xBQBdYjdNC71pYAUGK7A6CCd+lbeSxXwKqn4zI7NS1+g4bOhVS2DKOyWXmgAUcTG/o4A7AqkUEGLFDiMAv8DAAD//zQPn5IAAAzrSURBVO2dvc4lRxGGj68AcwEIQUyEtGhXhogQYiORkW5geYnwFUDEWg6ckiFBbIeOQNpPIBERGyEuAHEF8L3Gpa9crre6+mfOmTlTHez8ddfP293P9Mw539m3/vtYLh3lG9/7LF37R8++efnVy+9cfvi43WP581//ffnJL/7mhoa4P3j5XfcaO/nTR1t/erTJSo/NX3/8+eU3H/+Dmfra+R7bX2tcJ0qBUmBKgbe2BKlEttdJHoEUsWfjbtnpsdUL0L1rLPHVthS4ZwWuAlIIiNXpJ7/7/u60bK2w//P3H4cxZ8CXBXLGFgsm64O1r/OlQCkwrkA3SLUrrMRQ8AgaPdJKmz3CtAWvCFCttsj708ebR+bVRsaW6IiYUHpfPUj7W23fPDxcXjx/fiv35bcU2EyBKZDqqADVDFAjMGl719xvrUq9mDPgy0IUubZiQB0vDpzfY/nt6w8vDw9/uQCerACqr169t3u4Si42jyPEbmOu420UWAZSCS8DhNbjsti61jYDRR1zpn4PRFe+Y72WZp4fQPPNm4fL6w8/8i6H5169/97ll6/eD+vc6uK7P/u5e0P44x9+v/ubwK00O5vf5SDNQEZDaS+Ct24AeC3xzrO3U5+k90AU+bc+7d/jKxHbb1i1jQBU29nrCrVAqnup9j0FloMUTlpQ6gWNF/jqc5kbQMbnSG4tkI7YzMS6qs4KiOpY9rbSK5Dq3ql9T4FNQNqC0h7f9WUerz0B9blR4EU3nr2vRldDVPT81z8/l92bbwukN++C3QewCUhbUNojSNFTrRtA1JujED2qVtAC70QBmajg3SfKixdf/bT+9euP3PeOYmtP70wLpNIrtWUKbAJSOItWWfcG0lGIQqcjg5QBBnllQNgC8V5WpSzPvb2CgO5VbqPATUC658fV3lXpDETR5S2Qztrfclh969v+n9DiQyNAJlMimGZgnPExW6dAOqvg/bffDKTRByj3AtIVeRwVpBEAe1dq7D3rLEgRoy6jfwzQC1LrFzGM+tbxe/va11Y+Wn5xvce3jrm3rRcLO3ctP/BfIDW90Lsinf0qVwuks/ZNessOMUgBGK/0PpIDpPjyvi3Pn/+g67uliKn17hU+AGiU7PdWsyBlNwT4AmhWfIE/kyN89WqHGL0nDNjSTxeR/5au0s+w4ZWZGyds4jvMrT8Cgd8ZP17cOFcgVcr0QhRNZ9/3HhWkETR6Qaq6YHiXwS4ymJ1QzLasvCMtrP8ZoLI4rA99nM0RbVogzfq3PgE5tM0U2zbTpkd/bW/El26v9wukX6oxAlERcmbVeFSQRpNj5QAVjdkWcWRWoaw9zgsQWR0GEFmpZSGh7bd86rqR1roe28/2RwRSpgHzKfmNxG5XwcwHzvfGZW1ltbHt7HGB9FGR6H2uFcw7nlmVHhWk0MGbeKLPqgEq9rztyCT17OCcTHzvOpusaDMK8SwsRldbNo+MP68/0Q6vCXr/ak38Me1sfPY46g+pu0qbFWP19CCdhah06ihMjwzS1kDGZFrxXlA0ttvWJIV/FICg9e5MJr71gWPmB20Ac1vYeVsvM4E9uGk78IX8UFo5tvx5vrxcvHM6Jtn36nnnpL7eoh5gykpm7EEXfH8Z705RoptBBtwsFpw/NUhXQVQEHnnEPzJIkbc3+UQPvcXEAFRRsD9bookkvqwfQC/6URU2mRhIdQ6AFCat9hnFiLYtsEXto7ZRO5Yj4mn15UiOsIvixRvFiTYjsbK+hz0UliPawd9oOS1IsxDF9zjxW6uZ//ZjZFV6dJC2JoM3MAU2M6vVmQnBwMgmE6svuUUTvvX6IfpgjuXoQUlikS2LmeWIdswfrkU+mS+0Q4naRuOH6Rppytr8P5L4r/GivpD2bHtKkPZAVH6UOfthVO+q9OggxcCKBjYbePo8JncPVKPJl5kMUbxe+wgUrYmLPKN4WXvWJoKS1hT7LG4vR9RnIM34nGnL4sz4RV/Ko7t9IkBOtvT2vW3Pjk8H0hGIingZmPauSu8BpKIPmxByvbXNTBzYYH6y7SMbHtiYP9hhUMI1XRhoPH9o11tf+5J9Fnevz4yuzNdM22j1LDmObFdoa/2eCqQzEBXhVsP0nkAKjXDHH/0kG+0zq9MtJgJ8s8Ig0TPRe2JetWpidhjcemK0WjGNmC/dnq2+e/TV9qJ95gtt2A0msifXTgPSFRAV0TIwzT7i3xtIRSNsBaqyr6+19tlKj8EB9liblq/W9RlIiG1mw5u8LEeART6hF7vRln2Kz+DGQJrRtSc/GzOD2wxIoSGKPPYzLXQsXl/o69H+KUCahWjPY3nLZvbHRu4ZpHbgCVhlkNvr+phNIgYZtM1MeO0ju88gwYDk2WU2vMnLwOLZHTnHtD0ySGVsQY/M+PJ08/rCq+edu3uQtoAnovRAVNow21mIws6ZQCq6YSsDPxr0HqgYZBgctM/RfQZBLz7mg9nwJi/LkdnuPc+0OhpIM2OoRxuvL7LtNwNp9Pi74leTMglGMej2IxCV9hamvbm1Ysy+IpB4jrZtQcOuMll9BocVejAIFkif1GUaZeA00qeAKHz2FowTdvPOxMr83QSkCGZrQLQAJYL0gk/a6a2Gac9qFDZacW6tk87jVvtsIiEeC1I2ge4JpFGOK/oI71m9X7460oqUgVvrgzEhRf8xCMuzQCpqfbltPS5L9RUQFVujWw1hz8ZeQcru6nrwevl45yKQ2sHNIAO7Frqer5FzbNJutSJlOW55s4AuDDAZXZlGtv88/Vn/s3xZfdhGGw1Nzx/LMxOrZw/nbrYinXmcZsnI+RacpF7v6lHardxGse4B9F6ubKKjbmbSWZuRPTu4e+paP6PHDBIF0idFmUa2/55aPO0xMDKQMhBm+4O1z8T6FPVX9zYDaWtVeGuQ7gGiLY32ClIMITYYs4NZD8NeOLJJyyae9iX7sOEVTCZbmL+eXJkNNnmZviM3KpsPO57x2ZufjqEHpNFYyWgTtWd9oWNl+5uBFA6j/wAP17d6bG353QNEkX+0GsX1vcSJWGxhk64HLmKTTUJc9yZHb33xI1s2cXv99eTKYmaTl9Xv8QloyPco5X9xxc2GFdanXh9YGyxelp9uz/rDuzEyEHp1tQ/ZZ75wPROr2LHbTUHaAsVWq9IIpHuBU2s1io7aS6x20OA4GpAY1Nm/nW/ZweC2hU0m1MtMKOaTQYpBgtW38eKY2WCTN8qRtbF+GRhZ3Kz+PYGU5QjtsrpanXG8KUhbn0gjgC1g6vndwg/iHymAKH5NCr8qxcqeH+sl5mhQog4mrPdDErJSin4fEu2jgc3AJH69T6VxbaQda8OABD+2MBtb5Ah9oz/TZWBk/cnq6xxH8pP27Mbm3RRnbjAsRokj6gupw7abghROo9WhBAXIARzyS0tyfmaL1TDKO8/e/mL7wUv/vw7+4uIV//Eg77nf82pU4mUTQK7PbL1JZO2xiS/1ADopmT8RZMBgE3BrkEbQQF6Snzy241wEUGnDbjJMT6YL7ElhGmXgxMYRGwPMF2KxfSI37Uz/Z2KVfO12c5BmwYHAAFOAD1spK+EqNq+1xcoTRVaemd80ldi2en8s9ldto0E96oNNIGuvBRpbPzqOJhHL0U7ayD6zEfmFPQaZyBe71tL1KCCd7XfoABu2tPrC1tfHm4MUzjKrUh2U3j8KUHTM2G+9H7b19fGeXkPouNg+gwSr3zrfM6BXgKYFRJZfq53Ok9nI5LoixxZEEetRQIpYmZ64FhX0GVudZvqC2b4KSHtWpTbQs4H0CO9GbR/heHaVABs9YEJ9KaO+AZfMh2Js0vbEy2xkJ+8MTDMQhZZHAini7dVE+mu2L+DblquAFE5HYXomkB4VonpQAWqt93S6PiY5+5NFXS+zj4mF0voQKwtQ8ckmnkxMqRdtmY0sSMV2NkfU783zaCBFjhmYWh1W9QX8S7kaSOEw85UfCUy2ZwHp0R7npX+irbyHku8y6rrep/n6+uw+fFu/8qEMJtY9lDPkmO0nq8W1+/qqIIUoma/+aPHuHaQAKMpevlWgta/9UqAUyClwdZDqsDJQvUeQ6m8nHPlbCbova78UOLMCNwWpFt5+VUiuHXWlhnzka0+SCwBa4BQ1alsK3I8CuwHp/UhamZQCpcDZFCiQnq3HK99SoBRYrkCBdLmkZbAUKAXOpkCB9Gw9XvmWAqXAcgUKpMslLYOlQClwNgUKpGfr8cq3FCgFlitQIF0uaRksBUqBsylQID1bj1e+pUApsFyBAulySctgKVAKnE2BAunZerzyLQVKgeUKFEiXS1oGS4FS4GwKFEjP1uOVbylQCixXoEC6XNIyWAqUAmdToEB6th6vfEuBUmC5AgXS5ZKWwVKgFDibAgXSs/V45VsKlALLFSiQLpe0DJYCpcDZFCiQnq3HK99SoBRYrsD/AKIdAr//ttU1AAAAAElFTkSuQmCC;" vertex="1" parent="1">
          <mxGeometry x="130" y="70" width="216.1" height="78" as="geometry" />
        </mxCell>
        <mxCell id="KrZMVGwemaGHYM_YUxDV-5" value="&lt;font style=&quot;font-size: 18px;&quot;&gt;&lt;i&gt;Draft 2020-12&lt;/i&gt;&lt;/font&gt;" style="text;html=1;align=center;verticalAlign=middle;whiteSpace=wrap;rounded=0;" vertex="1" parent="1">
          <mxGeometry x="353.05" y="94" width="116.95" height="30" as="geometry" />
        </mxCell>
        <mxCell id="KrZMVGwemaGHYM_YUxDV-47" style="edgeStyle=orthogonalEdgeStyle;rounded=0;orthogonalLoop=1;jettySize=auto;html=1;entryX=0.5;entryY=0;entryDx=0;entryDy=0;exitX=0.483;exitY=0.986;exitDx=0;exitDy=0;exitPerimeter=0;" edge="1" parent="1" source="KrZMVGwemaGHYM_YUxDV-8" target="KrZMVGwemaGHYM_YUxDV-43">
          <mxGeometry relative="1" as="geometry">
            <Array as="points">
              <mxPoint x="-71" y="400" />
              <mxPoint x="-166" y="400" />
            </Array>
          </mxGeometry>
        </mxCell>
        <mxCell id="KrZMVGwemaGHYM_YUxDV-48" style="edgeStyle=orthogonalEdgeStyle;rounded=0;orthogonalLoop=1;jettySize=auto;html=1;entryX=0.5;entryY=0;entryDx=0;entryDy=0;exitX=0.483;exitY=1.005;exitDx=0;exitDy=0;exitPerimeter=0;" edge="1" parent="1" source="KrZMVGwemaGHYM_YUxDV-8" target="KrZMVGwemaGHYM_YUxDV-45">
          <mxGeometry relative="1" as="geometry">
            <Array as="points">
              <mxPoint x="-71" y="400" />
              <mxPoint x="26" y="400" />
            </Array>
          </mxGeometry>
        </mxCell>
        <mxCell id="KrZMVGwemaGHYM_YUxDV-60" style="edgeStyle=orthogonalEdgeStyle;rounded=0;orthogonalLoop=1;jettySize=auto;html=1;exitX=0.471;exitY=0.997;exitDx=0;exitDy=0;exitPerimeter=0;dashed=1;dashPattern=8 8;" edge="1" parent="1" source="KrZMVGwemaGHYM_YUxDV-8" target="KrZMVGwemaGHYM_YUxDV-59">
          <mxGeometry relative="1" as="geometry">
            <Array as="points">
              <mxPoint x="-72" y="400" />
              <mxPoint x="-360" y="400" />
            </Array>
          </mxGeometry>
        </mxCell>
        <mxCell id="KrZMVGwemaGHYM_YUxDV-8" value="" style="sketch=0;html=1;aspect=fixed;strokeColor=none;shadow=0;fillColor=#3B8DF1;verticalAlign=top;labelPosition=center;verticalLabelPosition=bottom;shape=mxgraph.gcp2.process" vertex="1" parent="1">
          <mxGeometry x="-110" y="280" width="80.64" height="96" as="geometry" />
        </mxCell>
        <mxCell id="KrZMVGwemaGHYM_YUxDV-11" value="&lt;font style=&quot;font-size: 18px;&quot;&gt;Code Generator&lt;/font&gt;" style="text;html=1;align=center;verticalAlign=middle;whiteSpace=wrap;rounded=0;" vertex="1" parent="1">
          <mxGeometry x="-210" y="311.5" width="60" height="33" as="geometry" />
        </mxCell>
        <mxCell id="KrZMVGwemaGHYM_YUxDV-13" value="&lt;font style=&quot;font-size: 18px;&quot;&gt;OpenAPI Specification&lt;/font&gt;" style="text;html=1;align=center;verticalAlign=middle;whiteSpace=wrap;rounded=0;" vertex="1" parent="1">
          <mxGeometry x="607.64" y="306" width="100" height="48.5" as="geometry" />
        </mxCell>
        <mxCell id="KrZMVGwemaGHYM_YUxDV-55" style="edgeStyle=orthogonalEdgeStyle;rounded=0;orthogonalLoop=1;jettySize=auto;html=1;" edge="1" parent="1" source="KrZMVGwemaGHYM_YUxDV-16" target="KrZMVGwemaGHYM_YUxDV-28">
          <mxGeometry relative="1" as="geometry" />
        </mxCell>
        <mxCell id="KrZMVGwemaGHYM_YUxDV-56" style="edgeStyle=orthogonalEdgeStyle;rounded=0;orthogonalLoop=1;jettySize=auto;html=1;exitX=0.493;exitY=0.991;exitDx=0;exitDy=0;exitPerimeter=0;" edge="1" parent="1" source="KrZMVGwemaGHYM_YUxDV-16" target="KrZMVGwemaGHYM_YUxDV-24">
          <mxGeometry relative="1" as="geometry">
            <mxPoint x="655" y="560" as="sourcePoint" />
            <Array as="points">
              <mxPoint x="655" y="588" />
              <mxPoint x="743" y="588" />
            </Array>
          </mxGeometry>
        </mxCell>
        <mxCell id="KrZMVGwemaGHYM_YUxDV-16" value="" style="sketch=0;html=1;aspect=fixed;strokeColor=none;shadow=0;fillColor=#3B8DF1;verticalAlign=top;labelPosition=center;verticalLabelPosition=bottom;shape=mxgraph.gcp2.process" vertex="1" parent="1">
          <mxGeometry x="614.82" y="460" width="80.64" height="96" as="geometry" />
        </mxCell>
        <mxCell id="KrZMVGwemaGHYM_YUxDV-17" value="&lt;font style=&quot;font-size: 18px;&quot;&gt;Code Generator&lt;/font&gt;" style="text;html=1;align=center;verticalAlign=middle;whiteSpace=wrap;rounded=0;" vertex="1" parent="1">
          <mxGeometry x="713.46" y="491.5" width="60" height="33" as="geometry" />
        </mxCell>
        <mxCell id="KrZMVGwemaGHYM_YUxDV-18" value="" style="shape=image;verticalLabelPosition=bottom;labelBackgroundColor=default;verticalAlign=top;aspect=fixed;imageAspect=0;image=data:image/png,iVBORw0KGgoAAAANSUhEUgAAAHIAAABsCAYAAAC2AeaWAAAMP2lDQ1BJQ0MgUHJvZmlsZQAASImVVwdYU8kWnluSkEBoAQSkhN4EkRpASggt9I4gKiEJEEqMgaBiRxcVXLtYwIauiihYAbGgiJ1FsWFfLCgo62LBrrxJAV33le/N9829//3nzH/OnDu3HADUTnJEolxUHYA8YYE4NtifPi45hU7qAQigATIAwIvDzRcxo6PDIQZD57+3dzehNWzX7KVa/xz/r02Dx8/nAoBEQ5zOy+fmQXwIALySKxIXAECU8mZTC0RSDDvQEsMAIV4kxZlyXCnF6XK8T2YTH8uCuBUAJRUOR5wJgOoVyNMLuZlQQ7UfYkchTyAEQI0OsU9e3mQexGkQW0MbEcRSfUb6DzqZf9NMH9bkcDKHsXwtsqYUIMgX5XKm/5/p+N8tL1cy5MMSdpUscUisdM0wb7dyJodJsQrEfcL0yCiINSH+IODJ7CFGKVmSkAS5PWrAzWfBnAEdiB15nIAwiA0gDhLmRoYr+PQMQRAbYrhD0GmCAnY8xLoQL+LnB8YpbLaIJ8cqfKH1GWIWU8Gf54hlfqW+HkhyEpgK/ddZfLZCH1MtyopPgpgCsXmhIDESYlWIHfJz4sIUNmOLsliRQzZiSaw0fnOIY/nCYH+5PlaYIQ6KVdiX5uUPrRfbkiVgRyrwgYKs+BB5frBWLkcWP1wLdoUvZCYM6fDzx4UPrYXHDwiUrx3r4QsT4hQ6H0QF/rHyuThFlButsMdN+bnBUt4UYpf8wjjFXDyxAG5IuT6eISqIjpfHiRdlc0Kj5fHgy0E4YIEAQAcS2NPBZJANBO19DX3wSj4SBDhADDIBH9grmKEZSbIRITzGgSLwJ0R8kD88z182ygeFkP86zMqP9iBDNloom5EDnkKcB8JALryWyGYJh70lgieQEfzDOwd2Low3F3bp+L/nh9jvDBMy4QpGMuSRrjZkSQwkBhBDiEFEG1wf98G98HB49IPdCWfgHkPr+G5PeEroIDwi3CB0EW5PEhSLf4oyAnRB/SBFLtJ/zAVuCTVdcX/cG6pDZVwH1wf2uAv0w8R9oWdXyLIUcUuzQv9J+28r+OFuKOzIjmSUPILsR7b+eaaqrarrsIo01z/mRx5r+nC+WcMjP/tn/ZB9HjyH/WyJLcIOYuewU9gF7BjWAOhYM9aItWHHpXh4dz2R7a4hb7GyeHKgjuAf/oburDST+Y41jr2OX+RjBfxp0nc0YE0WTRcLMrMK6Ez4ReDT2UKuwyi6k6OTCwDS74v89fUmRvbdQHTavnPz/wDAu3lwcPDody60GYD97vDxP/Kds2bAT4cyAOePcCXiQjmHSw8E+JZQg0+aHjACZsAarscJuAEv4AcCQSiIAvEgGUyE0WfBfS4GU8FMMA+UgDKwHKwBG8BmsA3sAnvBAdAAjoFT4Cy4BK6AG+Au3D3d4AXoB+/AZwRBSAgVoSF6iDFigdghTggD8UECkXAkFklG0pBMRIhIkJnIfKQMWYlsQLYi1ch+5AhyCrmAdCC3kYdIL/Ia+YRiqAqqhRqiluholIEy0TA0Hp2AZqJT0CJ0AboUXYdWoXvQevQUegm9gXahL9ABDGDKmA5mgtljDIyFRWEpWAYmxmZjpVg5VoXVYk3wPl/DurA+7CNOxGk4HbeHOzgET8C5+BR8Nr4E34DvwuvxVvwa/hDvx78RqAQDgh3Bk8AmjCNkEqYSSgjlhB2Ew4Qz8FnqJrwjEok6RCuiO3wWk4nZxBnEJcSNxDriSWIH8TFxgEQi6ZHsSN6kKBKHVEAqIa0n7SE1k66SukkflJSVjJWclIKUUpSESsVK5Uq7lU4oXVV6pvSZrE62IHuSo8g88nTyMvJ2chP5Mrmb/JmiQbGieFPiKdmUeZR1lFrKGco9yhtlZWVTZQ/lGGWB8lzldcr7lM8rP1T+qKKpYqvCUklVkagsVdmpclLltsobKpVqSfWjplALqEup1dTT1AfUD6o0VQdVtipPdY5qhWq96lXVl2pkNQs1ptpEtSK1crWDapfV+tTJ6pbqLHWO+mz1CvUj6p3qAxo0jTEaURp5Gks0dmtc0OjRJGlaagZq8jQXaG7TPK35mIbRzGgsGpc2n7addobWrUXUstJia2VrlWnt1WrX6tfW1HbRTtSepl2hfVy7SwfTsdRh6+TqLNM5oHNT59MIwxHMEfwRi0fUjrg64r3uSF0/Xb5uqW6d7g3dT3p0vUC9HL0Veg169/VxfVv9GP2p+pv0z+j3jdQa6TWSO7J05IGRdwxQA1uDWIMZBtsM2gwGDI0Mgw1FhusNTxv2GekY+RllG602OmHUa0wz9jEWGK82bjZ+TtemM+m59HX0Vnq/iYFJiInEZKtJu8lnUyvTBNNi0zrT+2YUM4ZZhtlqsxazfnNj8wjzmeY15ncsyBYMiyyLtRbnLN5bWlkmWS60bLDssdK1YlsVWdVY3bOmWvtaT7Gusr5uQ7Rh2OTYbLS5Yovautpm2VbYXrZD7dzsBHYb7TpGEUZ5jBKOqhrVaa9iz7QvtK+xf+ig4xDuUOzQ4PBytPnolNErRp8b/c3R1THXcbvj3TGaY0LHFI9pGvPaydaJ61ThdN2Z6hzkPMe50fmVi50L32WTyy1XmmuE60LXFtevbu5uYrdat153c/c090r3ToYWI5qxhHHeg+Dh7zHH45jHR083zwLPA55/edl75Xjt9uoZazWWP3b72Mfept4c763eXT50nzSfLT5dvia+HN8q30d+Zn48vx1+z5g2zGzmHuZLf0d/sf9h//csT9Ys1skALCA4oDSgPVAzMCFwQ+CDINOgzKCaoP5g1+AZwSdDCCFhIStCOtmGbC67mt0f6h46K7Q1TCUsLmxD2KNw23BxeFMEGhEasSriXqRFpDCyIQpEsaNWRd2PtoqeEn00hhgTHVMR8zR2TOzM2HNxtLhJcbvj3sX7xy+Lv5tgnSBJaElUS0xNrE58nxSQtDKpa9zocbPGXUrWTxYkN6aQUhJTdqQMjA8cv2Z8d6praknqzQlWE6ZNuDBRf2LuxOOT1CZxJh1MI6Qlpe1O+8KJ4lRxBtLZ6ZXp/VwWdy33Bc+Pt5rXy/fmr+Q/y/DOWJnRk+mduSqzN8s3qzyrT8ASbBC8yg7J3pz9PicqZ2fOYG5Sbl2eUl5a3hGhpjBH2DrZaPK0yR0iO1GJqGuK55Q1U/rFYeId+Uj+hPzGAi34I98msZb8InlY6FNYUfhhauLUg9M0pgmntU23nb54+rOioKLfZuAzuDNaZprMnDfz4SzmrK2zkdnps1vmmM1ZMKd7bvDcXfMo83Lm/V7sWLyy+O38pPlNCwwXzF3w+JfgX2pKVEvEJZ0LvRZuXoQvEixqX+y8eP3ib6W80otljmXlZV+WcJdc/HXMr+t+HVyasbR9mduyTcuJy4XLb67wXbFrpcbKopWPV0Wsql9NX126+u2aSWsulLuUb15LWStZ27UufF3jevP1y9d/2ZC14UaFf0VdpUHl4sr3G3kbr27y21S72XBz2eZPWwRbbm0N3lpfZVlVvo24rXDb0+2J28/9xviteof+jrIdX3cKd3btit3VWu1eXb3bYPeyGrRGUtO7J3XPlb0Bextr7Wu31unUle0D+yT7nu9P23/zQNiBloOMg7WHLA5VHqYdLq1H6qfX9zdkNXQ1Jjd2HAk90tLk1XT4qMPRncdMjlUc1z6+7ATlxIITg81FzQMnRSf7TmWeetwyqeXu6XGnr7fGtLafCTtz/mzQ2dPnmOeaz3ufP3bB88KRi4yLDZfcLtW3ubYd/t3198Ptbu31l90vN17xuNLUMbbjxFXfq6euBVw7e519/dKNyBsdNxNu3upM7ey6xbvVczv39qs7hXc+3517j3Cv9L76/fIHBg+q/rD5o67Lrev4w4CHbY/iHt19zH384kn+ky/dC55Sn5Y/M35W3ePUc6w3qPfK8/HPu1+IXnzuK/lT48/Kl9YvD/3l91db/7j+7lfiV4Ovl7zRe7PzrcvbloHogQfv8t59fl/6Qe/Dro+Mj+c+JX169nnqF9KXdV9tvjZ9C/t2bzBvcFDEEXNkvwIY7GhGBgCvdwJATQaABuszynh5/SdriLxmlSHwn7C8RpQ1NwBq4f97TB/8u+kEYN92WH5BfbVUAKKpAMR7ANTZebgP1WqyulLaiLAO2BL1NT0vHfybJq85f4j75zOQqrqAn8//Aus0fGM3KyfvAAAARGVYSWZNTQAqAAAACAACARIAAwAAAAEAAQAAh2kABAAAAAEAAAAmAAAAAAACoAIABAAAAAEAAAByoAMABAAAAAEAAABsAAAAAGXeLlsAAAIEaVRYdFhNTDpjb20uYWRvYmUueG1wAAAAAAA8eDp4bXBtZXRhIHhtbG5zOng9ImFkb2JlOm5zOm1ldGEvIiB4OnhtcHRrPSJYTVAgQ29yZSA2LjAuMCI+CiAgIDxyZGY6UkRGIHhtbG5zOnJkZj0iaHR0cDovL3d3dy53My5vcmcvMTk5OS8wMi8yMi1yZGYtc3ludGF4LW5zIyI+CiAgICAgIDxyZGY6RGVzY3JpcHRpb24gcmRmOmFib3V0PSIiCiAgICAgICAgICAgIHhtbG5zOnRpZmY9Imh0dHA6Ly9ucy5hZG9iZS5jb20vdGlmZi8xLjAvIgogICAgICAgICAgICB4bWxuczpleGlmPSJodHRwOi8vbnMuYWRvYmUuY29tL2V4aWYvMS4wLyI+CiAgICAgICAgIDx0aWZmOk9yaWVudGF0aW9uPjE8L3RpZmY6T3JpZW50YXRpb24+CiAgICAgICAgIDxleGlmOlBpeGVsWERpbWVuc2lvbj4xMTQ8L2V4aWY6UGl4ZWxYRGltZW5zaW9uPgogICAgICAgICA8ZXhpZjpQaXhlbFlEaW1lbnNpb24+MTA4PC9leGlmOlBpeGVsWURpbWVuc2lvbj4KICAgICAgPC9yZGY6RGVzY3JpcHRpb24+CiAgIDwvcmRmOlJERj4KPC94OnhtcG1ldGE+CrZsu0AAAAmrSURBVHgB7V07rx01ED4hSJFA4i/k/gACEkg8GtLR0QcEqaCgAgqaFBQUaSiAigKqgCA9HV1oeEggQfgByV9AAgkJBOfbc+fGZ/i8D8+M17t3Ld14d22PZ+bzzPixZ3Ph333abWnxGnho8RJsAnQa2IBcyUDYgNyAXIkGViLGZpEbkCvRwErE2CxyA3IlGliJGJtFbkCuRAMrEePhpcvx/U+/nInw3c+/dtc/nOa4kfLnnn6yK3v2qSe6XP55/vReyuX50vILS9xrBTgfffZFp2sBykPxb73x2g7ALhHUxQAZBV5uAABUpHdO81y9Vp43DaSA52l1JYoHqK0D2iyQH376+e7j/d+YdHLlQai//PjF3eXk/uTKxY7Evbv/dPn9u3+fkbz/2+HZveTZWSG5aBnQ5oAcCyDAe+HlSzsBiuh90qM7X/7V1b/z1SHva9wioM0AOcaNeoOXA2ssqC0BOjuQQwDWAq8P1CErvf3JB7PPdGcFEiBee/PdnA53V/eu8+orl7LlNQtgpX2Azm2dswHZFwtbAlAPlj5A5wRzFiBzIM7tRjVoffc5QOcCszqQcKVsXdiyFeYAzYGJnSHEzZqpKpA5EK/ffNRtGVFTeegrBybKak6CqgHJQFySKwUwfenWjT93emOhpmVWOY9ETNTuFCBev/nIYi1RgwpZEB7SNDQrT+tar8OBZBMbCAzB15awVGJgQgfRKRRIBiIssZW1YYRyIRtkTBP2jKPBDAMSboVteq/RElPQcH0IGf8HU4cX3c5yHwYk27HB7PS8JGzo68QmfLpO6X0IkMyNIHZ4nVSUCluzHWRlA1febPDmJWT5cfLMi0d8AkRrXJTzRCG8lEHB1pkR68tjRy5aMuTUGgs3vqEEHP7q9RkmEydXYma9bD2I/krPPjGAtQywytunL4MZVH3U1NW1slmqno4f9d5zIyNZg9jTJKwIPNy68Ue3i1PSiY6XmPR4T3xcgdRClrpUAVHTm/sex1jgbWpCGNBLEu9Y6QYks8apAkv9vnM/qTNXXspbtFW6TXa8JjiY1MCNsZS6aevkidHHM/SPF7T6Xswq9TQs/t778ZscK5Oeu0x2PCc46VtuIgncUq2NhIMbPLx5h/7ff+l3YcOcwyp1zEes9Hgh2s21plKmlpM+H3MtlpDWxSuOcyUmC+NxDH+RsdIFSLYVN0awsXXS91THtvGq5903i5UevJqBZNPoqPjlIbAHDe0ep9BkVsl0OIUm6pqBlF9AScfMFUnZlnMNeCxFzEB6u1XLaOdqsj2FBXmnCPdqBlILuXa3quUtuWeDw+peTUDqZYfevSgR8ry00bqyulcTkOkvgwGAdZmgTzgEVDaCpaxGrpWOPnO8juVHu9ex7XL1TEBqot5TdU1/u89rwASk1a/n2XpQwqzhQWmdK+Zp2A7UFG60l7Hq0gSkZlwzp8uH7r8d8dvEIRrntdwVSIsSEXPY0sM7lpTwyEJG6ZFWX/8WqywG0tJpKgwAxBkfO/GAW2VWLm3GTDhA+zBIDj8zT/tOr/togge20QEwDycaGIT99NO+5NozbLicfoCxEqbYsY4IiZxZ49Gh816R6JedjECxZ4Pj1GUDDLbO1TRz9VLe5BpeRDzJe18/Jo+r58UWqbfmvDmHMrU1dlaj4iiUCCB0YvGWnVowmsxtYgCwt+J0v5Z7i06LgdQMs5mdrjP2PmcRU2aKYiVpn+zZFJo5F5v2MeXaU2fFQMqnv4RxNtqlbGoOi2Axh006crSZq2fPcu1ZX8x6c+1rPy8GMppR9tYaswiAw+IeG+0s5qKtBhj3zK2fxVwn4T0Hv9tkp0Q2KBZ/iGfM7TGaUDysRVwiAxHtpB6uUTdXD+WYLMHa+miymIu2CANIzIK7ggn/aC83oemuGEj9nslYIFLmZNTjZWMoUo94uFgkDQLaSduUnr6WOpLr8vS+jyZ4Y/JZf2nNaKY8TbluxrVCkTK6pwhQoy6zRuZ+rbxo45hCzwSk7hgj1zuJVXrTtdJj8dZK09LeBKSlY9bWI84wui0+8x70TQE5JpbNAYpnLBP+ZWIl99q7yfOxuQnIt19/9agfFkuOKhTeeI/eQjZCm+lPdE/tzASk7ixi5Oo+Wrm3eg/v2G8CEu5Au4TzYD3WwcT2hq1faDYByQSKcK86nrB+o57VGJj4fp01mYHUcfI8uFe9pTcVBG+3iv7NQGrXCqKWUWxVEvpvOTHdWN0q5DUDCSIaTIt7ZZvd6GMtSYcJD7cK3bgAydwrG3mlYES4orG8WAYl6yNKluJN85RJmb2m7/FAAZ5f3sBrIUiwWOwAWaf/Kf/pdTqjxDETi/ml23MpbenTw62ClguQIASrvLb/9a0kKABWOVXhOOlgo1YUivxkr2DPQSI8I8+Bl9YpvdZyeblV8OPiWkFIrBLXkkrdUqunIJALvE0dnGgXaY2g7wYkiHnFSlhli2BiRq3PRiH3UAKIkdaI/l2BdLXKPZiHg1s37z+k795yDCz22mVvo0wh9OQVG6ULt8+zCEFMePSXIaGEkpEsNJHLLLjEraV0hq6lH6ln7S9njc0DCQWwz1l6gCnKXUpeC0Tow9W1ioJ1rMRzxAg92qX+GnPIquMi5LS8YNWnpxAgEQPY/3uhX67qY2zpZWzGjuUGdBORQoAEo2CYrZNkYR8hTCs04VJl3Ss8QRfecVFoIw8DEsTBuAYTAkLQtaaacTHVYSiQ6AhganeC2LFGMBmIkD3SEgVM9+WHENY5m8ligY19S+sUX/c1x33uJ4JeX38ckincIoUBNpOFm2W/8ZA2S8gxO8UXJHVMBO9swhclUzWLFAGYZaJsietM5kohC9wpBq4OKSiLStWBhCC5ry0vCcw+EGtaogyMWYDsAxNlLQOaAxB8Ry8x0EcuzQYkGMpZpjDbEqCIhVjks1gIfucEEf3PCiQYYJvseJ6mOQEdAhB8RvyHLKn8Y65nB1KYHLJO1AOgXb4/4opMAh76yFkgyua2QvAgqRkghaExgKKuN6gCXh9wwmNLAApPzQEpjI0FFPXlXdj0VUr5iZ5sNgAoSfJKovyGfwx4aDvHskJ4HsqbBVIYnwKotPHOWwZQZG0eSGEUgCJ5f3pb6Ot8CeClPC8GyJRpzHTxlShPUGUXpvaOTCqX5XqRQKYCy0vR6ee/5MvOUib1BSzc44el6Wl9Wib1l5QvHsglKTuS12qnH5FCbLSD3xDYFFxPA5tF1tN1aE8bkKHqrUd8A7KerkN72oAMVW894huQ9XQd2tMGZKh66xHfgKyn69CeNiBD1VuP+AZkPV2H9vQfHPCuMHZqJ4EAAAAASUVORK5CYII=;" vertex="1" parent="1">
          <mxGeometry x="397.39000000000004" y="460" width="101.33" height="96" as="geometry" />
        </mxCell>
        <mxCell id="KrZMVGwemaGHYM_YUxDV-19" value="&lt;font style=&quot;font-size: 18px;&quot;&gt;Swagger:&lt;br&gt;API Documentation&lt;/font&gt;" style="text;html=1;align=center;verticalAlign=middle;whiteSpace=wrap;rounded=0;" vertex="1" parent="1">
          <mxGeometry x="353.0499999999999" y="556" width="190" height="33" as="geometry" />
        </mxCell>
        <mxCell id="KrZMVGwemaGHYM_YUxDV-20" style="edgeStyle=orthogonalEdgeStyle;rounded=0;orthogonalLoop=1;jettySize=auto;html=1;exitX=0.5;exitY=1;exitDx=0;exitDy=0;entryX=0.417;entryY=0.001;entryDx=0;entryDy=0;entryPerimeter=0;" edge="1" parent="1" source="KrZMVGwemaGHYM_YUxDV-12" target="KrZMVGwemaGHYM_YUxDV-16">
          <mxGeometry relative="1" as="geometry" />
        </mxCell>
        <mxCell id="KrZMVGwemaGHYM_YUxDV-24" value="" style="aspect=fixed;sketch=0;html=1;dashed=0;whitespace=wrap;fillColor=#2875E2;strokeColor=#ffffff;points=[[0.005,0.63,0],[0.1,0.2,0],[0.9,0.2,0],[0.5,0,0],[0.995,0.63,0],[0.72,0.99,0],[0.5,1,0],[0.28,0.99,0]];shape=mxgraph.kubernetes.icon2;kubernetesLabel=1;prIcon=api" vertex="1" parent="1">
          <mxGeometry x="695.46" y="620" width="96" height="92.16" as="geometry" />
        </mxCell>
        <mxCell id="KrZMVGwemaGHYM_YUxDV-27" value="&lt;font style=&quot;font-size: 18px;&quot;&gt;API Implementations&lt;/font&gt;" style="text;html=1;align=center;verticalAlign=middle;whiteSpace=wrap;rounded=0;" vertex="1" parent="1">
          <mxGeometry x="713.46" y="726" width="60" height="33" as="geometry" />
        </mxCell>
        <mxCell id="KrZMVGwemaGHYM_YUxDV-28" value="" style="aspect=fixed;sketch=0;html=1;dashed=0;whitespace=wrap;fillColor=#2875E2;strokeColor=#ffffff;points=[[0.005,0.63,0],[0.1,0.2,0],[0.9,0.2,0],[0.5,0,0],[0.995,0.63,0],[0.72,0.99,0],[0.5,1,0],[0.28,0.99,0]];shape=mxgraph.kubernetes.icon2;prIcon=api" vertex="1" parent="1">
          <mxGeometry x="518.82" y="620" width="96" height="92.16" as="geometry" />
        </mxCell>
        <mxCell id="KrZMVGwemaGHYM_YUxDV-29" value="&lt;font style=&quot;font-size: 18px;&quot;&gt;API Client Library Implementations&lt;/font&gt;" style="text;html=1;align=center;verticalAlign=middle;whiteSpace=wrap;rounded=0;" vertex="1" parent="1">
          <mxGeometry x="534.32" y="736" width="65" height="33" as="geometry" />
        </mxCell>
        <mxCell id="KrZMVGwemaGHYM_YUxDV-33" value="" style="shape=image;verticalLabelPosition=bottom;labelBackgroundColor=default;verticalAlign=top;aspect=fixed;imageAspect=0;image=data:image/png,iVBORw0KGgoAAAANSUhEUgAAAMgAAADICAIAAAAiOjnJAAACoUlEQVR4nOzcPYpTURyH4cmHIjaDTjtMPYXN7GaKWUz2kHXFLpAu6QSLtBEhIu7AwH05enmeBfzvr3jhdHe9u4PpLUcPYJ6ERUJYJIRFQlgkhEVCWCSERUJYJIRFQlgkhEVCWCSERUJYJIRFQlgkhEVCWCSERUJYJIRFQlgkhEVCWCSERUJYJIRFQlgkhEVCWCSERUJYJIRFQlgkhEVCWCSERUJYJIRFQlgk1oO/v1y+f3oavGGOfp5OYwcMDmv98PDleBy7YZa+LhZjB3gKSQiLhLBICIuEsEgIi4SwSAiLhLBICIuEsEgIi4SwSAiLhLBICIuEsEgIi4SwSAiLhLBICIuEsEgIi4SwSAiLhLBIjP4pyH/l22bz63KZ9ubHl5dPr6/T3vwXCOsG37fb6/k87c3Pb2+zDMtTSEJYJIRFQlgkhEVCWCSERUJYJIRFQlgkhEVCWCSERUJYJIRFQlgkhEVCWCSERUJYJIRFQlgkhEVCWCSERUJYJIRFQlgkhEVCWCSERUJYJIRFQlgkhEVCWCSERUJYJIRFQlgkhEVCWCSERUJYJIRFQlgkhEVCWCSERUJYJIRFQlgkhEVCWCSERUJYJIRFQlgkhEVCWCSERUJYJIRFQlgkhEVCWCSERUJYJIRFQlgkhEVCWCSERUJYJIRFQlgkhEVCWCSERUJYJIRFQlgkhEVCWCQWu7HfX60+PD+PnfD3fhwOd9frtDdX9/fvHh+nvfln6n4/+c2bjA6LmfIUkhAWCWGREBYJYZEQFglhkRAWCWGREBYJYZEQFglhkRAWCWGREBYJYZEQFglhkRAWCWGREBYJYZEQFglhkRAWCWGREBYJYZEQFglhkRAWCWGREBYJYZEQFglhkRAWCWGREBYJYZH4HQAA///zGx5YDfAIHQAAAABJRU5ErkJggg==;" vertex="1" parent="1">
          <mxGeometry x="-22.36" y="640" width="96" height="96" as="geometry" />
        </mxCell>
        <mxCell id="KrZMVGwemaGHYM_YUxDV-35" value="" style="shape=image;verticalLabelPosition=bottom;labelBackgroundColor=default;verticalAlign=top;aspect=fixed;imageAspect=0;image=data:image/png,iVBORw0KGgoAAAANSUhEUgAAAJgAAACGCAYAAAAhHkPKAAAABGdBTUEAALGPC/xhBQAAACBjSFJNAAB6JgAAgIQAAPoAAACA6AAAdTAAAOpgAAA6mAAAF3CculE8AAAAUGVYSWZNTQAqAAAACAACARIAAwAAAAEAAQAAh2kABAAAAAEAAAAmAAAAAAADoAEAAwAAAAEAAQAAoAIABAAAAAEAAACYoAMABAAAAAEAAACGAAAAACRSCSoAAAIyaVRYdFhNTDpjb20uYWRvYmUueG1wAAAAAAA8eDp4bXBtZXRhIHhtbG5zOng9ImFkb2JlOm5zOm1ldGEvIiB4OnhtcHRrPSJYTVAgQ29yZSA2LjAuMCI+CiAgIDxyZGY6UkRGIHhtbG5zOnJkZj0iaHR0cDovL3d3dy53My5vcmcvMTk5OS8wMi8yMi1yZGYtc3ludGF4LW5zIyI+CiAgICAgIDxyZGY6RGVzY3JpcHRpb24gcmRmOmFib3V0PSIiCiAgICAgICAgICAgIHhtbG5zOmV4aWY9Imh0dHA6Ly9ucy5hZG9iZS5jb20vZXhpZi8xLjAvIgogICAgICAgICAgICB4bWxuczp0aWZmPSJodHRwOi8vbnMuYWRvYmUuY29tL3RpZmYvMS4wLyI+CiAgICAgICAgIDxleGlmOlBpeGVsWURpbWVuc2lvbj4xMzQ8L2V4aWY6UGl4ZWxZRGltZW5zaW9uPgogICAgICAgICA8ZXhpZjpQaXhlbFhEaW1lbnNpb24+MTUyPC9leGlmOlBpeGVsWERpbWVuc2lvbj4KICAgICAgICAgPGV4aWY6Q29sb3JTcGFjZT4xPC9leGlmOkNvbG9yU3BhY2U+CiAgICAgICAgIDx0aWZmOk9yaWVudGF0aW9uPjE8L3RpZmY6T3JpZW50YXRpb24+CiAgICAgIDwvcmRmOkRlc2NyaXB0aW9uPgogICA8L3JkZjpSREY+CjwveDp4bXBtZXRhPgoOv2DSAAA/nUlEQVR4Ae19CYyd13Xeefu+z3uzz3AZ7qRIidS+UZsl2TEQBLDdOkmbpbGROhGSGLaBpCgYIHLrpjFQOIYhJS5SBGiByG5S14lkS7JkLZZq7SQl7ssMZ9/fvr+/33fvezNvyOFwtkfOkLzkm/e/f7nr959z7rnnnGuSm2nN94AhYvr+3/5DqGKxdRlSLHtshd7f+I3fSKLiuLS2k2ltV+/Grt23v/1tlzfcsmk8Z308nil9Ziie224yGZVowPlJ2O983mkxXvTkJ05++ctfLq7VnroJsDU2Mq+8csh6snd7d7xg3D+VKTwxNp29fTBR6YpnCtZsiQTLELetImGvs9QU9PZ1+CwvRkPuf/E77O+5JDv8+c9/vryWmnQTYGtgNA4dOmRu3bynuVCp7EsnE0/2p+TRoens5rFEzp4qmKQkNrFIRSxGWSomk5TxMRmGmE0V8dnN0uR3pmOhwKmo3/Vim8/4sS/gOPLFz3xm2gRyd62bdxNg124ETH/91/8jbLhdexPFysMjydJjQ5OpbROpfCCRK0upQsnLjNpxiDROTPg21O/Zc+oKwGY1myTgshjNPttkLOQ53Bz0v9TkKL8YtA8f+/znv5K6Vs28CbCr3POUqzyhWM94wfrEZLrw5Fgiu29kOhecylRMhXJZDADFRGAth/YQkyBadotZfB5Xpc1vHW4JON8PuO0/9duMV43k8MmnnnoqfzWbfBNgV6G3n3nmGVvJ4u6OG5b7p7Olx8encncMJwtd8XTeki2C7YkZwDKD7ZH1gU6tgLPVqBwpnRks1WUzSdDrKseCnv4NHnk74LK9bhQSr1lPHj351He+03Cw3QRYgwAGucrqbWpqL1uDt2eK8ghY4AND8cLmqWTKkS6UpQxQgdyAUAFYqAPBAGxVCRfPLH1oSPSYnxmQZc4qgX0ayNuK7Px2izT7neWWoGfA53W+7jLlnnfks6/+yZ/8/oC+efX/Lr0Vq1+H6yZHcqhnn3kmUrB590ul8rjLH3ro1OD01sN9k+7hZBFylUksoE6gVwAT/za2+2sgI9QUUSSFrJTEYQPQwh7ZtymW39QafjU/3Pv7v/d7/+ZcIwbC2ohMb7Q8v/X97/sCYtv2n0rORydSkKuSqb3j8UzAbk9JJOSXLd1t0pbJyfBEXCaTWYEML0qGbyy+QLk0RTRwAGiJBxQsGgxIWyQgDpdTBtN5R+L8+H3tVmMXxuwmwNYScClXpSFX5cqOx6bSpSdOxjMHhhLp5slU3lIolhSTqkhO+iYz4nFYJRbySkdrTLo7rDKdSArUEJJIZ6VUrqBZFOxXt3UEFQGGoiXmd0hrJCQeb1ByFauMJnMyMZGSYjEnPU0Oc7Pf3DBC07CMV7e71kZu1FdFu7tjmbL79sFs6VNDyfz9g/HM9ulUTslVHFACxTBZVIWpZCDtSOaKkhyclN6RafG5nRINB2RHZ0Rdm5hOyshkXFLZAvRdYJt41sJ8yEbVb2ZFEF4uUZhHKUqGMyk9mcNckaDbIU0AVSAYRGZWmQLlPD+Ulky+JCWD5YBdK2ZtrkCvVrpc7is9fxNgV+hBjt2zz/6DP+823RJPlR45Ol5+bHRyavdEKudP5SsYrBrpwTfBdVF+BJgQcPiiIh4UDp9ROYtTYa9LWsI+2dvTAWpSlOHJhIxOpyUN5WrFwPBTXjMqAM1Fmdb9NACWCu6xoAyf0yaxJr/EAGAH8seMVfpGEzINnlyoEPScUODD/CiUVf+bLaaGLTXdBFjdYNUf/uVf/qXHHu3e/s2/tRycSGUeHe1P7R+JZyPxXMVcBEHR1IWSzdIStOvqgVLZkNF4Bp+0OO1Wifo9ChidzRFJZkoyMpEA1UlJoVRRZVUfmymsXKFywyReu0gT5KqWSFBcoFpJzFD7pnMymS5iWRwIwoMGVgJYUTN+zpMMUMD5r8xz81JP3QRYXY+BBdpjXV0dWKG5ayxf+fRk39QDA9OFtvFsxUIKw1EwwG442By2pYKrrijkoZ8nUDMFQ86Pp6R/PC5eUqGgXzpbm6SnMyaJ+LT0T6Ukns5JoQoYh9UigVBAmpsiEvG6BVxPxpVclZCckv9YEiupVwKotlACGZjiPAncEmtODUo3AYaO/Z/PPNOUsDkPYg3wU+8OlO4eS0xvmkgX3YVCCfoqyjUElWVFgLp4/AgvTTbAtKpINQAALhOlh8bk/OiU+D1OaQu6IK+FxQqQjCXzYlgcEgr4QY4sMp1My8cDcQC0IuWZaSmHtJrzDPvW0uDFdeBvFG1UDGvDFshveICRahWC0W/kc/LvJ9Jx9/mxJKhFXs0ClbAOKlCDgh6Q1eIm89M/xQpRRKVckulUVsqlMhhcCdSsRXo2huXYUEJODSckm8E1sMmKxQU4UWlbD585P6oX5jtX/0xjjm94gLXu3Ok6Mpjbf2pg3B0MBGX3pnawnLKSgcYgI6VBHQipmuzUmGGoz9UkDodDWkIeiWIWaHeCBWYz8sveBHRpFhmLZ2U8U4ZQb1dzB02slgt60FEsUbmdFmd9DVbz+IYHGDuzUjYqw4mK9E5NitNqlnAAOquIT7pawxLHTGx0fFqxI+q3SNW0Fl4TDTBQjHFNIlscleD9Fc4sSXsqWDTimiHkqpDfBbkqKB5/EAJ6Rc0oR8Eqc2WoFHBfcwRPgsSR4bF05rO4EtUDF/2hrq4sdqvhvbfr1J+///zXHhgcD77xUZ+8/2d/VhwRObQqctkNDzBPoQCFgIEh1INVLBoyMpaScYDK7TRJExSkXS1h2dTWJIlkUoahRoinC0rgLiv2SdmMQ024KFp30UDqnwpUat6n7zNXimIDUoI+u7Q2xZRcVTasMpnISW8/5CpQUbJAAqkmmus1Rpzhko8qcd6iFnWSMIVyA/JfyRJzHLk94Oq7vTUQS2xuaz32wA9DL/bH//PzJ/pyhyFCrMjU54YHWG00akyGYKGis2yyyXTeJJPDaTk3mhK/2471u4Bs7WrBhMwkY1CQjkJvlcxhIgA9FOWghdgoFaEWA6pUsCQPlmlaw0GJ4GOxQbWA1fCTw3lJ5eLaDswCuIJSadDWarjK3wZUF3i1xIRpjCklHtMZcVsu+CM+z53tnvDt3c1t/253Z/PbDz735y8MTdp+/tbRoXPfWYb1xQ0PMHs6DY2Ba4bTcOJVgsKogpk7FEQYZAMAEpkC1ZpMj4GlgJV5HNIGGenWnjbJQ30xNJUBZctINq/1lTWg8dkKNbUAC/VVzSGfhCNRcbo8koZ2f2AqDWVoSvJlaNYrsIIA26SVKp/R1JCgmqnaKiOM1JHtY/74S2U+lLYWSQNsGbPH1t/SZPf+apun7TMbW9t7d3Q3vfEr93/zn/uGLW//9PWNQ889tzjT7BseYFOqm2dHkZSMwGLnqyUYfDOpmRq+i1B8Uts+Np1SCtII5LUYgNPZHJYkhPFRLmjHC5goGLgOWyyfG7JTUEJeL9iqyHA8L2Oj07gOACNrs2KzyJiARjXKSjZjgbpcUrKFl4pweVmJ7UP50PCr5lIZS2aMc3wxeOA0psVpSdgClt6eaNjb0xZs+tyWltaTt25Lvfx7v/bnL5ycsH34B39QQBdeXl674QEWWnBw2NWzFEQfcQT0W58FweobT8sQ5DWfwwwFqRtAa4K8hm4tFsTi8krZbJOJRAb6qhTWAQ0oHLj0Q7qhl2w4lPOnarm8YbYK89+6jLMqS8pyJNlM1W8NLn0K8FMHJlNWnKYkwDbkCTtP3Rp1hvcl/bHf6WzfcPi1H4d+1jv6Fy+f6SvNK6/d8AAreDyGkcQUbRmJM0hqyfg3njMkMQR5eCQHoz6z3LG7Rz66UIR5zrSymAAHJAfCgFpBMTCMjVOeL6MlCz9iFhi+AuhUBJsBNrcMmFyWsXCT+fzB1qbwA93Bjq/s62p566EfHXr+ZL+8/c6Hg6efffbZDHO9oQF28OBBay6X63LaPQFNJi5PT+YbAr7tZkz1FZUDVbKCrZUw80tk+cljAsCZIGkV7oPIQyIBiU5981kOGM/oY00t5ivnWp+rkH2aC6gG5TRCpogJC1+rknhNSbPTPtAcdgR/tdXf/Jlg5JahzRtuff3uu5/5i9/+7S8fvxEBZn766aejO3fuvK2tre3RcDj8SPGD3u3G0dElj6OGRk2JwJmnBgn1ZIrxUGCHgEOLh7kJT+KaUnPQEgKftZxMrH8FsxT1UuAQ5mMVsH4LlqcUzEwesP0mvKMxW6sr0+VzDPyrTDb4Gh64cQD2h3/4h/777rtvD0EVjUYfCQaDe9xud8AMWxXHx0OrNL5VeUbRpAWyBABLnCnCfJnyHIGmBe0FnrmWl5Q1D6m7Fggs0BqWxSFZU6vkzVDbSEiZC9ktCbjPnYFWMWgxlXu8rPJ1TcG+9KUvue++++7N3d3d90cikU+FQqE7/H5/s90Ob1Ukqg8qVGbWcMGTVyHRAYNLQS1YyM5hQf3CaFLSsC3Tk4erUIH6ImgXdqVkgHqZsdAOvVml3C45cztUOQGxgJI5zCkxW8+D2WerFI0ThyajXIbuBem6A9j+/fttCAzS3tOz8Z6WtpYno5HoXT6/vwvre3YqOXWiQMSOxUirDl5EJ1efXO4X9eYcoIhH5Fdu3yQP3dYDOy63cPnp9Q/Oyt+99IlMYKJghuKTkl3DUU+BcKbtOFbdwRmukhiVfMXrtCUrCJaujFYcxyCCWcViLYjLNCU2UxryJKbSlMeUgMmZMVYeYJ9hEheFtusGYGYsaTTt3r37QEdHx2OQqx4MBHxbYYDnsaJD2GhtU1cn66BPFeW6SvIP3dSibrP8zhO3yOMHNosHnj0K5C6bPHn3djncPyU//WBADwnrpkac341KLISo0n1imDn5wG/0lUDLXxQ/2DgW/gksi1usljysZONwf0sAQAo7eLam5qjKodV6K4BVzbDXMwUz/dEf/VHgzjvv3Am56uHm5uaHAoHAPrfbE7LZwITU26m1Dw002Fz06NtRn1+5a5N85kAPVgNAz0BB1XggBy88M3raI/LiR5AF8e4z7gQJwtVMFZNDiiY3QBXF3LAFZkDwk8LL5yGgLBeAO/haYgbJuuk3c+Ha1aY+6w5glKtuv/32HRs2bHiopaXloVAouM/r9TbbbHCYr1ruKUCxI67yIF3a5RwMYAYDtaXZLU+CctFWXlWtWrfacJmqhvcmUwF0hSyyxs5VFsv6Q/UHSsM/XRj/6pmvvkI1gxVLXyVpgv/THqhYosqg0WLB2qS5H3JVRoOd+QDxnDOSyi1lQrKuAPb1r3/d98gjj/xHUKx/jZlgi9frtmASWO18LrVUh0tRr2WNySo+hLpQmco3HyOyr6dZ2sNeDJAeZhbE2nLs07CcODE6AVGmCBkM2ibIQauRiFk6jbBELkEplTDQ7YQZRwymQe0xj+yMOaRi3QQqVYB1xyTqmlTylwYRnwRFnakMZdeZHwseIMaGunNdASwWi4VbW1sfh4zVXigUJJEoit1hUwZ6Fgs6UA0e+mCRnbBgD63KRV0RUtZoE8yeEZSkVjUOuxnWFRy83qFJOXZ2UIs/6gzP1u5cfkUQqw5ghc4KWbmg6Y1ixZ0gbwk4QJkqyjmkd2ha7G0DYrOdRYksE2Urvd0srNQ5fWXRlcFQKOFuXQEsm81iImi2OJ1OpV4o442HJl4ymQzeQItAr4WOsimTmEX3RINv1JiH/h6RcxR2MIYaOlS2wkoDpjr/5/UjMprIot5WvBykXvqO5VZNPY23zAZQhdw2aQ+5pDtoBTu0Kbv+w73jMoEF+SQW5Pd3cQJEWZV44II368mZIRWry081T6V1BTCXywXZGK8eEgFlAXu026xYjkE8LZjNJGEQSCoGPZcQhLUZ5PK7aSVPVikBBpq6NlKo+IFNEsCAk+kwiNxouiQ/fO2ovHRkAMI1zis5p55yXFo+ZSiqEjQHIpT0UhSPSKkYpM7ntEpbwCnt8JH0Oe1YtirIx8MpGYnH4XWko/lQZUrBnTS1wnUsHJm4YMrvlbNohXFktr7UFKVSyQCwYIxQGwTdDghiYoH0bHegs2BqXIAlQxydSb1XDWz1LJQNvzoJw6feB7O8fXJM/u7lo/LYrRtQJ5uchZf3q++dlF+eGpFMmSxrcTWiDt0CzVSNbUFtDojArh6+lTEfQBVxSxNYYQ7OmxcmsvLBxJjyKyiCMlZ7C9DSic+ZASoLPlwOqnI1UK/aHYur00J3rSsKtlBDeI2UwYJZUc2HgR45lNXIRgkwOlPwQ8p2tVUXyZJZfvDGSfn5h9B6g+pOJguShRaffpYaLItEGNpIKkZ1gQ1tisC1rROgag6ApYGS097srcEpmc7QrBtTVpU/lQYL5796kOJI1LRr64yCQb4CLq4gwqMfCTQmAsmKwSSLKpWKkNUQmwEfRdUcTrGBlfJuNXVHtvq5hQdCZbyMP8w7Dz3SQIKCfQFsCZngQ4qkylVUQ9ebNVJ1wpUaMFgrxQJB6sJuK0Dlg9m1V9A8yFOgVOfjkK/wMpHbsYvgdWThDBb5z+aFa1c5rSsKRhaJ/lkaAnA3rUYdGAnKaxWMUrlUknQioWQNq80JqmcXEoA4zGtKmM5zjDjIXN5h4gCtNDE/JnJ35qbUAAo//EOIaRjwHq0S4/ILsQJjGcw23ZClqFrY1hoURptOwNvpNAKqIPwmWCCNgJAHsjIr8QG58VkiuFYuvlejHazfIpIJkorC1roCWLVheqQW0cr6W0wQoimF2EABDMhAWbNLxuG4cebkWemHmmDf9k2SyeXhyDEtQ/EUFqE5k8JAqfVLgmClaXZ49cAjv5mWUPrRIONJreVnuHKEXgp4ZEPEJQGECAi5LHJyCNaxFxKoKwLaMQuFWAr61VTNs1bj2VJrN1yVb3Dw8voDGOQpHzjkkufP7Gy4Z8HXUODBU0AYpSk5cm5Ejpy+IOcgbMezBuJo2ZR1Q0c0hBheMZlK5ZQp9EQygwAkyACZ1AZttYdIwQuUii8AnUrCXswCI7D1D3qgfK3AoSQrH/cPyYawAzEoiop6MVIiR5BK2WsEooW6wQTHdDVOa56C/dZv/ZZz3x37urdv2XpnyB/+NafTsXH21Z875Hx5NSvS9ACwAmVAcJFcQQbGM3Ls3JAcPnVBjg+MQ0VQVLoptRCOoaJD0PRoWs7gvgBknBgcNXq6WqUHFGISEXCGx6fgD8mAcSgD59RzlNuq07/5B5k1qn04HnPrS1GYdgdQ7UGusgFA8JFEOCcr1irpVf7hmREZU1Fy8GSloPRZFVBULkwrbT/VCas442MNVytp4WKNCvkHYcr82c9+tnXTpk13tLXFnoAt172BYKAbagd3Ok1TbyoGmTg70sxBcwYCCx9M3Qsli4zAnex436h8BFB9NJDA7wRUGIySg4EmSKjYVPloEHCZhiLxBFzUJtIjYgUQI15GB/TLLYjhVcZEYWJiGqEwE6B6GGQ8q1RGzKua0yyImCfRqKRuLXPxLqgDeMYM3RMjHyLMOAR2j3hdDhXP6+TQlAwnCpCr8DSlehRAfRXbSXZIM2vSLpY4UySurrHEiD2qa9cSBTN/9atfDR84cGAvTG4ebW5ugXWEb4fTZffDOkJRjHw+z25FvxIi+khJHzgkoyjBtmoUAd7ODozJB2dGwQbHZGhsEg6tiOoHKkFQqQG7wmiQOuFGNcAj1RheLtuo0EWtE2DraIlhNpqT/gmCISd5qEG49KIAX3M7YxnMppogWUHnVBIX9FXhgE+6o15uBwMVCqgrAPvu+Uk4+qId4C3qleHaIZ5Xo1TLZP18M9w/3z8t6V/LetOU+dZbb93d3d35UCzWchDUaq/H44lAJaEmRJwfKUgpdkSA6NoqDOAHVRCkaheGxuX9sxOgVv1yfiQuU5ivM1QkaRw104qlLaOhelYmauZ2YTwhAwgr4IVStw0qgq5YSDZ12BAoLiMj45P4zkPBCfhzCoekvvDHhjXIsMcunU0IMhf0wpkazrqTaTl5YQzyFALFAZtk5aRLRagX+DQXqddnUm3HPMqcZf2vCQX73Oc+57r//vs39vT03NvSEvtUJBK+y+vztTodDijlwQI4MkpDzSrqwVJHODQDUHzLuYfPENjVsfMjchjC+ukLQwLXQyXIE0z8aOtQshXSt5UnApX5MIrgieG4nMZkwYv1TwaC2w55jaEBEAURgngGs1XEtYDDeDjmQ+TCIPSdNsSdSMmHZ4cBxJxki2R1fGGgxccXF775mw4g1Xdo5RW+6jmwBTRcVB5WqsuvJsAssDpt37NnD+Sqtk81NTXdB8eLjRDancDUDGXSC6+zv+v7yARNdSaTl6O9k/La0T6Aawx6oKyiLhyUMgTgGofSgFr5UCkQ1A95XZakOknE8Eqm+uUclLphj0U2NfsQAmqTkqtaQgXBjh5ybBDyH6hboQC7dshVDGbHimo2j4qjslW1UX1J9U1fJ8fsHBvWWeHkZhTdrHSjAWb+0z/90+iuXbv2dXV1HQSoHgKodoAF+msL0ZRNlDDM2lwh0R3sozOD8s75aaVuMAGZFprAwA2/iGAlNKCrG/8r5LbyyzUWSDMcHwR2hn3iIvt4Cpp6q0s+PDcpfRNpehEqikpaSmp1/SYINJiQwPbMlCuANCM1DGCgVv7bbrvtd0Ctfg3mzLt8Pm8ISzRzurcmqywGFXyQy7wnR3PyypF+iWJht40xIaJhSeTLMghKNo14pgxGoqgORpLPaArEpmqaNkMqeWrBpJ+cfb72JJ03kBfydzld0hrUSzZWu1OS0HWcgWwVz4zLLRvMkipiUYhLNpSwwPJpBaHTnG5YsBZr8SL7hJ/aSgf7lrNbTGEgT4Yw2dqCdVCXwlbDAAZz5o6NGzf+gd/n38x+LZURqwFrINqqAVWqjfcSepANMmF6gvVryF/cOQPeLYgJEQ06ZUPUL9Y2H0x2MjIObfwE4sLn1ZoLBhNgqElh7AoNmssPMrtvBprKCkFbGrB8+CYpSsWozpS/8limGUJknTHGuaeAz47njBUf5kPzGQat00629Y29fPn1d62F47reUG+Z7j/yC/aSHdGHwpIzWhBgAK5scAiBp5FhtXnURlsNAxi07jbYb1lhL4+INJhd5bJqoZkGgbRo4IIzzWkWm9hIshdaEej3B3ESMOA5hFg+D6rWhwjNHhdieGHrlg0dzbIR905AxTA8iZiraqZGkEDc57gqCnT5knWHIncoMXm7E3gJY6mmBVuwBBCAF4bNgq1i5BxmlQyAQiZPfaeFFcQ1jgIFXf7iENQAzfLXY+J7yvaZ8bLR2tUwHIpaZeh4azSpFjpM4+KTo2JHrLG0KYpx2qwGt2EAwyyOdlvgCtoA0A5uXIGQznDgqVRKsRmCzIVgbHDYAHj0cCxlABTUQB3oxk4FaQLWofHMJGZ3CaUWaIZz686NbVIpFXTAOIRcSir1BSjpZYpTEEBv2rC0FIJqgUHnQojdKha7TCM48PFhLC5jHZAWqux09jkPlHu9Au78ILpMcUtp7jW6ly8l2gtP7jw8uIv4FODKVjZccGFDLDHzOYBqGKObUS8VOgMvFraRMFnw6jVQBiO4IKvM6W2yDjtYmt3uUANUgrohiak733HMJkHZtBVqjbJd9PglHUyZhrEflPae7BPKY+KULvlj8TI+acQ+FYn4QX2wBNPSHFPgGMWyz1Q8qYzyyrCXYiUteMZA/RinPgrZjktFHtj7E7TnYLiXQKC4AoGEyQTBUqOEVFex/gxYV6Nel1R0DZ5g35Xh5EvqRMqq6azuSb44OqgL5F7DCxOgGGSrFiiesTZqyWDD037xyjjmi2k8q/cPIJT0ls/0PJKK025LstkNo2DMHCCbAzB1jsOD/8pWC1N7w46ZB6gBDQOzWW0YyJkYqduVrFANdBCHt5aUlUL1pzYphg0WbunHhlT9k1kAZhwL2m7pavLK1pYQohbmsE8Q3PahTQ96sQVLNKpCZaZgScFozidzacEiACgvFbXoKtRbz3pRIpF8CdXFuXWSoP7lKzkDLbqjlWrVh90aZaqcgeWxSkTJVXbzqHisJwGYaQUk3Uw+oDghvvmCkZIzoB2izVKbjNQwgAFAsyPPki6TyBpnwIbm0raeThz88HxNXiPYlpuoIOUby5Dk56Ag7YOm3wfW3AJKtb27RcI+Fxa/IawnIc9diEsadeDmC4wiwy6c5z1ZblXWzHNmxpJg69DOMtQsNH4oG9iNDewvbzQDKLCfk0n4cX6MgCYTuDeNT1EBSMV2XbAlQKueAzQOYAuWf5mLFIspj1kxEaBCEgaGCmjpdBpAo5y2PJDxPbUa6oXCC8epgUmxviRirk5Aq753+2Y50j8KasV+gR7HrJdruGiuIwDWXu3LVHxNn66957NtUOwQvJHCAS03iuVOmTaHADD0PTy53ebToG+gVAAhccJQoloQwLjgrDbJvHyjQQ0rCrO4pWEUrFp8rXWXr808Vwg0Ul4bDAPpIFEE0OCyphaGVTQcXl9W0vM4Pl2Ld1+Gg0gZyzTKrgoWDowgTcauS1huOcuq3Ko/pM2lCQ3NxujgwSO7owwrDpvsabbKLZ085xaPcQITG8pV8MwCoPgM2aaetddXjaxw4cTFPsrgvKvRAFu4JgtcpYBP2awIANDMWc04seuFZpVLx22tk1WR1cc5PZjJCayalI1yFQHGa+s9UTHN9rGVdoTriMLmbEeLVXa3p2VLdEg67L0AFeRdUCuPnK02l+3mK05w8VStH2rf1duu8AVTb/V0wwAGcLAAVcgV6qIvo/6zoKIaoAQwWTG7dCk5jMAqwSSVMttsoxeV8yJvqlYVX4uv9CKzvsq3sf7kahbIV2F3GWAqya4Os+yKTki7/7xETOdg549gcYINH4xNmE3qmfRMQOAV1ld1oVkHH2gYwKp1vOJYqQkyLCRoCEiKRQCRLVJBS6WsBhRzU3fqbImxK+asb73e/mqaW6O9XJ/Q7I+9Q1TRk8gPc6LWiFP2tZRlT8uUbAycl6htEJGix0GPYEUD3QoNH0mnqKbgoj11C6uYEONY7RXdOBZ5pVmk8saGbEXFK4kSZ4xYBFessKYHY4OvpAtbxU5ZN1nNQgFiDoBCsRtr7VjFENnVUpG9rVnZGuyXVscZxKS4gP5NKXanHLgBKr6bWs6E/FV1htEz5dmcV9wZ8C1gahgFwwxwprYk19ASzMwMizA9prB+MahmqdWKm3fdZsAY+2RppD92S0naENRuexRyVWdGeqLD0ursE795WJyVOIgSIhDiPkWdVLwJxp64WMDgMK0+OwBhUJk2DGCqJXxRUA7VDcVSboYFYo1SyVUE2M105R6oDT+HzArS04Llic1NdtnVWZRbmsal3XtBIpaz4jDIArnXJTTw3HAJiYpPBSk93uoc//CqpgC13GcurepBw0YYFIox6C3UYXFNm17UXsRMmCtXrWpb1m1m1DPRkpUBUcpYg1LxTtEa2rjC70jsEJT8Dhd2v3XKllAKgBqXDcEhCVsvIFbqGJatwALBEWgzQnmD66LU5xFGnBvPUqgZptLovgIzouDTQBYJOcqC5R+117Xf78WitgMWLOiAm+mSHtAiO5ke7cYIKX5bBVaZWEO1ye7miuxsy8KtLSOt1lMSNB8FqBIqcAn1VGrKSHqk9Qoqn5WoGC6p4BJPqJqomUMDAQa1goGZYIWCO72Bcnkdw+viACQ3hXjgAwIqQxYIbKkYGzgKb6PtUYvc2p6TrU2j0u44Jx7LBTC/FojzKaVi4ExQy1ZLHP2rdXuF89MGAoyZczZIlmiHq1aF2nK4lZFl8kPFKRe1r1eWqXp3jvBck3W0IrcCEqNUC+gn+E9JBJufbqFc1UZ91aR0+M5KwHYaO56Nw9KDxkhwaIHtlZhzoG8wDcfsT7HDOWWw19dGQvsaCzDIYJxIcMkALYa2Bm8pQcUPVRRUTyRUABKTAhrPU+ivsu610UsrqoVmfHpbGchH6G8eU+ukdFeY1QVgHdsRtcvuVrPsb0rJBv+gRK1nxYlZoAkzQK6Fkv3R5owbpJaw1GMH66RiQsOVf2vAXVFlV/9hGrogNUzIZ+b1+iz+riUVMA5momSPaoYJsF1sPXE9zDAJpFlvIbI0Q7w2E3wjLXJLswPAKsqW8FlpdpyFfdUoFuRzkL2UOyFuJRi1zFozS9IqB5zDO6u1WbUeXVvfgDwdbzm7aCzAFmw2akFNsg3+gvw4YIRI/RiDxTGGF+OJ1tuF6bw041kw37Vyke2DWGBBHFkHBKtmxLvY1uSQPe0ZhDTvk3bnIOyr+kGRYApDFggNvAYNTZIVgmZbQiJ10anZi2vyCOBCAA2khlGwekXrYrqArJEgs8Nch+uQJSwbpWFajQ2PZ+Q1Tpj0MgfqXpsx8RxPXzXsVQvUpaq/s0WreaBSM/DlCXps0h0CtWqvyO7omHR6BsRn74XvzThmgGgDN8OCMTLVC6aKVoKup30kVeMv+UP2rSkvLzUMYJhFQjWjqOQlVbjcCbJMJi5y80PAVTBb0vIaNkyH/2NTwC1b4T00CPewRJ5Tey7qgnlweq/kPZVFg/6gfsoKRdeTFEerFTSwsBOEBKEE7QgFZH+bTTZCZ9XiPS8xW5+4jQGwQLhDaSMD1A81r2ODOt8GVfsqZaukTjSLpmbFcsHFYhsGMJpAUwYjZariZlnNVNEJq15IediE2WEmvaUzBu9pK+Jm5aV3eEomEEguB+MNDvvVnCTwhSCw6XQbRcyJrpBbfHBlyyKQnbs8Inv9b8Ei9BTUCjRcZPP5Zs/SO565npJm8YzN78BWklARIDUCYKYvfvGLQewbdCuoj9ozcMWdSMKBf2Z49vSPJ+Vn754UeIgrX8gDW1rVpk1D2Iz9PNzIppMpFRWHg7lcgkYIaBo1t+ZayGZdELAOclUTNnxn6KWwDxtywnNpeCIpR/sm4SBSluAtqAG2ulNGf1iu0Z0/N7/19+vinlGvtGoG+4YWsQlzpySM3aaCgUVSpFUD2G/+5m96sDHVts1bttzX1tLyiNvtvNNus0QNCLqrlThIXATJVxBMd6ogQ1MjCDM5oryAOmMReXBXJzZeL8ng6KT0j02pyDVKoaxMrSlI05NG29lbLkdWVR/yKaVPB5oodNO8BfoqrEQ0eRh9EB5KiD4IBMHpNifvnR6UaYSNyiOSNKdPNqgSLHB7I0yVfKU64OLBWa1eaXw++mWjaRCWrmiSoUQSWmJAfIE1bFZaoaPbKBXbFjH5tsGCI2jYR44z1vrKAIYoOXZs+Nm1efPme7HFy2OIPXE3KFcHXNDs1NxnMRucnxYst1MAMfpBUhfE8QKJSsOOPjWakF58fHAza0f8rq5YQLZ1RTDoKYRyQsC4KUwW4GesY59W1zAw9JdLlOUY5I3zOi4uB6FS6QD7Y/glUq5xBDI5Ako1Cnv+AuRCdrxaB6STCGeDGBEOh6ZaKIfeT2qUZoXfy5W9Fs9TJ89VUfWCQxfH7WkKBv0jN0jOuksMz3bx+DrF5QnCHNuhJmdQoKsWL4eCMUpOM/a85t6Mn8L+Qff7fL4ebOPipu5KySXsU/SURv5qdxlznc2Z5VDuYuPpfnaif0JODMUlgBlcJyLd9HS3yS2bRUYR7bBveFLGsGVLDu7+aqPzKg9lHjM1xltJp1wbFpc7vCYE4HWID8aPSbhw9+L5/umCZBC0VcnqfB4UTj/PPObWjWdm0+xds+eu3VF9beqPL60RXxQ9iSlVglKodEnS1iPi2CJ2/xYJ+pvFicmY2UIAIlUzwwRPzfAWCzDTH//xH4f27NmxZ9OmnodjseaHIQPtwjpjEI4ZenjBQ/SuFvXDf2l1G3WG3aCMzlAbgpwsazqRkRMI8UQZqTvmlb3bNqJyFQSLm0Yg4CQ2Q8gooBEsVBu4YOLS5HXBb9InEQRXKWJpa3AqLR9eGFbhLYt8lQEoM95gRJtQTaGSYTbVH8+eXYtHfBX0awnwqBkI604gacpLA8QylqPKhgernzEpmAmqPWLzbhZvMKYCv9jgUc8VCtVqzIiVk4huLIJzL8JkGizQi0BxW7Zu3foAIuQ8Go4Eb/P5PM1YsEYYhhq51+tkc/qZP1Slr27XsoFz4A2ZCa6QKjgJZSWvdQyBdBETtTko9+xuUzttxBNJiWFCvb8DoEIcegTNB0vFxganhmUC0aezCHbFRCcvxZbZNnQqHSpUWXMUcPpe9cAa/0NZSrFwzHDpM6p0chA9KFcWAJw8QJWVzVK27hSzZ6u4A23iciPAjApnqpuumog+Z6/rxPbrPgABUweXUDDE8rL/7u/+bhcC8N7DQHHYl/EusMBOaNXt9H0lc9FpNtvqibqvha7V3XaVDpU5MKqUhpHtybGcnBobURtGdSH+/FZsbNCCkOFThTRChScRKA4KXhhIMjF8phZt6yta37aLAMVLF52qf3ItHdO/kSo92p4ZCDFVNHmVXJUrb4RN2hYx3NvF6e0Wmy+ofFLnxPKo74L5GwWphfLDrJDPPa9bEH3wToRdegyguh8scBMsT93aTUznAqI5f3br4Kx6W9U7q+UJqhKOUVCfTMk+6NbfOzchGQCQDEKBCv3D6DoaMVfu0XXQBXVV5GycYwlKZQ5K2uiUlGmXiHuLOAJbIXNGsWkpQnticUF1wTKaDzFlVk3xzDPPbAXl+m9gg/c0NYW9yosapJKyjLI7mqnaMkqaefbaHmgnUs4gtdDKN1i5zaMHi9BTKVkKr7RyyK02UwcA0aC7trVffOlcGCfT4ixYjTBlY7wnbJLyWsdxxfCr8AAlBDXJGhvEEn5QAuFWcbodVb9Tjr1+ZvElz7mTqzizFAwyVTso1x1ut8ubSiehiTbPLDRfziJiTnbr4keto6tCKepMdQSFWqoRyoisU0afULej19LWF7BmhoDBR9gmIIRDzI0blEUH5KssAsQVS53YiiuAexhoZgq2aP3iDgbE6/dpglLNSDM4/CAyl55mnlIyGPklLVBpvQBTeqz5FWcMA6l6qA9Aoqja0gtcW0/MNL++WvOerL9hjRwvXE+SDdLoCvWF+BRBrXJGmwoUR3nLDht+r/kwvLkTeLEQFNDYpwC5cK7Lb3pNyCdDVmWQYtH4j5amNcNA7iRbO0+wXa9WqMvvxqv5pOI81eGqHbN8wApUi5G2c2YfYnp1YAbdDPaI8USUHJ/5GMIETAN6eQCKFrFVXWAFwj6ONTBXrR2kWbMy2HzZ4gZsYo79FvEh1aLejDvJ0l6Lgj+BRopXPwmYL5+b51a3B8i+lfzMKaCiVHoJrIJAcQUjhkX/dmgcXGIxI0SV6YwCl5WB4jCG2ptba7qgj9EkhTIbZc/VreZMboqCaaXY5RVXBBuB5EJobu7+RVstOnJks4zhpWOuEnDXj7w20z9r7oCTFUZ1RJx0fFySs8CpBtEHCwjES8TQjc1pOg59cAoQyit3OAKRn9pMWtE9ZGEmSBWy6inh6jZZAQwUijFrrwxi3EHKZ0NMKVqh1tz/ae5MRw7Ka6RqBBteGLWEs7rVvdFzIxWC5S8AlTeiAFUzjDOxuI4AcV6wQKt5UtmcwVYG91GRSi7VOPAsNBpzZpEL3bjQNWVbb9fssrYZO4FGwKF9itJVsFG7omwkkOq/VhMslO+Ndg3dgq7hmib7hiyLZ0BxqkoozgJLiD+fh0xVQZxUO+z2bWYGijulhHazCZtxQa7iAinzoWaeZtjIAHkBYMxO5ai/r8ZfzRVnFa0rKxMNIIiwK4zKpww2mkH805yKHY8wQbBAcCK4Likc2S0/N9NsD2hlCdUK2m6M+KKfZAnCeqESVWEtTWUHvoMQ1s9LwHQCHZ4BqCBJ8U1WACK14gHP4hvrpRWYxSvlOPscYNWAxeWrkMgVWUxtFrmqRVohr3Gm6Xbr3TBy+awKXU5c2aAhxqZXGmxc3FPVWNXi111m3KSBC87cDSSPJZs84syXyrCxEj+AAourCiIPmsfB/lqE8ehNZphBqXXDHLoPlE9ROjab4KpLPK+oIUDIS4xTwcmdHvu6Gxt32BCAsf6cdRI9NjjdYtcHcVWw3gX3NJpSJ1MI0wi0EYRK7QF57vpNtTeI3xzlGgj4W5+riBPsLwKdVbPkTD7VFXbIVX7TabDDOGzS2JcIJYoFaAWQmmxF51tSsDmpVg5PUhZjbFsYFsNWTeBrKdg5V5c756HV/lFrXGMomGqA6hRMf1UH4D0DC1WqDbBRpfIA0PL5HBw38koVYkeQX+rfeJ9ioaziek7AkdKhw22Nifoo5Y6GY+qhSlxgxt4YOYQDKFaaYC5EK9iEBOUEVAtTuIebr0KOAhWqgNIrTRXyorpBryPy2qXyLOPWM0I2jUCKtk6x+u4Vq+cWEC8XsNUnpYl/FnvmNPKmvr9xnby6Mpjqwov/oPI18oxLkABmblDymppt0ssb+jUFtryaHNSoGt3X6mW19Sa2cQ6nN2wHCMDOaOBIExnumJEVLNdU2nHM3TKS4jZdEAdmgGYI7gy3xG5TvUWWxqTWFxl9B5uWUpZSwOAds33K2wgX7KakgFdydos19m9hv7UfRM+roQSgWQG+0tB3BVFp+EjD0nwy2NzarrjoK2dHlQe3wrPC1Ys7l1GRy6C/Kn4FlIOkaKR6VPaaQNl0F664Yg3NQNMEDQLKVAK1Qhl26zkjgoXlZqgW/IBFGbqqEeisPlEAY4UYGpzUiVTpksRT6M4r9SiBVwY6K7aw2KNfEPHfq2aUXF/l0wqgAFnFsUlMpROgYY1Lq6KmWNXqofcIKM5EFQsF0PJw/+IyFSkZgaZiMlQHQemj0fGzlE0xEdWR8wzRqlVVUw+d3WyJtaGnSIDSEZOffgMZ6QD7g7BeCWMJB3G+QKVC5l6wQB2D3iCFUgI6IoEBGAZkKqW7gnhRy3FpFWeHgIr57xaz7y48CnFDGzXgvHZk4ewSZ9Wi/jILWVSVoB5R+G2IkL+oGlx0U42FcoAUoGDnrRxvyUIJNoaAKmTg0YMNrtr9cm4yIdiXHe8sugv24IqvYF2NPczB0bqkRkBN5Y4yyPrYCIKE35jQmAtwPDFkA5xDOuF4ksEis9eEEAHmM2oWaIHEpTePZx4cZv0c89B5sd4E13LrDbnKEobcBXBBw6+IoS5Elad2SyuDDZfiqjyFbVWH1f2DMTRXSiU1c6sH2HJbtbq1uyi3mrxGyuYARbtzW5vs3tiMbYrjcvjMhJzuHcW2ythvCJt/lmByQ82HHqDGNEdTLV0CqSgtyQLYb6k15JJtcAje2x2Sre1NYi/3iz/9IRxv+yE34TWAN44e69qI177rG1yjifXnlnAMVmg2Yc9GaxuQylkj+qCuG+h3UEofx1ollpEUgbl4BrqEsq58qxIg6wF25Ueu1R3VTuJWMtyVrTnmlu7WmNy9c4MMjMXlxLkx+fjMADZqn1TbGefZuRjO5e4xxKGvG5e5rcYgcvN3J4po8jlkS3tQ9gHwOzpD0taEHdqwZ6UNCuWpwUExp/QWz2SFhA4Vqg1NivoByOgnVf/6RqBRRuG8yOQr4KF0diHgV6c+5DjkPIyUBPk5Pzg4eHZycrKfbV0fAJsZFeqlsbcOdDo2vJ1hv10CvibZ3hGSh27thA9kXI6cHZUj50blLIA3nS3BKwa9jA7XDhs6I22jzwioGAh0DgHF9WMKDbPg0qzKoEYcvAQ0H1GdBQFNrIiOE5B93UHZtSEmHS0RCWCzUoeN034qEKicYD5koSgXbJuA1LbvzL2RieWD/RUviMkBKqZbhnqA1haHpDLxQ8SvO4GzBP7yRfyaGMOWcG8DbPNTnJ6eHhgbG/t//f39P/34449/8cEHH5zl9fUFML6h8JiuBRzha0p4WKDMDYW9Egi6ZPumVnkYPpDnhscBtgH5BCz0AjZmjxcBJtzPjQpUYDc0nlSFoGDi0JOj8JvBeHmVLEU53mILlo1ggbvgzLujOyrdbVHEooDyGI6+ZOHMF/9VIu1gvqQQyuG2KlzVrldva9AXyiyNS2H6ebwMHoCsg8F7xMiekPLUC6Co76CN0KWp0sngl5c4CYNMXEEAwZHx8fH3L1y48LPTp0///N133z3+93//9/S2nkkKYHhguWXNZHStDxRYwJpcIEUbwEK7mjqFcStGppJysndI3u+dlpP9YzI6nZYswguYIK/Vv8S1DmDn2xAFxwvH5LawR3a0h2TPxpj0tDVJK367qjZwtfsJrsunBS9e/rHlXkFxVgCqmHgfM3AsKdnaMXnEmmW+D3ovhjjHxWUmUi3qKwGq5MTExMdgg6+cP3/+hffee+/I9773vWlkO29jFcDwFmpQL7PwtfAYG6A2nYczC2iaIkfYMlw247Mx5pM79hgqcMrx3mFMDgbl5HBKJuGcy6UWgsSMtxLenhILeGR7q0d2b4jKjo6wtGOzea8HBnz02VO9xNAFbDH/ENZrJ3G1gDvvMkqiKQ89V+6YYs2zzH9uXVUzKD8t0AqyQGyBnYdMdW54ePi13t5essC3n3766WHkdkXEKoBBOEMsEO1mNLcK6+0XLRIgw+KjKAuPKQWQhdoF8hr8IMHmDu7bpMI+fXxuWIUDCHsscs9Gt2zrismODa3SBcfcALzB7Rc7mc4AS8NLS29rp48UY2bDlf6BtavBn9/8qAboCmMRnfIlvanw6sxJVbmqBLlqEHLV25CrfnLu3Lk3/+Zv/uYcwKWCmsx5YIEfCmC4TkGEQsMCt66PSzPra9Wm1HUp5DdgjWGXwOrCAafs3BzD3t3Yi7tQxh7dTRIO+hFnAasGyky82t76DOq6YK321CyoWNn6Wl7cECpbobujagPAIwvM53KVqampSYDqo6GhoX+hbPX666+fuliuquuGKx4qgEEGs+JDkF3/SfUz4ktABnNDf2UPYk6FCD2x5ijkMk630QUXj8V11ytsIJbczU6ERvAaucnpeG4kfWxoaODnYIEvvfPOOx9+97vfnVyNnlAAA389A7T+GELcfYGAp9Vux6SbQvAlPX299DwUCZBVOFtESC8sQhNBnF3iND50vl2fiePDDygXvxQFw0vDn5w9418Zi+4lrIcWCoH0VCH0yXA68trZj3/5s1Onet8/dOjQGB66olzFnBebFMC+/vWvn0Kgky8//PDDW7q7u+9D6IDHwuHQnW63pwnWDZgD1Igby1Y1X2z+a/Q+9jhD2ZFNVKmWYhQ4j//rN4HVKcsL6vdoNs2XBpIZYgAUYLmRlUghmWs6H0+FXp9IeZ8fGDJ+8aOX3hx97rnnVhVU9f03b3d+4xvfCOzYsWMvgso9SbCFQqHtCNXksWJbXg2w6ltSn9NFxxnEU2W0aJ9XG9BddHlZP/MFrEfCbc7vp0XCvFVfWr7IgkaQZbDI5uZWyGirkCdqwFnZ1MC74pj8K5jhjEHRyhitzHt5+VcAGtp4JSs7YYCYFI+pd968WK4OhKw19DQHypfD5UyxeSSZ8f9iIuv98dlhyy9O/ctU76HnDi1JWF9ax87eXRPyZ8/g6Fvf+lYcX6/h8ybI5ne3bNlyd3t7+xOhcODeYNC/AUFRHDSh0R12PVA0NGXNpxo45+tvfY4L/CUTzJ5KESNf8k5M530fTCRCLw+Me18++ob9k0PPfjlztZs5L8DqKlEGwPrx+7knn3zyR4gVtnHr1s33t7S1PREJhQ/4/YE2mNhYZ1koIKf6gX/AVpXmg/IM36j5Oganb6Yr9AD7jX2JPiU7B4hUwDia+pAdwgwIi1jwOoL1RjkUn8hHT2RSnpcn4p4XPukzDiNwIInFNev8KwFspvHPP/98Hp/jOHEc8tr/uu+++7Zt3LjxIYTQfDwcDu9DDLEI5DVwGS626s5QHaPYAgF3zdo404b1ecB+46REg4t7QXIdsYyJSMnklmQpWMgUY2emkuHXxhLOf/5kJPvuL176sKFy1VL6kSO/kmT6yle+Ej5w4MCerq6uRyORyEMMrQkWGlCyDbTAAB7yJwXTcsFKCrsxZTBSLKVClURlh5LnrKZEJVGOILRZ5J3htOf/Dg+aXvnRTxJ9z10luWopY7hoCnaZTA3oSyZw7VV8XgM7jSHO2AHEGfs09op8AJ9NiA3ssqiNSC+H5ZuUTfftLJVnj2hrB029ymCBxUrEyGSbE8mC78NCofLj86PGax+dShw/dOirCJOzdtPlRn1FNd6/f7/tC1/4AsNw3oe4Y58FC73b7/c1I6wAdlu5WMfETlzcLPn6pWBQJ9Arm6ZBWKwnxSobNB2Hj2TJk5jINx9PZnw/PT9sffPwmfHDhw79l8EVDdBVfHilFGzeqmKFvYjPGVw8A3nth5gc7O7s7HwIao9HAba9YJth2NhDVKMOCgDDt1ahz5vdDXAS/YAI18oPG1Gdk0ZTIVEMn04mA6+NTlqfP3668P7/fv6nw6+++qoOHruOeqQhFOwy7Td96UtfioC63QZ57TGw0YPQr21ze9w+6teIsSvNA64/CqbtGEpUglbClXgpMDydCb81lQq8MDxpfvW5H61Nueoy4zvv6asJsJkKHDx40Hrvvfe2YjOH29vaWp6MRMIPYYeQLrfHY6vFI1OUDU/Umz2vJ4BNQ9HqGv82tp8ZRytoQcpJTlU8oL5KRckJGoViIJ4tut8YzkRfHB4xvXls0Hr8a1/72hyjvZmOW4cH1wRg9f0EsDm5RNXT03MQytxHsXJwKzT1rWCh0K+RslFG40dkPQGMmnz3+F8BYKN4S7Qm32CIAIa0LPszk9BXTaWcL02Oe39yasz2zlNPPbWmhXU1AMv4c80BVl/nX//1X/ffcccdW7D30UHq10DV9vv87pDDbod6DcEf6bq2TpaKpgfeA8D+K4K8TEilrJZsCol8qHc8F3htJOF94Xhv6Zf/+I+5wVdfPbTu5Kr6MbvS8ZoCWF1llX5t7969B9rbWx5vaW15MByObLNaLR56rgSwFsmJfI2y1T23tENk0Yi1SNZtYuBDMY3/91KxXBlMp0JvDk/5Xj41annz/aO9577zne/AlPbGSGsVYDO9r+W12yCv7bsrFmt5EorcB0DduqBfg3eYjh87c/Mi1R0z968SwNTKBTKtOkPQGz012H/uSGb0/R9kkrkX3/wkcQo6QrgJ33hpzQOsfkiwHup48MEHe8BCoV9reyQajdwFZW4b9WtU5i55b8pVAhipKkCVg4nxaViCvt7X1we79bPvPP30f6C+SguQ9Q25gY7XFcDqxwUqDze2vtnJiQGUuY9jJnqLkteq+rVFDesKAEa7dTiZVmCsOTw6OvomHCJ+fOzYsTd+8IMfXKAesL6uN/LxugVY3aAp/Rrktdu6NrR9ujnW8nAkHNkCyuZkKKj6RNVHjZ0pwrIEgPE5ggqTjAoo1QT8AT+AFfDLp06dehVOph+vxG69vo7X2/H1ALCZMeESFVQeXdCv3YOVgwchq92FzcM3OzQPVcpcHfSluvh+BYARVJSrqv6AcYDqGCjVy7BbfxF264cX8gecqdQNfnBdAax+LGvbEm7YsOEe6NZomXsvlqjaoF/DeiibjfXPeQBGUJHSVeMsZOmvQH9AyFU/OXLkyDvf/OY3odha6myivmY31vF1C7D6YcR6qAuUbTvkNUwMop+Gv8GtXp87yF3lKow4A4mpublFUSvGWYDr1gXIVW+QUkGueuuf/umf+m7KVfU9uvjjGwJgdd2h5LUDB/bd3t7e+Ti3hg4E/JuwWwkMcx1TlKtArZ4/e/bsK0in4AyRrXv25uEyeuBGA9hMF1G/BqvcTrDSfViaikC9cPKtt946+v3vf38KN93QqoWZTrp5cLMHbvbAzR64oXvg/wPMFzyZg8FlsAAAAABJRU5ErkJggg==;" vertex="1" parent="1">
          <mxGeometry x="-220.9" y="640" width="108.9" height="96" as="geometry" />
        </mxCell>
        <mxCell id="KrZMVGwemaGHYM_YUxDV-40" value="&lt;font style=&quot;font-size: 18px;&quot;&gt;Python Packages&lt;/font&gt;" style="text;html=1;align=center;verticalAlign=middle;whiteSpace=wrap;rounded=0;" vertex="1" parent="1">
          <mxGeometry x="-299.68" y="671.5" width="60" height="33" as="geometry" />
        </mxCell>
        <mxCell id="KrZMVGwemaGHYM_YUxDV-42" value="&lt;font style=&quot;font-size: 18px;&quot;&gt;NPM Modules&lt;/font&gt;" style="text;html=1;align=center;verticalAlign=middle;whiteSpace=wrap;rounded=0;" vertex="1" parent="1">
          <mxGeometry x="87" y="671.5" width="60" height="33" as="geometry" />
        </mxCell>
        <mxCell id="KrZMVGwemaGHYM_YUxDV-49" style="edgeStyle=orthogonalEdgeStyle;rounded=0;orthogonalLoop=1;jettySize=auto;html=1;" edge="1" parent="1" source="KrZMVGwemaGHYM_YUxDV-43" target="KrZMVGwemaGHYM_YUxDV-35">
          <mxGeometry relative="1" as="geometry" />
        </mxCell>
        <mxCell id="KrZMVGwemaGHYM_YUxDV-43" value="" style="shape=image;verticalLabelPosition=bottom;labelBackgroundColor=default;verticalAlign=top;aspect=fixed;imageAspect=0;image=data:image/png,iVBORw0KGgoAAAANSUhEUgAAAQ0AAAFGCAYAAABwjcqnAAAACXBIWXMAACO/AAAjvwGm+t7LAAAAGXRFWHRTb2Z0d2FyZQB3d3cuaW5rc2NhcGUub3Jnm+48GgAAIABJREFUeJztvXmcHEd5N/59enpmL2ktZFkgXzHEBLwyBCxCwNhgxweXbU4ZYo7wIcE2JCQB2wmQD8jiCL6weSEvBMj7I+EIxCLJCwEDxkayLckmr22OWOKwOXxpZcsW1nq1u7Mz3c/vj5nuqa6uqj6mZ6Znt76fjzTVVdVPfbv2eb5dXdUHMTMshh/nXnPr2GPN2SPJ53XEfBgxr/LhPIHAT2DgCWB+AhirQPQEgF1mngRQAZgAWgUAYL/KoBVtkz7AByC4B4MPAlgEgwl4jIEZgGeYMcPgGQfODBMfIPiP+Uz7CLzXB+8BVu3duumUhX73iUVvQFY0hgNnXH7DIS7T77HjP51ATwH4SPg43AeOIvDhAA4FgFaQcycJANLfmDlSGmZKtcIqrMhrbckVWNFcWGc/gGlmnibCNIAHwHwP+XyPX/V+sXXTxr0JXWBREljRKBlO/+iNh45UcAIYz4Dj/x6DnsY+ng7gSa0aLP1EohhxwYhstTd7JxhR85m4zoLpbpB/Dxj3AHQ3+fRD1FbdtXXTKU1YlAZWNAaIc6+5dWyuMfc8OHQiAycw8wYwfqdV2nUQphMMsCJLsiMJRtiyYkTRA67zIPoRgJsd+N95/OH9O27/zPkNWAwMVjT6iHO3bKnM/Wb1iUx0GnycCsIfAhjJFITtZDwIW4miBENgkF8wesN1BoxvEehLzsih19tRSP9hRaPHOHXzttEVE/4ZTPRKZpwD8JpyBCFSXJbIgtFuJS9XgVsRXJnxkEP0zw3iT+788MYH4ztZ9AJWNHqEs67adjyIzwfjTQBWRQbj8txApiCM55mCsGUrp2AMD9dFML7q+HzZTZe/7qdxAxZFwopGgSCAzrrqprOY8B7AP7FfQRjJ7eVKSfm5NsH4PLN/6fbLX78HFj2BFY2CcNbVW88BnE1gPiF1EEYqyEEoFLK0T5iXEISKvD4srZaB60EAmw//pXP1tddu9GBRKKxodImzr/n+EczOJ8F4VSsnfxACijN36iCMtdhTweg/106dDFx/7Pj01puveN2dsimL/HAGTWCYcfY12/6CfefnHcFAYhAqKnRKehmEUAXhMHE1C4aG6+/7Du886W+/emH8CCzywo40cuDca24dW+D6Z33GGyMF5V+ujLYbibOycIViMrQIrv4X6+OTF96+6ay5WIMWmWBFIyPOumz7E6jmfRfMf2Ae6suO3XbtvEEYFi+/pdXiuNJtzcriWT/4+zc/Gm/YIi3s5UkGvOyTP5ikmvedVIIhId/qg1zdvFyZOwh7zVXVjupc1XOu/LxKs3rLye/54tGK1i1SwopGSpy7ZUul0lz4TzA/1+zYiG0UuVypbCBiK5qZi6uina64Fra0WgjX4zy/svWF7/rSOljkghWNlFh4YO0H4fMfJTs2Z3TsWBF0QdgpVp3D8wShhqvEozuuqt0GzvUpTbdy/Ynv3rJaUdsiAXZOIwXOvmrbKSC6kcGCyOZ3bEBxNmRpnzBPFYQsVUkKwk6d0nFF9gfmCuR68+LMwdPtA3DZYEcaCdi8GQ4c+lhUMJAoGOqxdTur10GoabAQrqpWVMkeCUbBXF9YnVxxWdyShQlWNBJw++RNf8LMJ0Rz484vOzbHqsnD514EoSqrYK6s45pnabXPXGU7rR3f9fyLv/hqRSULDaxoGEAAsY+Lo7kdR2ZpW6iR1bEPAJBeh5dvubIPXOPt9oprvEZGrmoDElcC6NN/+L4vHBonaaGCFQ0DXn71TacAPNXJSePY6uG04Ng+wDeA+M89B7+3UK+Ofec9Z676znvOHGtyZQ2RczITrmTgN53dVZEuN7wEl1YjzefhKo+IFELVwlpn0blSwdRCATsRasDZH9v6BQa9qbUlO3Y0r7UlV5Ad27+B2Pmb695z+g+T2j518za3Wlv4U/JxKSh41V9gSw7MXqw+pA9CYagv0+oTV6GQpX3ScgXYYZy082Nv3AkLI6xoaHDuli2VufsO2wtgTQGO7RHz3133njMuz8rjJZu/u5qr/DUApyqH+qUJwliLPeUaNV8QV8INt131pjNgYYS9PNFg7v5D/xDAGgBdOTaAhu/QK/MIBgB8Z9OL9x/SePwlDHy1iIfQErgqjSybB+YYp//hu790crw1CxFWNHTwnZbzdLkESMBfffeS077ZDZVrN21cdFfyW0D4gdjugJcrhUQKwdBwjViUuEqmw42ecnX4ElgYYUVDB8KGeHRldWz+6nV/e/qni6Bz3TtfWvfYew2A2Y79eLv5uUqFrAvCPCsl+oxQ5lhRIy9XoSArV/L5pc+xt5gbYUVDCz4hemLO7NiLfoXfVySjG//urAeJ+WMDWa5sF+iCUDIWyZPHA8lc1SOkPj3c51Yc/83xQosAVjQUeM5n76iCcQyQ37EZ/r989+Izf100t9Fa82MMPB5pVxWEkbjKE4TyKEMhVOKW8kSf8yG0gXOl1yhqWLRhRUOBJ809dhSAitGxES8UHZsJW3rB7et/c87jAH0nbDdNECJeWOoH5gbNlf0TTnz3/7EPs2lgRUMBalaOTnRsyWmjvkmPHzJ/4Kae8SP+r0xBqAowSHnhT1IQKvZO9cDcUHGteH7lNAUBC1jRUMIHr22lcjv23ddu2rjYK34e+buSglA9BGlnyfwzBSFLVeKjg3gQyuf3IeBK9Nw4GwvAioYSRFjVlWODp3tGDoDfcKRvesS5SjETbvR9aVV1yVEKrqqsyD7HxXawAGBFQwlmHNKVY/s42EN6qE24jwsMNMPwWE4fHkJTZES0tkxc9WLGAAhsRUMDKxpK8HhkK/wvkqN3bMLaHpJDc8F7kjzg7zSvHiH1abkyakgWjF5zVbWj1Jg0XOloIpBi72UPKxoqMNxOMo9j+4f3lB/xERKddjIPV3l8rzgDi1u5glDDVdFOV1wLe2AOALP7zIu/GDl5WLRgRUMBJlSBNI4dK2on6Klnf+T7RyhqFQJifpF86i3NcqUyCDVcJR7dcVXt1h3XkTlvpYLRsocVDRUYlS6XAGmx0nx5z/j5/jlpgjAKLdf0QVjqpVWWqsRFNCtXb8RboSC37GFFQwm/9aPw57RLgA77byMUf038Rx/61gaANkQa65JrcUEon99Z4pWBq6oVVTIt11hWMteqV7FzGgpY0dBB4exZHJtBzznjsu+8tmhaDvgyhGJUzuXKcFvilYkr67j28V2kFkpY0UhEBscWChgAMV116uZvrimKyekf+tYbwTg9wiRvEEpcVQZ1QZjqgTn5SiYzVxUG9S5SCxFWNIzI6NhtbxOqHz1Sdf/z3M1bat0yOeND33g2mD/TMa0e+pdjuVI2k4erPMoY1LtILWRY0dAin2PLNhg4aaa68htnXH7DIXmZnPmhb7yA2fkOgPHQatFcC12uFJPDzNVCBSsaBhS1XMnAi8lv7njxh74lTGAm4zmfvaN62oe+9dc+O98HWjeMDcty5VLhahGHm1zFQva4XMuVPq9nx/l/L/7wt78C9q/+7vtffoeutRdfdf2EP998xSr4HwDjaR07aRw7D1eWqihHTKZmkC8Iy8FVPQSx0MGKhgY9Wq4kJpwHovPO+PB194H4BjDdx8BeB/4o+ziCCccBdBrAY2kdu4zLlWXjGrEocZVMhxt1mbwFACsaSrAfpqL5hTh2mHU0mN4KAAQGs3hXR3rHLu1yZV6usp0MXLVDjA6DWB0jV3uXhhJ2TkOLXjm2PuhyOfagucZrZOSqNqDjqubVypMlPpmreoSknHOxCGFFQwm/k8zt2AqzS+5JULn5PFzlEZFCqKK0cnBVNZ+Bq0UEVjRM6Mqx42fHXI6taGc4lisNZ20N/9gR9PqBuTRcLWKwoqFDasdW7VagY0sNDe9yJUs/Obj2+4E5CyWsaBhglyuTuaqHIO0smX/Pucoy2AVXCy2saGhglyvVdWSukulwo+9cYx3WJVcG7KKrGlY0kiA4VDbHVmUV79hFLa1qhxgdBrE6XXEVCgrhGtHaXnG1AKxopMSQLFcmcFXzauXJ44FkruoR0nAurabpV4sAVjRMkB27k6ndbOXZ5cpScVW0k5qrRQxWNHRIceazy5VDwlXikZqrhRJWNFTwgbhjR6v02rFVrXV+koJQsXe/lyuXBFcLFaxoKNG6IzTqbxH3VJyu7HLlUHJVtWIFwwgrGhpkduxYVryO7NiS6XBj6JcrC+OqyiqYK+u4WuXQwYqGAtGHXJMdWzvECFOyY8dMI5NjCwVZg1DJNXJiLhNXvUAUx1UFu+BqghUNHeLep3Vs+Rwbc+yYafVwekkuV8pcVe0oNaZfXOVRhpWLJNj3aSjgoXoZOQufTqyYcMMgCf9H8zUvaiCFUcM7HRaMBaod078ggtD8pA9+WTS3gCAcphUoe0OoElY0FLjhvac9CuDRQfMYJE5631dnwRQLsGF6YI5VCsPSPim5WnRgL08s9DBGUJ4gZKlKfHSgvrzRC0a8QvFcLaKwomGhhh/PGtQDcybB0MV3UVwt4rCiYZGApHkMdeRlEwxVlmKOIlEwMnCV7Si4WqhhRcPCgDQTn/F9sgrGQB7uYzNXCz2saFgYkXWlJDaJadgMGjBPfMYmNTCwB+YsAFjRsDBg2SytpnlgziJEKZdcz92ypTLzwGFPdhveUT45Rznwj/EJ42AaB/NIq5bhT+vHEu2kL+fGd0s8xfihAVbkqdGq6RtM+xqu0TzZYtKZ3Fen5KYiidDIc2IkUwdhGq5D9HCfDnsvuQTEx6arnBfEIP8xAAfBzl6w9wtU3J/jsCv29rZdPUohGi++6vq1VdTOZPDzwTgBdOgzK+yPMxEI3HnoNPxjyo4gJHTOQozWZ4nE6ixVSXLsWDOtlPCho7yOTZEiBVeKcs2/XEmRPajTXLRm2n5VBmFRXI0V+sTVBD4HwEkZdsgB8W/GADmA7wMPXfwQwDcCuBEV/9tYc810b3l0MDDReMU12471PbyRwS+vonoCg1uXSlQWZxns05WZucayho9rxKLEVTIdbvT6gbkS44kAnQfgPHiVJh66+NsA/xOeeP+3gGu9XjbcV9E4dfO20fEVeCMR3gLGiSCmmCOUxFkG+XRl6bnKdjJw1Q4xOgxidQbGdWjALoCzwTgbe4/8GXDRB/Ckq7/Wq4Pqi2ic+6ltK+bn8acTK3AJgCPCP1rkZFciZ+nL05V95BqvkZGr2oCOq5pXK0+W+GSuccHrC9ehgHjsYfrpgH8t9v7VbeB3vRXrrvlp0a32dPXk3C1bKudcc9M75ufxGwY+DuCIVklZnEVBugyOrWqnG66R5vNwZam6QqiitHJwVTU/IK5DAaVgCPn0PBDfib1/fRFAhX7Kumei8fKP3fzC+QfW3sk+/28GDu2UpHQWxAuLd5b4GSeXYxfNdaktV3azUtJvrkOBoPNYOCbu5AdpxiiYr8L0X27B9AXjRbVe+OXJcz57R3Xd7ON/5xC9Hz47uZ1FcoThfbqy3FyVJMOfHFxzr0CVgGvpIR4jq/Mj/RKKyGuAkaPx8F+fjbUff6hbFoWONM752Lanr3t89r8B2gSWBQMDdBaWqsTPYkuZq6JCp0Tm33Ousgx2wVXVSm6uZYfQL+bRRbuco/sBfwDP+x4e/Ath1J8PhYnGWR/fdjoT3QrCswbnLFIyrWPHsoaPa8SixFUyHW4s3RWopSQYggCoxUAo1+R3BOUZIFyPX11wSDeMChGNs6/ZdiH59G0Aq4BBOssQLFd2wVWhxDKDWJ2uuAoF2bnq+7F0XEsL8XhVYiCkY4IipMNNBoATMFq7Fji3kpdV16Jx9tU3vRtMn0YwPzJMzjKI5coErmperbxobhquccHLxJWHmKuqnWHSC1EMUl2OSPsFaVbt55+J6TWX5mXWlWicdfW2vwbwsTBjmJzFLleWi6uinZ6vQJUSQoBnm+yMp2PHHOmzv8OeC8/IwzC3aJxz9c0XEOiaDokhcha7XFk+rhKPnq9AlRJCX+Sb7BTKFflhOQMMAtPncd87npCVZS7ROOuam05m8Cc6fIbIWexy5TLgylKVsguGIADdT3ZG7cnpaEcdAZevyMo2s2icc9XNTybGfwCotdoeJmexy5VDyVXViio5tIIRJFVi0E5zUG4QA62gtPdVCQrzn+KBtz83C+NMonHu5t01Jv4PAGuCRofHWYZpuVLBNdZhZeGqyiqYK+u4DvtKSRALLHBVCINJDCLlOkFh9X4tEOB/PMut5plEY37lvktb92G0mx0mZzFwDWWOFTXychUKCuEa0doycdX/zYvjqsIwP4QmBHUvJzsjnWcUlOfjgT97VVr2qUXj7I/f9HwAf9Phk8JZ4jUG4yxlWNUZJq6qdpQa0y+uLFVX+F6UVokhdFDvJzsVtoOkLCj0/rSjjVSicermbS58fBZAJWgwlbNE/tYDcha7XJmd6zCvQCn7vgwQgre/k51xG2qxehYe/FPpM5xqpBKNFSudCwAc37JdUmeJM0jJlYefq8RjmFagolxZ+imAaykgHocqkNtpDsoNYqAVlPa+JkGJjS6ktI/3pDmaRNF41ce3rQL40qDRopwligKcJXEJcJi4xprpI1eWqsRFdHi4lgFiwGrEIOyvBEHRiQFk2wobSrGSBAU4Cff+2bOTjihRNDymSwCsyeMsigqdEtmBBuzY5eIq2emGq6oVVTIt11hWWbkOGrGAFPKldOR48gqKwYZWrIKkkHb8C7SHFFQxFb7iih0rmfEOk7Ooybe2Y8caBFW/HTvmsWXhqsoqmCvruA7Bw32ynQxcBwtBDEo12SnzUwkKvQEPvXnCdHRG0WC3cQGAVfG/o/RHizmL4lj75SwqriwWlYmrPuiK46rCkDzcx2aual6DhBC85ZzslPgpbaxAo/pK5eG1oRWNUzdvc5nor0qxBJjWWcrAVdWOUmMGt1zZM66RporhaiJXKr2IcNcGZDtuE8RAKyjtfU2Ckji6EPkpbLTK36A9TBhEY+VKvAQ+H2l2FsUxDcpZlv1y5TBxVe2n5topVkldWVRDDNiEgNSJQaRcJyis3i9MqvIlQYHBRtA++2dg71sPix9nC1rR8JnelOwsUYGwy5Wq3SxXLcnwJwfXUgwz5IAU86V0RDDyCorBRpbJTlXbEUGBi0XvxdBAKRov++S3JwE+W0W6dM5ilytLw1VRoVMi8y+U6wARBly4EU3HAlIhBlrBaItBWK4RA6VvCGJmEhRd24SXKo4WgEY0qDH2agBjsfbFjFI4i12u7DfXiEWJa8z/gr9pT7n2Dn610jTX4KpWDMIfjRiE/acQmiBtEoNAUFT7iYIR20/HL9b2i3WvBFSLBpOgMuV1FrtcaeAq28nAVaHEMoNYnYFx7SFGuT6TUGVl60cKSAaGYLJTypf541DcO6Z8ZD4mGudu2VIB+LSIgdBsiZylL8uVfeQar5GRq9qAjquaVysvmpuGa1zw+sK1x9jv+LPmGjypDEidGETKdYKiCeQwqcqXBEUnBuGPwUaEn6+8RImJxsF71zwHwKHlcRYF6zI4tqqdbrhGms/DlaXqCqGK0srBVdX8gLj2GAws3P2Jd9YTqkVHGpFjUQhDKkEx2Ch0slO2LfMHAFI+wBYTDSKcltpZEC8s3lnkwLTLlfH91Fw7xSqpy8OVy8G1DyDgV8YKuzfXAF6pD0h00rGAVIgBK/JDEypBEdJ5JztFfiqRA5+A6fPWyIcen9NgvCC1s0gHMkxLgMPEVUky/MnBtdQrUAlc+wXCz43lqw88FYCjD8h24JnEINKnGhu9nOyM8FPaICzg+ZAQEQ0CCMBzo7v2y1lYqiLbLZNjF89VUaFTIvPvOVdZBrvgqmolN9f+gRi/MNfg45bAZKeBf7sOxUUj8gHol1yx9ffgYE1vnUVKpnXsWFY/HLtYrhGLEteYfwVB1VOuqqyCuXJxXPsJBt1mruEfJ9aOpE1iEelPg6CkKtfU0bafVK7iRydCQmSkUanQ89Q7t7aLcZYhWK7sgmtcpKR9YlwVf8MsXIWC7Fz1/Vg6rv2FX3MatxhrMJ7RYisGZB7BkGyYBIOhEQyh7cJHP/gDbDs1MriIiAb7eF7pnGUQy5UJXNW8WnnR3DRc44KXiSsPMVdVOwPXCwDAj3/wD3/+qL6YCOBTOtuqgFSIQSwgVQEr5Yd/FIMYhD9JYmUSFJ1Y8TiecvjvC5nSRCjxiaVyFrtcWS6uinZ6vgI1CDB93Vi+553PAnBYGHgmMYj8jVVBLQesIt3byU4FP8mGx5FLlFA0XnHFjpUA1ss27XKlSurycOXh5yrx6PkK1IDAFfqKsYJDndsSTAE5LJOdOsELJ0M5MhkaXqssuovPdXyulMJZ7HLlMuDKUpVyCAaAH/zoH95mXjlh72VgglYsIn1oEJRU5Zo6WrFKKk/DTyrn6ApKONIgz99QDmexy5Vy4XBzlZLlFgwQ4VPGCtN/8TtgelG2gORounSTnUJaPfo5Bve+Zl2w0RENouOVByDBLlcauMY6rEuuXFwQDtUK1IBAwP1OM+HSxKc3A9yOG4UYKAMySCoDspMe2GSnwE/ZNgOohl9W7EyE+u3vmgzSWQyOzZ3G4jXychUKCuEa0doycdULRHFcVSjfQ2gmMOjy2z9zfsNYiYJX4akCVpEflpsCElCPLiCVG2ykEhTE91Pyk9sG0PTDQYUDtJ9sJTw9rDYIZynDEuAwcVW1o9SYfnFlqbpCqKK0Sga6Z9at/5Oxyt53vhTA06LHKgasRgxMgsIwC0qkXGEj3MUgBkp+Mn8dv/Z+TudKxAWAhfsOeyrgjw3dEuAwcVW0s2xXoJR9P1gQ6C8Tn2r1/fd1NhKCDYDx7B0p19SJ9ROnLE/DLwt/AMzRkYbn8/qhXAIcJq4Sj2FagYpyZemnAK6DBuNrd37qbd821tnzjtMBnBTsED9AjqYHNtnZbpsV+4XtJwhGhF+wH08Fb/JqzWmw94zo/gaP7sZZEpcA8zt2/7nGmukjV5aqyHaHieuAwXig4tPbkyvSB8wBGSSTAtIgBuGPSgzaaZMYKMVMwU/Zto5fuOMofo1jgbZoMNHxKh/p/3KlTDXq2IoKA+Qq2emGq6oVVTIt11hWWbkOHL4P/pPbP3P+I8Za0+84D+CTzQHJKQPSYGPQk52Jo5/WZGh7pNGaBBUrD/1yZWFcVVkFc2Ud1yF4uE+2k4Hr4EEX/fjTF37fWGX/X07Cx5WdY9KIgUlQIgGpEYMyTHYq+Yltt+Y1gjtCjxYr2eVKcRd90BXHVYUhebiPzVzVvAYPAq6+81Pnfzyx4lzz70E4XBlsAIxn70i5pk6sv3QBq7FhEoPE8jT8Inkt0XjVx7etArCyb85ilysV5liqvsQf7hswGPTFHz1x+pLEig/++akgXBgL5CBtCsjSi4GCUxI/5mMAwFmsN4/qm7Ms++XKYeKq2k/NtVOskrqSqQbjUz9+4vRbeNMm31jv4bc9EfC/DHAl2LFjI0kwWMiX00D876wSDION1IKhsaGf7FTwE+viKABwGc6RgG+XKy1XNcnwJwfXcg0zmJg23fnp8z+UXHWzg4b7JQDt5y3yBKymTu7LFV37WdrW2U7d9lrc87IRFw4fFf2D98BZ7HJlabgqKnRKZP6Fch0oHoWPN9/5j+dfl6r2gw9dCeD0/AFZsBjkFqsiBEVsnwmee7gL9o9kJoWBXjq2ZKcbx1a1okqm5RrLGj6uEYsS15hvBH/TnnIdKLZVPPqT2z9z/n2pau+58GKA3q0OuCwBK6S1AZlXUCQbuQRFbD8Df3KOdJmd9pxGb5zFLlcauMp2MnBVKLHMIFZnYFwHg/0AvfdHnz7/c6qBrhJ7LvxjMC5PHZClFwMFp674MUB0lAPitb1zbH3Qlc6xh2m5sgwrUGm59h8zYPpIY9F96g8/df5nMwjG68D4Z4T3LiUJBgv5chqK/lEFpMFGasHQ2Mg92ckGfgDAR7rweQLC1Uk+Z5F3QjkcW9VON1wjzefhylJ1hVBFaeXgqmp+QFz7CALuZ6b/45H3iZ98+u2/zbTzngvfAcYnATjZAlZTZ7gnO/W2W79HuiCMR+vncRY5MO1yZXw/NddOsUrq8nDlcnDtBwgPgfk7hMqXfvjEPd9PXEaNGyA8cOEmEDYByBiQBYtBbrEqQlDE9hP5P8kFMJ7eWRBB4Y4tNWSXK01cY82Uh2tvsB+EnxPop8z4H6+CG//nH86/K/XlR8zaX05i/sJ/AvFGAMIxZAlYIa0NuLyCItnIJShi+0UJCo23RANpnYWlKvLfq0yOXTxXRYVOicw/mesjDOwG8FOH8DMfvNfxnVl2eBbsPR5eMgZofzMzRCNSFEu1qshGlDuptxvRgmix2KL5RVd54TH5PvGBMcc/sN/xZ5XvuvhkTuMPnv8sgLYAdGxiQJZeDBScuuKXWD7hgjFhlyvVdWSusf4PBCAd130AthHTDX7Vuf7Wj77+N7DoL+64oIon0rtBzqUARvt3djaVG+oUOvopQlAAwJ9wGTwW32cIliu74BoXKWmfGFdF/6bj+jhAW3wHn//B5X+8I/dQ2qJ77Hn7C/Ak+kcAxxdzhi9CUMT8vGKgsNGVWCWVC5cnYmH2INQLBAv/SzUyBqEKpV2u3E1EV836zWt/fOWbDgIALlMegEWvcf8FvwuHPgDgTQCofMN9KV2OyU4Tvwk3zGkbiwWUYbNtJF0QRuIqcxDG8uJkJBa5uKqaz8R1F4OvOPI31S9fe+1GT8HAol/Y+/Zj4PF74dBbEbwCwk52puCX2Pa4C2Ae3Hk0Xk0w2IzXyRWE8j7x5qT91ILRKVZJXR6unIsrAXsBvnjHlef9q70EGSDuuKCKwysvh4+3AvxShO+LSQjI0ouBglNX/LLwj/GbcMFYAHhlpJocb8pMu1zZaoi/1Kg03/WDv3/zo7hcUcWit5i+YBxN52RU8DI8yXk9fPkO5wGenTMFZFkERbIXLx91AZ6LZEmNKINQcQ7CmV4QAAAgAElEQVROCkJFhU6JTCyTYOThKstgHq7+fQ7RG2657Lzt8VoWPcEdF1RxuHss4EzBb04BdApQeQEcHlGeTbs+wxchKBKn1G3rbPdMDNLy81wQFqJilyIIY1nxOnIQxo4xEADNmbxnS6sxJcjD1b/Rc+kNOz7yxw/J1rPh3Ar2Hflk+DQFwrEA1gK0Ej6tgIOxxN1LB+GGTF+huEF5vIPVNphHQFgJpknAX43D3SPBqII9tO4VKcvZOUvA6vgVIShi+3kFRWxf2XbTZca8iog6CCU7UkZ4/mZFjbSCwZJgCAXZBEPDVez37Fx9Yv/9O64876O55y72/c2z4PlngnA6cPRJQFscRGsU51V+BB1bsMOLD15xlw7fFb+8giLZyCUoYvtd9G8xfdN0QbTQOivI0aMKwhI8hBaP6n5xbQJ8/vYrzvs8rog3Z8RDl6wF8ZvAeCuAqdjdl0ONvAGZV1AMNkwBWXoxUHDqil8W/jp+yvJFl5gPxsJLEYN9WK6MB7NKIHrJVdFO2/4csb9x+xXnpXvzU4A9Fx2FCi4G6HwwRjPtOxQos8OL7WcJWF37eQVFbL8sgiLZy9a/My4zTyNWVQqgHi5XRo2oBaNTHGNRLFeJR0cw8JLtV5x3i4K5Go+9axXqzodQofMB1FLvNzTI6/BieiAOr+BXhKBInFK3rbNd4r5hOuAy6EESwy9xuTJ/EEqGpZ8kwVDs3fulVY99vHHHla9PLxgPXXI2qPIpAEem3meo0A+HB8p3ds7LX2NjWEc/5M+4BP9BgNRBiGW9tMoAvW3nla/7z3ipAo/87Up43ucAvE6pkUsChjNQpFyTH6RLJShiugjByysoYvtd9G+v+wb8W9chetBj2VirUm+WK6M2Svwu0g/uuPx1n481pML0xU+Hg68BWJ+q/tAhr9PlFRSDDVNAll4MFJy64pdXbDU20vBnTLs+/AfBiul8VRCKxxYLQsUxmwSDJcEQCrIKhuk+kXxceesRv3ZTfB8DwN53vwiO8w0Ak6nqDx3K7PBi+1kCVtd+XkER2y+LoEj2CutfnnYri/Rg00UUZVhaVbWj1JjCuT5Ucb03XHvtHyc/cPbQRWeBnGuBYbwRKwl5HV5Ml83hs/LXtb+s+2bancfY3irmPQCVwIg5CBW8YoGZRjBYqi4LBCs243UK58r05ps/8sZpJOGhi84C6D8AVBPrDh364fBA+c7OeflrbCzF0Y9DDzhbN53SBLA3MJIchBxtN1ZBFgwVL7VgKPsgXopecSXGv+644nXXK5hHsffiPwDoq1jSgsGIOkwewTDYSO3QGhsxfjJ/nW028JP5G2xo+cn8dfxM/ZsgGKzjL9g23wpuEDwWyhU2PO+e4MLkZ2A+IhbnOYPQZKS07yIlzABI/pL4Q5c8GYTrAEwk1h0qZHV4U7kmP0jH/gYZAtYoBnnalmwYy5Hx2PvcN1p+efnHbDQx//i9rQ/DEN8VD0IpmKUgVESpgle0sMzvImXgfdsvf/2eeA0Rm12AvwxgjbnesEF1BpLPNCyVC/sF6XAXjQ3tGTJIJgmGgpPMPzEgDTZSB6TGRqbRj6Z/dX2TSvAMfRPhr+OX2L/3YsPtDRcA2OPdIIobURJubcf+Pu2NVCslQp1sgqHKKoKrf9/MWPVzscZk7J39KAjPT6w3NMjiUJr8TAFrsJE6YHX88vLXtW/7Jt4+fgq032zkO7jL4Xglju+kbiOLYAgFWQUj1dJqvEYiV4Lz0bs2bVxUkOzg4YtOBNFFxjpDhWFxeAWnrvhl4a/jV4SgiO3n7V+x/T70L+EnQPu7lY47sitkmBiEsogkCUbMQGBFczDKZpF6aTXSfCqu09XxhX9WtCjg3Ap8+gfEvw4ypBDPQKLD5BEMg41MDq9I28lO9X5heULf5J3sDMulfN//EdAWje/97ekHCPygIu7iQYh44VAurXby/9fWTW9ZkHMj2Ps7bwfh2cY6QwE5IMV8Kd2NwysDUhaUoh1eEiuToKQKSM1xxfhp+qbbuR9d2wE/1XGl+tvJbSts6Pqm4nRGGq12aHfUFEd5xqJUF4TxOjJR5d8jXhoQSyEY6bgqWmsSnC8qCjv4zeZREL/PWGco0EeHVzpdkEwKyLwOL/DTiYFSzBT8lG3r+Mn8od7PGJAyfx0/WVA0/as6ru779zE8bevdgCAaYN5VQBAKP2kEg6Uqst0ePzAHfDdxxWR05k8BrDPWKTXyOjykur10eJGfwUYvRz+DGO7LfaPsX5Gf5riU/HX8NDZi/CQbzDsB9oHwFe8AE+6MGIiRQgyDWlqNWJS4xv4ugVipuDI+DyPOrYCOvthcp8xIIwam8nY6UQxM5UghBgpOXfHLwl/HLy9/Xft5+1dsf4D9S3RrkBOKhud7t1Ucp9sg1AhGKT+duFibcL8bb1jAviPPAHCMsU5pETiEdXh9+0UIXhf9W2jfiOke9A3zzmArvDzZuumcewBE3q6dXTBUKMX7PVVcb926aeOsknIA33mzsbyUYKR3aKEuFOnMTie1PdTDfUj8dfw0NmL8JBtlnewU+Xf2W8BkIxxpdOY0WuX/3UlmDsJYXjy4JSlQqUzelZKsXJlvVLTewSN/uxLgVxjrlA59dHil0wXJXjm8wC+9wxv4GQRFJ1Yxfpr+1fVNIj9ZUNL2r8gvoW9M/av82/q34Mid80GVqGgQ3daqrg727lZKYlIgEUdKwWCpqXxcmfj7ihodeM0XATRurFMa5HV4SHVL7vARfhobMX5S3wz16MfUv2zgL/BTHZfIT7Uf0feEDETepMG+f1t4+5KSvHwQwU+SYCj2lqM6JhixZqAVjOxcmRfwP4rKwm7OqSCVvbIhjRiYytvpRDEwlSOFGCg4dcUvC38dv7z8de3n7V+x/RL2L3t60XAnRn7QnKs3wZBfyxMf6mcSDJaqyMHYq08nark+eNsn3jAT3zNi5VRzeRkQHJh1eH37RQheF/07TJOdan73Yv2OHwmF0cuT71585kEwdss7931pNaYEccGI9VUGrtR+8EaPzS6ozO/7ZKR3aKEuFOlcZyDB9lAP9yHx1/HT2Ijxk2wM12Snmh/h/0KCI2cQcJu4c6qlVaEgm2BIfDvGRQaxOpkEQ8HVZ75bQb6DR2aegtJ+r6SPDq90uiDZK4cX+HXr8Mq2dfwkG6a+0fKT+ev4yYKStn9Ffgl9Y+rfVGIbpr8OCTHRYML25CCUd2r9pxMMyVgkL5qrEIxYUzKB7Fwd4LdxMgI852nG8oEgr8NDqltyh4/w09hI6/C6vin16MfUv2zgL/BTHZfIT9d20H4A4n3YV4198yc2d1FhvtGL7KsKwmhePDQlKVDoRe6lVUU7Wbn6rbd06UF8hEKvBog0YmAqb6cTxcBUjhRioODUFb8s/HX88vLXtZ+3f8X2h6R/GdfilK1NSIiNNK7fdM4egOLX/JrAjIVmr5dWJR55loEBelyxVwc+rTSW9xXBcUtnjFyCYbCRyeEV6aU83E8SjCzDfV3fDGT0I/OX8/1/hQIx0Wjt5t8QOygIgRvmyYIh20E8qvu7tKrkyj7Md4KCV5jL+wE5IMV8KW0nOw38TILCBv46fpKNpTDZGdsPAHAvjr/1ViigEQ18I59gsFRFDu4eL62qWlElWTk+ETDom7pUAdkjh1c6XZDslcML/Ap3eJmfwYapb7T8ZP46frKgpO1fkV9C35j6N/fopw3ClxUBDEAjGsAh2wA80qGSFITRArVgqLLioiILRqxfArFS/cFYx1WepC0rTAGJaFrrMEPg8BF+Ghu5HF7om6U++lEdl8hP13bQvtK2AOKvqAs0orF10ylNEP4rFoRCQ1kFQzXqiPh/TDAUf7dEwVAhYVWnNOjG4UWHgeI4i3R4kV9Oh4/wUzi8SVCGcrgv8zPYMPWNlp9gI5OgaGPhRzhux126Qs1IA4CPf4uZbBPmeKZ2s5XXr6VVlqoncC0NunX4drovDq9x1hi/IhxestfT0Y/MX2Hb1L+lHf3I/GUbSnzBVKgVjRc5P/oeg++L8pMFghWb8TpmwUBsI+tDaDrBMHEtB+SAFPOltJ3sNPAzCQob+Ov4STaW7mSnCnMg/19MFbSisWnTJt8B/qXTvhSackwqM3u1tKquk5ZrOaAKyB45vNLpgmSvHF7gV7jDy/wMNkx9o+Un89fxkwUlbf+K/BL6xtS/3U52KkFfxtTO/aYa+ssTAOzg/wPDUwdhJOzlqIYQ/ohWzC4YJiO5VnWQ/EH43sEUkIimtQ4zBA4f4aexkcvhhb5Z6qMf1XGJ/HRtB+0rbSfAoX9MrGIq3Lrplb9h4N8jzaYVjFiWFMySYCgURd41VljUqk7/0I3Diw6D2LEV6/Aiv5wOH+GncHiToAzlcF/mZ7Bh6hstP8FGJkHJ5O/bcdzNdyZVMooGAJDvXZk1CPu+tCrbycC1f+jW4dvpvji8xllj/IpweMnekpns1PRNeSY7FeD/naZWomhs/fBrbmfgxtRBmGZpNV4jo2CoDegEQ82rX5ADUsyX0nay08DPJChs4K/jJ9kofLJT5q+zLf9tdfw0xxXjx1Kd1JgGHfiPNBUTRQMACPzeWNSpeKVdWo1ogKwCaQSDpeoKoYrSGhBUAdkjh1c6XZDM6vCSDa3DC/wKd3iZn8GGqW+0/GT+BhtLbrJTAeKrMHWX+XvGbaQSjW0ffPX/Q3tuAwg4SgT7sLSqMNDZJ0pOtqgw2EuYAhLRtNZh8jq8ZGOQk52FDvel4woDLqFvTP2be7iv46/jp7GRSawUNvJOdsbxEObriROgAVKJBgAw+H0AFpRBWODSqtxq9CdJMBR7ywrEDF/RUnHoxuFFh0HkGGM2hmGyU9d2wE91XKnESm5bYcPUN8qA1fEz9K9qPyU/Tf/qxCqzoHQlGABwGTbcPpe2cmrRuOlDr7mbGR8pYmlVUaFTIndWJsFgqUoKroWiW4dvp/vi8IagLtzhJXt2slPDjw38ZP6yjdz4FUYmP51lh9SiAQBOdfVlBPy4k9OHTyd29ogVZRMMZVZBkAMywiSatpOdBn4mQWEDfx0/yYad7IzDcS7CsdfVM+2SpfLWTac0faa3Amg1EuMtBW5MMBT9ahIMlgRDKMgqGL1TDFVA9sjhlU4XJLM6vGRD6/ACv8IdXuZnsGHqGy0/mb/BxnKY7Izjehx3c+zFwUnIJBoAcPNHXn0ngd+deqUkUkMWkSTBiBkIrES2o3XUglG8ZJgCEtG01mHyOrxkw052avixgZ/MX8fP1L9s4C/w0/VN7G+nsFHcZKeMg/Dp7Xl2zCwaALDtw6/9FDOE5+1lwUBso1Sfeez6LvJuHF50GCiOK43Diw4t76fjl9PhI/yKcHiJv1as5LYVNhIDUnNcMX6G/lXtp+Sn6V9d20p+pv4tVDAAwkV4xi2/yrNrLtEAgP0j/BYAN6oFIyoQZfzMY3506/Aij147vCGoUzu8xoaRn87hkwRF5NdF/9rJTjMI/4ap7Z/Ju3tu0bhr08bFSs19LTPuAlIIhrETWPpJEgzF3oql1VhLXfW/HJAqo2kcniPHpLQRO9C8Dq+w0TOHF/lpjkvJX8dPYyPGT7Ix1JOdur4pEISfo9Y8vxsTuUUDALZueuVjfsM9zQd+2Mph6ThlwRBKNArQv3eRZoEqIHvk8Eqnix5DNN/k8JINrcML/HI7vMjPICi6tmP8NP2r6xslP5OgpO1fkV9C35j6N7fYFopp+PxyHHtbwidJzehKNABgx5WvenjMx6kAbpEFI9aHgQCoOodVgiElUwmGKkvOSDupYQpIybbWYfI6vGTDTnZq+LGBn8xfx8/Uv2zgL/DT9U3sb6ew0bvJThGPgnAGjt/xy24NdS0aAPC9yzYeWDm74gwAnwjyuhIMoSCrYKhGHZG4Tv1H6cbhRYeJc0/n8KJDy/vp+OV0+Ai/Ihxe4q8VK7lthY3EgNQcV4yfoX9V+yn5afpX17aSn6l/eyUY9ADY+SNMbd9VhLVCRAMArvvES+u3fPTcvwLznzB4NptgSGj/ITieqd0MGojtk0sw/NBePocX2+61wxuCOrXDa2wY+ekcPklQRH5d9K+d7EyLH6LpPQ/H3/yTogwWJhoBbrnsdV+Az09jwhdbOWkEI5oXFwhWbMbrmAUj3rwRdrJTfVwhP81xKfnr+GlsxPhJNuxkZxowwJ+FN3Eyfn/ng0Uajn3LtQhsv/z1ewC8+eS/+bdr2cEHmfHsWCWNiMRkRNYGZWb2B+bSIYtDyW0YAlZnGzA4vKk8K78s/HXtZ+Gv41eW/hXbH0TfFI6fwHf+Es+4+aZeGC98pCHilite980dl79+AwhnAbgp7LXQP9IIBktV5M7O88BcGhR1BlJxyHIGyurwOhsJgmEnO1MIhqF/yyEYPwPRG7B+x7N7JRhAj0YaIlqDgNd/C8C3nv/erx7j+PwGAK9l8DMRiJasHWEihWDEsiThiQlGmj9Y8PB8kljI9nUObyqHwaFU7WcRM137Wfjr+OXlr7DRVf+K7Q9T/xaGR0H8dcD5PKZu2d6LBmT0XDRE3PrR1/8GwEcAfOTEd29ZjWrzhfD9EwH6PYCfyuDfBWgknWBA8TeIi4osGAyAUrHN4jBLyeEle10Lnu2beJ3ceASEu8G4G8CPQLwVUzt/AnBvXxEjoa+iIWLn1Rv3A/i/7X8hTnz3ljEAY000VpktaJ7mlRWB4ptz9fmHU5EsZP5AzC/L2TmNw/vvRKVyHWKoR36SQZq0jIW0BgVzJtv1tGcHjY0ErpnpZibT3s1pgP1Z/GzdDDZeO8hvb4QYmGjosPPqjfMA5gEYP9jSU/gAqOjhaJJgFCEoYvvdnuGdh3H0l3M90GTRAzxj0AQ6KJ1olAPSnIaYLvNwP4lfpuF+KU5qFiWEFQ0t+i0Gkj1jeRp+RYx+LCzisKKhhI/ONWhRw/005Zo6hQuKZE9ZbmGhhhUNLQqYPyj9ZGcCPwsLBaxo6NCT4X4RgiK238PRj4WFBlY0tBjgGb5vk50G25RzidBiycOKhhLSnEbwO0gx6Nlkp6ac+W349WtPgwhfth0paP/o7jPSjWKE+sp7lFLsF2nfsF+MXwLXZvP9eOaOdPf0LCNY0dCi4OF+KSc7jfxOB5PQfoq2iREXW2ToG1LXSewbzX5KfmIdgrFvqu5VAKxoSLCikYiE+YNhn+wcptFP3/vXQgUrGlosAYcv3einCEER2+9x39h5HSWsaChR8jN8oWIgppfS6KcIQbFQwYqGCqZnT+xwPyN/XfvDNPqxEGFFIxFldnjJXi/P8EMnBpK93H1jIcOKhhZlOTv3WAxy8VtKox87usgKKxpKiPcOlNnhxfbLcoYvQlDE9gfRNxYmWNHQYsBneDvZmYJfEYIi17FIghUNHUxOZ4f7KfkN0+jHIi2saGgxTA5f0Bl+6MRAsmdHF32BFQ0lxGcS+nF27rEY5OK3lEY/dnRRJKxoaFEWhxfbL8sZvsDRz8D6xiIvrGgkYWgmO4sQA8leKUY/RQiKXMeiG1jR0MEO91PyK4vgpeFvUQSsaKjAijkNMT0Qhy/oDD90YhCmHwF4AoyxfPwsikJPv+U6/BCdv+3QzNAGRVikOcOzOOTWjB5MQc0sBbWOn8aGsm2Jn67toH3VcUXEKo9gCPxbaQ/gb4NwARzvKeDDRnDc1sNw3LZxLNIT4PMLQLgc4F/q+VvB6BXsSEMJxZu7jA5vKm+nh+4MX+DoJ1vbN8BxLsLTbvgJVHjW1scA7Gz9o/dh90mvAeNKAL8Tt23RC9iRhhG6M2gGwdCOLnSjB7ltIN3oosSjn0TBYADcBPDnOO77Z2gFIwb2MXXLFrj8DBC+ZQWjP7CioYUYkEJerFzMl4KmPMN9DT/NcSn56/gZbJj6JiooC3CcM3Hc9z+FPHja9sfxsPtKAF/Itb9FJljR0CG1wxvO8JF8k6BozvBRMtG0afRjHF3AMLpgqVzXNgz8RbE19I3Ij/nP8LQbtqIbnLK1iYWFPwPxTV3ZsUiEFQ0lfKR2+EgdNgRkkEwKyIQzfCRgNfyMowvDyCVoX3VcPRv94HOY2vplFIENtzeA2usBzBRiz0IJKxpGpBldSGf4yH5Sun/DfbWNnox+TKMLqW/i/A6C+QMoElNb9wK4qlCbFhFY0dBCChpTQC7ryU5T2wI/dd98rh3kxYKq1wB4vHC7FgCsaKjBaASJeECazs6Ip+1kp6ZtAA59Db3A1NZZAN/p2g4tNrons/RgRUONx/UBiU46FpAmQdGc4UV7cnopTXZG6jDA/AietvVW9Az0za5NNNwDBRBZcrA3d6nA3B7a6hxezpPSQ/kgVxb+OtsZ+BN+AfV3GIsBeT8Dd3VOZDzq2kscBaxoqMDY1/mEQd6AzCsoYn5eQTHY6EZQChMrBoDi5zJENP09qHQhGkQzOGVrszhCSwdWNFRg/LR1F3mZxUCyN2yjH8Y8egnXmYtQyArmXxTGZYnBzmmo4B3yc7Rua0b7+hthOkSas7MYkHkEo70fC2nZdipB0eyXSzAUNnKNfviJ6CWIDu/Swq5CeCxBWNFQ4dhP1AHsNjh8J20nOw38dfwAAEegl/C5O/tEdxXEZMnBioYW/F2Dw6cIyIQzfCRgFTYSRxdlHP3I/A02mJ+OH5/YQ+GgU7vb37+xGB5LD1Y0tOBvJwdkqYb7Qnme0Y9pdNGT0Q+hWnk5egbnnC52nsbUzh8XRmWJwYqGDo+s2A7gobjDJ5ydl+ednR1+uraD9sX9fP8CgAhF46cveCHAx+U3QN+UlNVCgBUNHTZ8pgHmfwq37WSnpm0dvxSCQnQC7nrBuSgavvPRrvYn75+SKy1fWNEwwefPgLhpJzsR3y8szzv6aYNwJe56XnErKXeddCHAJ+ben3AHpnb+d2F8liCsaJjwu1+5Hxy82CXrcF8MSGm/IF3YcF/M7/XoR+ZvsKHsmxiOArlbsPv4mq5Cauw++SQQ/ldXNnzqbv9lACsaSajg/QAfbG2UdbifdvRjGl30Y/SjxcnAqm/iR6euSlNZibtOOgPM/wWgG/H5MY7fXsy7PZYwrGgk4aiv7AHTVb0b7iNad6lNdqYF4wxUG7di98l/mH4nAPe8bAS7T3ovCNcByC86LbwLvXweZomA2E4SJ2P3uTWM4TYwnt3JzDrcN5W304nDfVM5cox+0vLXtZ+Gf2YwCNeC+WNYv/N26aA6uOd5k6i7rwLwAQBP6aZBAADxFzG1481d21kGsKKRFve8dj0c53YAo9ozvJwXpFMH+zCJQRp+3YIeAPgGMN0L+A+BaBTAUQCeDuCPAIwU0wx+jVrzWTj2NvuawBSwopEFv37tG8H0BQCUfbhvKjfUKcNj7Fp+hY0uBolFsH8qjt+5c9BEhgV2TiMLnvy1L4HwYf0ZXkrnOsPr5g/SCobQdrkmO8sIBuhtVjCywY40MoMIv3zNZwB+WyeviLNzltFD3tGF2H7Rl1NDCML7MLW9uxvBliGsaOQCEX756k8A+Iv+DPfzXo7kFRSDjeEfXbTBl2P9jvcMmsUwwopGbhDhl6+6HMAl+c/OZReDNPyGDgzgIqzffs2giQwrrGh0i1+9+q3w+dMACzcVFRGQeQVFYaMno5+hxCzAb8H6Hf8+aCLDDCsaReCXr3gBmP4VwNH9OcMXIQai7SU/ugDAd4PoVZjabt/I1SXs6kkR+N2v74BTeyaIv9LKYCzbOzvLCOIvgmonWMEoBnakUTTuPuc8AFcDeGK24X7Z5zeGEvfBwdtx3PbrBk1kKcGKRi9w31lPQN25DOA/g/jxjVKKwZK8HFkA+Cos1D+KDbfPDZrMUoMVjV7i5694Jir+ZWB+qZ3s7At8EH8ZTXcTnnnTrwdNZqnCikY/8LOzT4Hjvx/gP+pk2snOwkDwAPw7gA/aeYvew4pGP/GLlzwXcN4D8DkAKvbOzq5xEMDn4dM1eMYtvxo0meUCKxqDwM/PPBxw3gTwOwE6ojzzG8MC+imAfwF5n8PUzv2DZrPcYEVjkLjjOVWsPPR0gM4F+68EsMpOdmpxD4CvwXG24Lib7xw0meUMKxplwT0vG0HTOxPkbwTjFQAm7WQnfgOibwDYgqntOyTFsxgQrGiUEQ+cOIbZiReC+TQQnwbGswA4y2Cycw7AzQCuB+F6O6lZTljRGAb87PRD4XungnAagNMAPLVVMPSTnXMAfgDgFhDfhNohO3DsdfVBk7Iww4rGMOKuFx0Ft/Jc+P4JAG8AsAHAmpJPdvog3A3mO0G4HR5uxWL9dmy4vTFoYhbZYEVjqeCnL/gdeO4GODgBzM8A81NAOAbgFQNgsxfAboB/BsZd4MpujC3+0L6Dc2nAisZSxw9feBhq3jEg5xj4fAwcejJ8fx1AqwGsBmE1gDEQJsGoGCz9FoQ5MM8Bzj6AHwHwMMB7wdiDCt0Lxr1oTvwGz/zuwf4cnMUgYEXDIop7njeJ+WpLPGa9BTx/5/yAGVmUDFY0LCwsMsG+T8PCwiITrGhYWFhkghUNCwuLTLCiYWFhkQlWNCwsLDLBioaFhUUmWNGwsLDIBCsaFhYWmWBFw8LCIhOsaFhYWGSCFQ0LC4tMsKJhYWGRCVY0LCwsMsGKhoWFRSZY0bCwsMgEKxoWFhaZYEXDwsIiE6xoWFhYZIIVDQsLi0xwB03AIh+IiACAmbF582aSy3ft2hXmbdy4EQCwe/fuWL0iMTU1xQCwZcuWSP769esjL6LdtGkTt+mD7Utqhw72xcIlg0oMAgHYuHGjMvDXrVsXyZueno5sT01NYe/evUbB2L9/fypBWb16tdFhnvSkJ/Hu3btlfpF9pqenYzampqY4EBtRZC699NLWF2yto5YGVjQGACIilSisX78+EriBGIgisHr16jCtCvQDBw7QUUcdFcmbmZlRCY0yPwsmJyd5enpamS9u33///TjkkENijiYK0P79+8N0IDKyuOzatYuBjqgEI1rodG4AABASSURBVBYrKP2FFY0eIhg1XHrppaE4yKMFWRgCUZAFYXJykoCoAExMTITpgwcPEgAcdthhEQ6zs7MRO2vWrInULwITExP8yCOPRPJWrFgRcax9+/aFdQXOYToQmpmZmch+gbAEoqISlGCUYsWkP7CiUSCIiHQCkUYcZGEIROHgwYMkikEgBGNjY+G+c3NzEREYGRlRisLCwgIBwCGHHNLl0bZw4MABAMDo6KjSker1eiR/fHw83J6fn2cgKjD79u0LhSUYyagEJY2Y7Nq1iwMhsZc5xcGKRheQRUK8vFi3bh3pBCKNOMzOztKaNWvCEUEgCrIYBNuBGLTtR7YDVKtV7eiiXq+nGnmMjIxoHabRaCjLFhcXw/xAXGQxCbZ1opJFTEQhMYmIFZB8sKKRAeJchGokIYqEPILQCUSSOCwsLFAwKlhYWCBZEEQhEANflT8xMRE7psXFxVyXKbVaLeY4Bw+2PuEqCsvs7Gy4LeaLAjM6OsozMzNh+sCBA6G4BOlATIJLoWB0Mjc3x+22Q0FJIyLiJY29nMkGKxoJSCMUppFEIBLj4+MEtEYQwWWFTiBkcQgEIAj+er1OK1a0PgZfr9cpEINAAMbHxyNi4LpumE4SifHxcWX+3NycsZ9EEWk2myznz83NhWlRXFSiEghKICaykMijkvn5eQ5EJBiRqEREvKTRjUKsgCTDioYGuksP3YhCHk2oRhKySIhiUavVCABWrlyJhYUFCgRCFIyJiQksLi6SKAqBIIhiIItGpVIJ041GI5gPCY8162hDFIj5+db3oavVapjneV5ENETBCfYNhCUor9VqLIpJIByykASXOqOjoxyIhygi4kgkEBDxciZJQMQRiL2EUaNy6aWXDppDqUAtOIcddphzyimn0L59+5y1a9fSunXraHZ21qnVas7Y2BjNz8878/PzNDk5SfV63XFd16nVarRq1SqnWq0SM1OlUnEajYYzNzdHjuM4ruvSxMSE02w2ncnJSWo0Gg4z0+joqNNsNh1mJt/3nYWFBWd8fJyq1So1m02nUqk41WqVKpWK47ou1et1J7DPzKFtZnbGx8edRqNRISIn+Oc4TphmZmd0dNRB625gp9lshnVHR0edarWq/ef7vkNEju/7juM4BCDMr1QqJLQRpn3fd8bGxsjzPKdWq1E7j4jIGRkZofn5eYeIHNd1qVKpULVapZGREfI8zxkdHaW5uTmnUqmQ53nEzDQ2NkaTk5Oo1+tUqVQcz/PC0Rwz08MPP+y4rkuu64Zi7bouzc3Nkeu61Gg0aHJyEvfee29wwqRarUbz8/O0bt06/PrXv8batWtpamoKAGj37t106qmnwsZJB1Y02gjE4pRTTqGpqSkiItq3b19MLPbv30979+511q5dG4pFo9FwVq1aRfV63QkCudFoOLJQACDHccIAC4TCcRyn2Ww64+Pj1Gw2nZGRkVAUfN93gmBpNpuOKBCjo6MUlAd2G42GMzIyQoI4VIjIGRsbc6rVakRAPM+rjIyMOK7rOq7rhkKCtpj4vh8RiKCe67pOW8yoHfDOyMgIVatVx/M8x3EcZ2RkhHzfd9ojpXazHcEIhMJxHHJdl3zfp5GREVpcXAz6gDzPo2q1Sp7n0ejoKC0uLlKlUqHf/va3TqVSoVqthkBAJiYmqF6vh/M/zEwzMzM0Pj4OZg7ndALxcBwHk5OTGBkZocceewyw4pEa9vIEnUuRLJchpksQ8fJDnJ8QLzWq1SqpLjlc1yX50qMtBjQ2NhZeSlQqFWo2mzQyMoLgt9Fo0OjoaHgJ0g72SHmbF4J8AKjVapFtHVzXDS4RItv1eh1A6xKlXq+H+b7vc5C/sLCAIM913bBecClTq9V4fn4e1Wo1zBMvYZrNJsuXMsFljOoSRr58kec/xLkP+bIluKtVvGwR5zwALOugsaIBUDDJKQuGOMEZ3GmpEoyxsbHIfIU4oRnMVQQikVYsgnkIMV8UikBIZJEQBSIQlFqtFgqCKCSBWKi2VVhcXAwFQd4OBMJ1XQ7y6/V6REiC/EBExDLP87QCIopFICSBiMjiMTo6yo8//ng4iVqv11mcSB0fH2dZOHRzHvJ8h50sbWFZX560L0kKEYyFhQWamJgIRhk0Pj5OzEztuYiYYLQvMcLLFM/zyHVdajabTq1WC9Oe5wXX+rH5gfaw2/E8L5xLcF3XqVarREROo9FwqtUqBb+u6zqO45Dv++GlDVqXDpVKpRK5PKlWq05weRTkVSqVsB0AzsjICLXzwl8ADhHR4uJi0CYBoGCep315Qu2gC+cigr4CgGazCcdxqFqtIignIjQaDbTrAQCq1Spc18X8/DzVajUsLi6iXq+H6fblE0ZHR+G6LlzXpYWFBYyPj2N8fBwjIyN47LHHiJmxZs0aPProo8F8Cebn52n16tXYt28f1q1bh9nZWaxdu5Z27dqF3bt3Y+vWrX3z07Jh2T4aL66OBE+B7tmzJzI8Dy5J0owwgpFFsK/pciQYPahGF2NjY2F5pVIJ/zWbTXIcJ9z2PC+cgAzyx8bGKBCFQBjEeYi2AFRc13WYudKeYA1/q9VqhYhcInKbzabbbDbdYDsoZ+ZKsA8zVwKbvu+HbbiuG4pSMCcScB0bG4vkVyoVGh0dhXhswb+gjxqNBlUqlUCAIiOz9pxR2MdB/wfp4NIw+NssLCzQ3NwcHTx4kGZnZ+mwww7DwYMHKek5nOCO3o0bN2LXrl20efNmCh4TWG5YtqIRYNeuXRTcd7FhwwaIowyg9QBYko1gDkO+JAFagiHeXLW4uEjyEqd4b4QoJEDnksRxnPBSpNlsRi5DgknBoF5wqeE4DgX/giANRgVikFcqFcdxHIeZK67rVsbGxiL/XNetuK5baU/COu1VnDBNrSWasI3gn8gBiF4+BWnHcSKXWc1mM7w0A1oCIS4Py/ecBP9E4RBvcpNvmxdvnw+ewwnuwg0e4gvuswFa81niA4O9fr3AMGDZi0YS5CdGAwQOlwYrVqww3qad4z4JAAjnLYDoJGbS3ERQp9lsUrVahed5wUoFxG0xv9lsUvsSKtYe0LpUkCHWSZpkVUEUCyDeT7ob0bJAfqBPRNrXBSw3WNFA5+UxQOtWY/ExbfmpywDiU53BQ1u6h7eCSbqDBw+iVquxfAu2eAdlcLNUgGCiUJw8DFYgfN8PJxKDicjFxcVwUtL3/UjdxcVFMDP7vs/NZtN3HMdnZnYcx/c8z/c8z282mx4zN5vNpiemicjzPM/3fT/cp9lsBpvcaDQgt6VKBxOkYl0ACI4tOGaxL4Jfue+CydBgW7wpLA3Em8AAIJgMvf/++wF0VlLS2lsuWLaiwcy8adMmXr9+ffjyF9XLYURMTk5y8NDUihUreGJigsfHxzkQidHRURafoxCXA8XbpcWVgMDpa7Uae57H4oqB53ksriz4vh8RDt/32XEc3/d99jyPHcfxR0dH/UAU2vVDgajVap4oEJ7n+Y1Gw2s0Gh4AL0g3Gg3P9/2m7/tNMU+sI9oIBCT4XVhYYMdx/IWFBfZ9n0dHR/12uywLWXC8wa94zEDr7lLdKopqVQWIiodu+VV8RF9MA4i8+yNh6XVZYlm/7i9YNtu8eTN27dqF9evX0/T0NK9btw7T09NYvXo19u/fTzMzMzw5OYnp6Wlat24dz8zMYHx8nBYWFjh47mNubg4jIyPUXuLDwsICarUatYUDANBoNMLfZrOJZrMJILxUCLcdx+H25YDMlx3HofYdphgbG+NGo0Ft8aD5+XlqB0xsuVVMB5cvi4uLYZqZY/dtiJDvzRCXW+fm5uC6Lge/juOEo4B6vQ5xFNJoNNhxHFQqFW40Gmg0GizuS0TseV4oBMzMnueh2Wxys9mMCEaz2eRGowHHcSK3nacRjGCUIT7wlrTk2h6Rsug7Xbjf0GJZiwa31/KShAMA9u/fj8nJSRw8eDB84Kq9ksLz8/MYHx+PPNRVr9cxOjrKwUSc4zjcnqQLRaPRaKBWq7HjOCQEMLfT7HleOFFYq9V4cXGRPM/j4B6NdnCS4zjkeR6L92wEk4qO44R5AOC6rigWFIgB0Jl3EPNEBPdaiF0obDMzo9FooFqtcnt5lJvNJlzX5ZGRkcgNXsElTdsmExEqlQovLi4G92+EotO+LEGz2WTHcbgtqhBFIxCLRqMhigWIKHaPRqVS4fn5eTiOk/oejampKd69e7d9rB725q4QurtCAYQrKqq7QoH4E6xpb/QS06qbvQBE8lQ3fAGdB9KClRagcxPX6OgogM6DauJIQ5ycDEZDYt0A4sNowXxDm0ds1BHUDwRCvIFLvgsUQOTSQrwEEct0d4K2ecdGFoFIiGIxMTHBCwsLscfpVWLR/tvHLkmWu1gEWNYjDRHtUUdwuULi27yDUQcAbosHAHClUqH2Eh3PzMzQ/Pw8VqxYwUQUPP7ORET1ep2CS4uFhQVaXFzkQECCJcn2HZB04MABmpiYYN/3ETybsbCwgPaDaoE4hDdGVSoVYuZwKdL3/eAXlUqF5ufnw9vI28dJ9XodIyMjcF03FIggyFWQL5MAxCYtg2Cq1+uR27+DSczFxUWMjIzEbhVnZg5s1Go1bs+HRJ5+PXDgQLAvO46DYLTRPn4+ePAgRkdHmYjC0UW9Xsfq1avDkcXCwkJMLADwzMyM8tbx6enpUCyuvfbaZX0HqAw70lBAfodGmpEHgNgNYIB69CH+yiMQoPPeDHEUAkRHHUD8sXixTH4cPli+TFrelesFE7Xyqo4MsZ7qMXnVI/KBKIhpoPW+jaIfjxeEAmlHFsv9dnEdrGgkQLxsSfOmrrwv4FGJCKAWkmBbJyaA+cU7wf0Ned/aFUB8wY4qH4i/kEclDkBHEOTtNs+YSMhv9NK9iEclFKoH0ux7NNLDikZKBLcMZxEQQP9yHgDGF/SI6WAy1SQmYp6YL77iT35Rj5yXBSrBEMVC9eo/UQhU4iC+qat9DOJcSjiSANQioZrUBOwr/4qGFY2c0L3ZC0gWESA6EinihcKqlwmrXiSsuzM1yA9eIyhjdnY2aFfrMHKZfKOV/C5QoDNiEHhExEF+J6j4gmHVSAKIi8Qdd9yBww8/PHLpAdhVkLywolEQkkQEQOS5lryfLhAFBYh+ukD12QLxxcTBtu4YJicnjccYBLwKYuDLQqDKF986Ln43RScObX5KgQA6r+0D7GcMeg0rGj2COJkKmIUESP+RJPHLaKoPJInPUsgCI0L+TkpeiMEvQv6Akvxtk6AOEP1SWzcfTRK/wGYvN3oHKxp9hDgvAuT7HKPqISrxqUwg+hU20+cXu/3Kmnz7tcAn9rlG8VONqud5AlEQvwWb9vOMdgTRX1jRKAlkQQH0ogJEP/osf/BZfLQ/QL+e2FR9IFp8ABCIfhDa9DFo+yHocsKKxhAhEBbxsgfoiAvQeaFQmvc+7NmzhzZs2JCLizi5mATxi/BA9KvwwWUEYAVhWGBFYxlA94Yp8W8vipAJ4tOduhdX2eBf2vj/AdH4FD9SXHAPAAAAAElFTkSuQmCC;" vertex="1" parent="1">
          <mxGeometry x="-214" y="440" width="96" height="116.35" as="geometry" />
        </mxCell>
        <mxCell id="KrZMVGwemaGHYM_YUxDV-44" value="&lt;font style=&quot;font-size: 18px;&quot;&gt;Python Classes&lt;/font&gt;" style="text;html=1;align=center;verticalAlign=middle;whiteSpace=wrap;rounded=0;" vertex="1" parent="1">
          <mxGeometry x="-290" y="471.5" width="60" height="33" as="geometry" />
        </mxCell>
        <mxCell id="KrZMVGwemaGHYM_YUxDV-50" style="edgeStyle=orthogonalEdgeStyle;rounded=0;orthogonalLoop=1;jettySize=auto;html=1;" edge="1" parent="1" source="KrZMVGwemaGHYM_YUxDV-45" target="KrZMVGwemaGHYM_YUxDV-33">
          <mxGeometry relative="1" as="geometry" />
        </mxCell>
        <mxCell id="KrZMVGwemaGHYM_YUxDV-45" value="" style="shape=image;verticalLabelPosition=bottom;labelBackgroundColor=default;verticalAlign=top;aspect=fixed;imageAspect=0;image=data:image/png,iVBORw0KGgoAAAANSUhEUgAAAIAAAACACAMAAAD04JH5AAAAolBMVEUAAAAxeMYwd8UwcM8weMUwd8cweccweMQwd78yeMcxecUwd8Uxd8UxecYxeMUwcL9+q9t+qtxXktDm7veYu+PY5fWyzOlxothlmdRYkdBLiM2+1e1yodjZ5vS/1ezL3fHM3fCYu+Ll7vjy9/vY5vRkmtSlw+ayzOpyothKic2lxOZLic2Ls9+/1e3Z5fSlw+c+gMqLs96YvOKxzOr///8xeMYqO335AAAAEHRSTlMA34AQvyBfYCB/z8/Pz78Qi8soFQAAAk5JREFUeF7szsENgDAQBLE5HhCkkFSz/beGKALdZ1yBgX2vtHhOPqPSpgZQaVSbK60OZlot0oz8xYABAwYMGDBgwIABAwYMGDBgwIABAwYMGDDwtm8nO1LDQACGQ8OABNLQ2XpdnJTHA8YGTLr8/q/GcsJTJmkO5br0f26pP1k+VEVy2Pvvxx40/kpDr47jaX8bAP8/Ajh0SmMmNe5LAD6rGSxYbsAOcDbDCwgKURLQAIoCGo2iAKdRFOAAZQGfUBbgUBhAD0APfttYa83WX843A0YSJAAYSfkD0FOIf+XWlzxgOZUAhphvi2m9JT9xa2AEfMEkCFnmGtgAity1bM5yAdoEoONMPABMAmGA/AmgKQ5oMakvDnjCtGtpwIZMoLYs4Ae+DOqigIA02LECqJOm6nIAg9mgDpwACqXpq2UGLM+kV8sNoCMBJfADoseZusALWBZAwwxY3s06fkB0m1kBA4C0hrm7yAxYJnTMgGWCYQHQzAbzARuAXkfAXDUngG5CtCdGAG3SSDIlAdEpAvCsANqEL/paFkAFUBZAJxVdHGAwrTgg6hKAuQm8LQFQ3a0nAEwABBvz7TBpYAL8e/IETLqyAfKEcMS0mhOAqOrEEDzZFiz7V7L+6E+7w+GwP3lFl5UhsgKWq4UB36IsQFthgI+ygCnKAnwUBYCJjIARF9JT4N2O3QRLf8++njd+0JipfTbl3hc023EznNs/EN2eL8/ehPv7ghnAHXAHPMoC3lcrWcDb6qPs0++qqh4EBa8eqt+9+yADeLN6XVU/AZaNDaYVEGRKAAAAAElFTkSuQmCC;" vertex="1" parent="1">
          <mxGeometry x="-22.360000000000014" y="440" width="96" height="96" as="geometry" />
        </mxCell>
        <mxCell id="KrZMVGwemaGHYM_YUxDV-46" value="&lt;font style=&quot;font-size: 18px;&quot;&gt;Typescript Types&lt;/font&gt;" style="text;html=1;align=center;verticalAlign=middle;whiteSpace=wrap;rounded=0;" vertex="1" parent="1">
          <mxGeometry x="87" y="471.5" width="60" height="33" as="geometry" />
        </mxCell>
        <mxCell id="KrZMVGwemaGHYM_YUxDV-51" value="&lt;font style=&quot;font-size: 18px;&quot;&gt;&lt;i&gt;Open Source Offerings&lt;/i&gt;&lt;/font&gt;" style="text;html=1;align=center;verticalAlign=middle;whiteSpace=wrap;rounded=0;" vertex="1" parent="1">
          <mxGeometry x="-180" y="130" width="105" height="90" as="geometry" />
        </mxCell>
        <mxCell id="KrZMVGwemaGHYM_YUxDV-52" value="&lt;font style=&quot;font-size: 18px;&quot;&gt;&lt;i&gt;API&#39;s and SaaS&lt;/i&gt;&lt;/font&gt;" style="text;html=1;align=center;verticalAlign=middle;whiteSpace=wrap;rounded=0;" vertex="1" parent="1">
          <mxGeometry x="557" y="130" width="105" height="90" as="geometry" />
        </mxCell>
        <mxCell id="KrZMVGwemaGHYM_YUxDV-59" value="" style="sketch=0;outlineConnect=0;fontColor=#232F3E;gradientColor=none;fillColor=#232F3D;strokeColor=none;dashed=0;verticalLabelPosition=bottom;verticalAlign=top;align=center;html=1;fontSize=12;fontStyle=0;aspect=fixed;pointerEvents=1;shape=mxgraph.aws4.source_code;" vertex="1" parent="1">
          <mxGeometry x="-390" y="440" width="70.15" height="96" as="geometry" />
        </mxCell>
        <mxCell id="KrZMVGwemaGHYM_YUxDV-61" value="&lt;font style=&quot;font-size: 18px;&quot;&gt;&lt;i&gt;Future&lt;/i&gt;&lt;/font&gt;" style="text;html=1;align=center;verticalAlign=middle;whiteSpace=wrap;rounded=0;" vertex="1" parent="1">
          <mxGeometry x="-310" y="370" width="60" height="30" as="geometry" />
        </mxCell>
        <mxCell id="KrZMVGwemaGHYM_YUxDV-62" value="&lt;font style=&quot;font-size: 18px;&quot;&gt;&lt;i&gt;Golang, Java, Rust, Swift, etc.&lt;/i&gt;&lt;/font&gt;" style="text;html=1;align=center;verticalAlign=middle;whiteSpace=wrap;rounded=0;" vertex="1" parent="1">
          <mxGeometry x="-500" y="457.25" width="100" height="61.5" as="geometry" />
        </mxCell>
        <mxCell id="KrZMVGwemaGHYM_YUxDV-64" value="&lt;i&gt;e.g. guardrails-ai&lt;/i&gt;" style="text;html=1;align=center;verticalAlign=middle;whiteSpace=wrap;rounded=0;" vertex="1" parent="1">
          <mxGeometry x="-270" y="580" width="100" height="30" as="geometry" />
        </mxCell>
        <mxCell id="KrZMVGwemaGHYM_YUxDV-65" value="&lt;i&gt;e.g.&amp;nbsp;@guardrails-ai/core&lt;/i&gt;" style="text;html=1;align=center;verticalAlign=middle;whiteSpace=wrap;rounded=0;" vertex="1" parent="1">
          <mxGeometry x="30" y="580" width="150" height="30" as="geometry" />
        </mxCell>
        <mxCell id="KrZMVGwemaGHYM_YUxDV-66" value="&lt;i&gt;e.g.&amp;nbsp;guardrails-api-client&lt;/i&gt;" style="text;html=1;align=center;verticalAlign=middle;whiteSpace=wrap;rounded=0;" vertex="1" parent="1">
          <mxGeometry x="360" y="651.08" width="150" height="30" as="geometry" />
        </mxCell>
        <mxCell id="KrZMVGwemaGHYM_YUxDV-67" value="&lt;i&gt;e.g.&amp;nbsp;guardrails-as-a-service, validator-hub-service, etc.&lt;/i&gt;" style="text;html=1;align=center;verticalAlign=middle;whiteSpace=wrap;rounded=0;" vertex="1" parent="1">
          <mxGeometry x="820" y="651.08" width="160" height="30" as="geometry" />
        </mxCell>
      </root>
    </mxGraphModel>
  </diagram>
</mxfile>
